<?xml version="1.0" encoding="utf-8"?>
<!-- Generator: Adobe Illustrator 16.0.0, SVG Export Plug-In . SVG Version: 6.00 Build 0)  -->
<!DOCTYPE svg PUBLIC "-//W3C//DTD SVG 1.1//EN" "http://www.w3.org/Graphics/SVG/1.1/DTD/svg11.dtd">
<svg version="1.1" id="Layer_1" xmlns="http://www.w3.org/2000/svg" xmlns:xlink="http://www.w3.org/1999/xlink" x="0px" y="0px"
	 width="900px" height="805px" viewBox="0 0 900 805" enable-background="new 0 0 900 805" xml:space="preserve">
<title>Blue Florida</title>
<g>
	<title>Layer 1</title>
	<path id="svg_1" fill="#FFFFFF" stroke="#FFFFFF" stroke-width="0.5" d="M0,429.5V54l5.2,5.5c3.533,3.667,5.533,6.167,6,7.5
		c0.533,1.333,1.2,2.167,2,2.5c0.867,0.333,1.4,0.833,1.6,1.5c0.133,0.667,2.133,2,6,4c3.8,2,5.2,6,4.2,12s-0.4,10.4,1.8,13.2
		c2.133,2.866,3.6,4.533,4.4,5c0.867,0.533,1.4,0.866,1.6,1l0.2,0.3l-2.8,2.3c-1.8,1.467-2.934,3.467-3.4,6
		c-0.533,2.467-1.867,4.134-4,5c-2.2,0.8-3.466,1.367-3.8,1.7s-0.667,0.833-1,1.5l-0.5,1l-0.3,0.2l-0.2,0.3l-0.2,0.3l-0.3,0.2
		l-0.3,0.2l-0.2,0.3l-0.2,0.3l-0.3,0.2l-0.3,0.2l-0.2,0.3h1h1h2h2l-0.2,0.3l-0.3,0.2l-0.3,0.2l-0.2,0.3l-0.2,0.3l-0.3,0.2l-0.3,1
		l-0.2,1l1-0.2l1-0.3l1.5-0.5c1-0.333,4.833-1.4,11.5-3.2c6.667-1.866,10-3.3,10-4.3s0.667-1.667,2-2s2.267-1.5,2.8-3.5l0.7-3
		l0.3-0.2l0.2-0.3h1h1l-0.2,0.3l-0.3,0.2l-0.3,0.2l-0.2,0.3l2,0.7c1.333,0.533,2,1.3,2,2.3s8.5-0.434,25.5-4.3
		c17-3.8,27.9-5.934,32.7-6.4c4.867-0.533,7.4-1.466,7.6-2.8c0.133-1.333,2.034-2.5,5.7-3.5S132,97,132,95s0.833-3,2.5-3
		s2.5,0.333,2.5,1s1.5,1.267,4.5,1.8c3,0.467,6.167,0.367,9.5-0.3s5.667-0.833,7-0.5s2.5,0.667,3.5,1l1.5,0.5l1,0.5l1,0.5l1,0.5
		l1,0.5l0.2,0.3l0.3,0.2l0.3,0.2l0.2,0.3l0.2,0.3l0.3,0.2l0.3,1l0.2,1l-1.5-0.2l-1.5-0.3l-1.5-0.5l-1.5-0.5l-1-0.5l-1-0.5l-0.2-0.3
		c-0.2-0.134-0.4-0.267-0.6-0.4c-0.133-0.2-1.133-0.4-3-0.6c-1.8-0.134-2.534,0.133-2.2,0.8s-0.733,1.066-3.2,1.2
		c-2.533,0.2-6.8,0.466-12.8,0.8l-9,0.5l-2,0.3l-2,0.2v1.5v1.5h1.5h1.5l0.2,1l0.3,1l0.3,0.2l0.2,0.3l1,0.5l1,0.5l25.5,5
		c17,3.333,29.9,6.9,38.7,10.7c8.867,3.866,15.633,6.966,20.3,9.3s7.1,3.833,7.3,4.5c0.133,0.667,2.367,2.333,6.7,5
		s7.333,4.934,9,6.8c1.667,1.8,4.9,3.8,9.7,6c4.867,2.134,8.466,4.7,10.8,7.7s3.933,6.9,4.8,11.7c0.8,4.866,1.867,7.966,3.2,9.3
		s4,1.667,8,1s8.167-1.5,12.5-2.5s7.833-1.667,10.5-2s4.333-1.267,5-2.8c0.667-1.467,2-2.467,4-3c2-0.467,3.333-0.6,4-0.4
		c0.667,0.134,1.167,0.6,1.5,1.4c0.333,0.866,1.1,1.2,2.3,1c1.134-0.134,1.8-0.534,2-1.2c0.134-0.667,5.867-4.733,17.2-12.2
		c11.333-7.533,20.267-13.066,26.8-16.6c6.467-3.467,9.467-6.367,9-8.7c-0.533-2.333,6.367-4.9,20.7-7.7
		c14.333-2.866,26.833-1.633,37.5,3.7s18.167,11.167,22.5,17.5s8.667,10.833,13,13.5s7.233,4.434,8.7,5.3
		c1.533,0.8,2.633,3.2,3.3,7.2s3.566,8.267,8.7,12.8c5.2,4.467,8.866,7.134,11,8c2.2,0.8,4.3,2.534,6.3,5.2s3.767,5.066,5.3,7.2
		c1.467,2.2,3.367,3.733,5.7,4.6c2.333,0.8,3.833,2.267,4.5,4.4c0.667,2.2,2.333,4.3,5,6.3s4.733,2.566,6.2,1.7
		c1.533-0.8,5.066-1.034,10.6-0.7c5.467,0.333,8.533,1.434,9.2,3.3c0.667,1.8,2.667,5.7,6,11.7s5.667,9.566,7,10.7
		c1.333,1.2,2,2.133,2,2.8s0.5,1.267,1.5,1.8c1,0.467,2,0.8,3,1l1.5,0.2l-0.5,3.5c-0.333,2.333-1.1,3.667-2.3,4
		c-1.134,0.333-1.134,1.567,0,3.7c1.2,2.2,2.133,3.4,2.8,3.6c0.667,0.133,0.934,7.2,0.8,21.2c-0.2,14-0.967,23.5-2.3,28.5s-2,8-2,9
		s-0.833,3.5-2.5,7.5s-2.333,7.833-2,11.5s0.5,8.667,0.5,15s-0.667,10.667-2,13s-1.833,5.167-1.5,8.5s1.934,7.066,4.8,11.2
		c2.8,4.2,4.8,7.066,6,8.6c1.134,1.467,1.867,2.533,2.2,3.2l0.5,1l0.3,0.2l0.2,0.3l0.2,0.3l0.3,0.2l0.3,0.2l0.2,0.3l0.2,0.3l0.3,0.2
		l0.3,0.2l0.2,0.3l0.2,0.3l0.3,0.2l0.3,0.2l0.2,0.3l0.2,0.3l0.3,0.2l0.3,0.2l0.2,0.3l0.2,0.3l0.3,0.2l0.3,0.2l0.2,0.3l0.2,0.3
		l0.3,0.2l0.3-0.2l0.2-0.3l0.2-0.3l0.3-0.2v-1.5V413l-0.5-1.5c-0.333-1-0.667-1.667-1-2l-0.5-0.5l-0.5-1l-0.5-1l-0.3-0.2l-0.2-0.3
		l-0.2-0.3l-0.3-0.2l-0.3-1l-0.2-1h1h1l0.2,1l0.3,1l0.3,0.2l0.2,0.3l0.2,0.3l0.3,0.2l0.3,1l0.2,1l1.2,0.5
		c0.866,0.333,1.399,0.833,1.6,1.5l0.2,1l3-0.2l3-0.3l0.2-0.3l0.3-0.2l0.5-1l0.5-1l0.5-5.5c0.333-3.667,0.5-6.833,0.5-9.5
		c0-2.667-1.9-5.667-5.7-9l-5.8-5l-0.2-3.5l-0.3-3.5v-1v-1l0.3-0.2l0.2-0.3h1h1l1.5,0.5l1.5,0.5l0.2,0.3l0.3,0.2l0.3,0.2l0.2,0.3
		l1,0.5l1,0.5l0.2,0.3l0.3,0.2l0.3,0.2l0.2,0.3l0.2,0.3l0.3,0.2l2.3,1c1.467,0.667,2.267,2.833,2.4,6.5
		c0.2,3.667,0.399,5.833,0.6,6.5l0.2,1l1,0.2l1,0.3l0.2,0.3l0.3,0.2l0.3,0.2l0.2,0.3l0.2,0.3l0.3,0.2l0.3,0.2l0.2,0.3l3.5,0.3
		l3.5,0.2l-0.2-1l-0.3-1l-0.5-4l-0.5-4l-0.3-0.2l-0.2-0.3l0.2-0.3l0.3-0.2l0.5-1l0.5-1l0.3-0.2l0.2-0.3l0.2-0.3l0.3-0.2l0.3,0.2
		l0.2,0.3l0.2,0.3l0.3,0.2l0.5,1l0.5,1l0.5,1l0.5,1l0.5,1l0.5,1l-1,5c-0.667,3.333-2.333,6.667-5,10s-5.434,8.167-8.3,14.5
		c-2.8,6.333-3.934,9.667-3.4,10c0.467,0.333,0.533,0.833,0.2,1.5s-0.5,1.333-0.5,2v1l0.3,0.2l0.2,0.3h-1.5c-1,0-3.333-0.167-7-0.5
		l-5.5-0.5l-0.2-0.3l-0.3-0.2l-0.3,0.2l-0.2,0.3l-0.2,0.3l-0.3,0.2v1v1l0.5,1l0.5,1l0.3,0.2l0.2,0.3l0.2,0.3l0.3,0.2l0.5,1l0.5,1
		l0.5,1l0.5,1l1.7,1c1.2,0.667,1.967,1.4,2.3,2.2c0.333,0.866,2.333,1.733,6,2.6c3.667,0.8,6.1,3.867,7.3,9.2
		c1.134,5.333,4.033,11.833,8.7,19.5s8.9,14.566,12.7,20.7c3.866,6.2,7.633,11.467,11.3,15.8s7.167,7,10.5,8s5.5,1.667,6.5,2
		l1.5,0.5l3,0.3l3,0.2l-0.2-1l-0.3-1l-0.5-2.5l-0.5-2.5l-0.5-2c-0.333-1.333-1.066-3.5-2.2-6.5L649,501l-1-0.2l-1-0.3l-0.2-0.3
		l-0.3-0.2l-0.3-0.2l-0.2-0.3l-0.2-0.3l-0.3-0.2l-0.3-0.2l-0.2-0.3l-0.2-0.3l-0.3-0.2l-0.3-0.2l-0.2-0.3h1.5h1.5l1,0.5l1,0.5
		l0.2,0.3l0.3,0.2l0.3,0.2l0.2,0.3l0.2,0.3l0.3,0.2l0.3,0.2l0.2,0.3l1,0.5l1,0.5l3,3.3c2,2.134,3.333,3.2,4,3.2
		s1.066,4.167,1.2,12.5c0.2,8.333,0.633,13.333,1.3,15s1.1,4.1,1.3,7.3c0.134,3.134,1.2,5.533,3.2,7.2s3.333,2.6,4,2.8
		c0.667,0.134,1,0.7,1,1.7s0.5,1.5,1.5,1.5s1.5,0.5,1.5,1.5s1.934,1.667,5.8,2c3.8,0.333,5.8,0.167,6-0.5c0.134-0.667,0.533-1,1.2-1
		h1l1.2,7.5c0.866,5,1.8,8.333,2.8,10s2.167,6,3.5,13s3.667,12.833,7,17.5s5.566,7.5,6.7,8.5c1.2,1,1.8,1.833,1.8,2.5s-0.6,1-1.8,1
		c-1.134,0-1.7,0.5-1.7,1.5s0.167,2,0.5,3l0.5,1.5l0.3,0.2l0.2,0.3l0.2,0.3l0.3,0.2l0.3,0.2l0.2,0.3l0.2,0.3l0.3,0.2l0.3,0.2
		l0.2,0.3l0.2,0.3l0.3,0.2l0.3,0.2l0.2,0.3l0.2,0.3l0.3,0.2l0.3,0.2l0.2,0.3l5.2-1.7c3.533-1.2,8.399-1.399,14.6-0.6
		c6.134,0.866,11.467,2.533,16,5c4.467,2.533,6.8,4.133,7,4.8c0.134,0.667-0.2,1.333-1,2c-0.866,0.667-0.467,2.333,1.2,5
		s4,5.5,7,8.5s4.934,5.667,5.8,8c0.8,2.333,1.601,3.667,2.4,4c0.866,0.333,2.133,2.167,3.8,5.5s4.6,7.6,8.8,12.8
		c4.134,5.134,7.533,8.367,10.2,9.7s5.333,2.167,8,2.5l4,0.5l0.2,0.3l0.3,0.2l0.3,0.2l0.2,0.3l0.2,0.3l0.3,0.2l0.3,0.2l0.2,0.3
		l0.2,0.3l0.3,0.2l0.3,0.2l0.2,0.3l0.2,0.3l0.3,0.2v2v2l-0.3,0.2l-0.2,0.3l-1,0.5l-1,0.5l-1,0.5l-1,0.5h-2h-2l-0.2-0.3l-0.3-0.2
		l-0.3-0.2l-0.2-0.3l-1-0.5c-0.667-0.333-2.5-2.167-5.5-5.5l-4.5-5l-1-0.5l-1-0.5l-2.5-0.3L783,691l-0.2,1.5l-0.3,1.5v6
		c0,4,0.767,7.4,2.3,10.2c1.467,2.866,2.533,4.399,3.2,4.6c0.667,0.134,1,0.533,1,1.2s1.5,1.733,4.5,3.2
		c3,1.533,7.833,1.399,14.5-0.4c6.667-1.866,10.667-3.533,12-5c1.333-1.533,5.066-2.066,11.2-1.6c6.2,0.533,10.2,0.467,12-0.2
		c1.866-0.667,2.8-1.667,2.8-3s1.066-2.333,3.2-3c2.2-0.667,3.467-1.5,3.8-2.5s0.6-2,0.8-3l0.2-1.5l2.8,1
		c1.8,0.667,3.267,1.4,4.4,2.2c1.2,0.866,1.967,1.133,2.3,0.8s0.566-0.6,0.7-0.8l0.3-0.2l0.3-1.5l0.2-1.5l1,0.2l1,0.3l0.2,0.3
		l0.3,0.2l0.3,0.2l0.2,0.3l0.2,0.3l0.3,0.2l0.3,0.2l0.2,0.3l0.2,0.3l0.3,0.2l0.3,0.2l0.2,0.3l0.2,0.3l0.3,0.2l0.3,2l0.2,2l-1-0.2
		c-0.667-0.2-1.5-0.3-2.5-0.3s-1.667,0.434-2,1.3c-0.333,0.8,0,1.2,1,1.2s1.434,0.333,1.3,1l-0.3,1v1v1v1.5v1.5v1v1l0.3-0.2l0.2-0.3
		l0.2-0.3l0.3-0.2l0.3-0.2l0.2-0.3l1-0.3l1-0.2v-1v-1l1-0.2l1-0.3l0.2-0.3l0.3-0.2l0.3-0.2c0.134-0.2,0.934-1.866,2.4-5
		c1.533-3.2,3.066-5.467,4.6-6.8c1.467-1.333,2.601-2.833,3.4-4.5c0.866-1.667,1.467-2.333,1.8-2s0.667,0,1-1s0.733-1.667,1.2-2
		c0.533-0.333,0.733-1.167,0.6-2.5l-0.3-2v-1v-1l0.3-0.2l0.2-0.3l0.2-0.3l0.3-0.2l0.3-1l0.2-1h-1.5H887v-1.5V679l-1.5,0.2l-1.5,0.3
		l-0.8,0.7c-0.467,0.533-0.867,1.133-1.2,1.8l-0.5,1l-0.5,1l-0.5,1l-0.3,0.2l-0.2,0.3h-1.5H877l0.2-0.3l0.3-0.2l0.3-0.2l0.2-0.3
		l0.2-0.3l0.3-0.2l0.3-0.2l0.2-0.3l0.2-0.3l0.3-0.2l0.5-1l0.5-1l0.3-0.2l0.2-0.3l0.2-0.3l0.3-0.2l0.5-1
		c0.333-0.667,0.4-1.267,0.2-1.8c-0.134-0.467-0.8-2.267-2-5.4c-1.134-3.2-1.367-8.133-0.7-14.8s1.833-12.333,3.5-17
		s3.333-7.5,5-8.5s2.167-3.333,1.5-7l-1-5.5l-0.3-0.2l-0.2-0.3l0.2-0.3l0.3-0.2l0.5-1l0.5-1l0.5,1l0.5,1l0.3,0.2l0.2,0.3l0.2,0.3
		l0.3,0.2l0.3,0.2l0.2,0.3l0.2,0.3l0.3,0.2l0.3,0.2l0.2,0.3l0.2,0.3l0.3,0.2l0.3,0.2l0.2,0.3l0.2,0.3l0.3,0.2l0.3,0.2l0.2,0.3
		l0.2,0.3l0.3,0.2l0.3,0.2l0.2,0.3l1.5,0.3l1.5,0.2l0.2-1.5l0.3-1.5h0.3h0.2v92v92H450H0V429.5z"/>
	<path id="svg_2" fill="#F5F5F5" d="M620,0.2V0h1.5h1.5l1,1.2c0.667,0.866,7.167,2.466,19.5,4.8s19.667,3.5,22,3.5
		s3.833,0.167,4.5,0.5s1.667,0.267,3-0.2c1.333-0.533,2-0.3,2,0.7s0.733,2.167,2.2,3.5c1.533,1.333,2.8,3.333,3.8,6s1.6,5.667,1.8,9
		l0.2,5l-2-0.2l-2-0.3l-0.2-0.3c-0.2-0.134-0.733-0.6-1.6-1.4l-1.2-1.3l-0.2-0.3l-0.3-0.2l-0.3-0.2l-0.2-0.3l-0.2-0.3l-0.3-0.2
		l-0.3-0.2l-0.2-0.3l-0.2-0.3l-0.3-0.2v2v2l0.3,0.2l0.2,0.3l0.2,0.3l0.3,0.2l0.3,0.2l0.2,0.3l0.2,0.3l0.3,0.2l0.3,0.2l0.2,0.3
		l0.2,0.3l0.3,0.2l0.3,0.2l0.2,0.3l3.8,3.3c2.467,2.134,5.033,8.2,7.7,18.2s5,17.167,7,21.5s4.767,11.767,8.3,22.3
		c3.467,10.467,7.134,20.134,11,29c3.8,8.8,10.533,22.034,20.2,39.7s16.4,29.667,20.2,36c3.866,6.333,6.533,10.167,8,11.5
		c1.533,1.333,3.8,4,6.8,8s7.267,9.733,12.8,17.2c5.467,7.533,9.8,12.4,13,14.6c3.134,2.133,6.367,5.7,9.7,10.7s5,9.333,5,13
		s-0.1,6.1-0.3,7.3c-0.134,1.133-0.533,2.7-1.2,4.7s-1.333,3.1-2,3.3c-0.667,0.133-1.267,1.2-1.8,3.2c-0.467,2-0.7,4.167-0.7,6.5
		v3.5v0.5v0.5l-0.3,2l-0.2,2h-1h-1l-0.2-1.5l-0.3-1.5l-0.5-3c-0.333-2-0.6-4.167-0.8-6.5L800,298l-1,0.2l-1,0.3h-2.5H793l-0.2-0.3
		l-0.3-0.2l-0.3,0.2l-0.2,0.3l-0.2,0.3l-0.3,0.2l-0.3,0.2l-0.2,0.3l0.2,0.3l0.3,0.2l0.3,0.2l0.2,0.3l0.2,0.3l0.3,0.2l0.5,1l0.5,1
		l11.7,21.8c7.866,14.467,16.066,28.8,24.6,43c8.467,14.134,14.867,26.367,19.2,36.7c4.333,10.333,7.833,18.167,10.5,23.5
		s3.767,8.667,3.3,10c-0.533,1.333,0.367,2.934,2.7,4.8c2.333,1.8,4,2.8,5,3c1,0.134,1.667,0.601,2,1.4
		c0.333,0.866,0.833,1.399,1.5,1.6c0.667,0.134,2.6,3.533,5.8,10.2c3.134,6.667,4.601,11,4.4,13c-0.134,2,0.399,3.333,1.6,4
		c1.134,0.667,2.533,2.833,4.2,6.5s3.267,11.566,4.8,23.7c1.467,12.2,1.867,18.399,1.2,18.6c-0.667,0.134-0.733,11.7-0.2,34.7
		c0.467,23,1.033,37.333,1.7,43s1.167,9.667,1.5,12l0.5,3.5h0.3h0.2v1.5v1.5h-0.2h-0.3l-0.3,1.5L899,624l-1.5-0.2l-1.5-0.3l-0.2-0.3
		l-0.3-0.2l-0.3-0.2l-0.2-0.3l-0.2-0.3l-0.3-0.2l-0.3-0.2l-0.2-0.3l-0.2-0.3l-0.3-0.2l-0.3-0.2l-0.2-0.3l-0.2-0.3l-0.3-0.2l-0.3-0.2
		l-0.2-0.3l-0.2-0.3l-0.3-0.2l-0.3-0.2l-0.2-0.3l-0.2-0.3l-0.3-0.2l-0.5-1l-0.5-1l-0.5,1l-0.5,1l-0.3,0.2l-0.2,0.3l0.2,0.3l0.3,0.2
		l1,5.5c0.667,3.667,0.167,6-1.5,7s-3.333,3.833-5,8.5s-2.833,10.333-3.5,17s-0.434,11.6,0.7,14.8c1.2,3.134,1.866,4.934,2,5.4
		c0.2,0.533,0.133,1.133-0.2,1.8l-0.5,1l-0.3,0.2l-0.2,0.3l1.2-0.3c0.866-0.134,1.399-0.267,1.6-0.4l0.2-0.3l1.5-0.3l1.5-0.2v1.5
		v1.5h1.5h1.5l-0.2,1l-0.3,1l-0.3,0.2l-0.2,0.3l-0.2,0.3l-0.3,0.2v1v1l0.3,2c0.134,1.333-0.066,2.167-0.6,2.5
		c-0.467,0.333-0.867,1-1.2,2s-0.667,1.333-1,1s-0.934,0.333-1.8,2c-0.8,1.667-1.934,3.167-3.4,4.5c-1.533,1.333-3.066,3.6-4.6,6.8
		c-1.467,3.134-2.267,4.8-2.4,5l-0.3,0.2l-0.3,0.2l-0.2,0.3l-1,0.3l-1,0.2v1v1l-1,0.2l-1,0.3l-0.2,0.3l-0.3,0.2l-0.3,0.2l-0.2,0.3
		l-0.2,0.3l-0.3,0.2v-1v-1v-1.5V713l-0.5-1l-0.5-1l-0.3-2.2c-0.134-1.533,0.3-2.3,1.3-2.3s1.833,0.1,2.5,0.3l1,0.2l-0.2-2l-0.3-2
		l-0.3-0.2l-0.2-0.3l-0.2-0.3l-0.3-0.2l-0.3-0.2l-0.2-0.3l-0.2-0.3l-0.3-0.2l-0.3-0.2l-0.2-0.3l-0.2-0.3l-0.3-0.2l-0.3-0.2l-0.2-0.3
		l-1-0.3l-1-0.2l-0.2,1.5l-0.3,1.5l-0.3,0.2c-0.134,0.2-0.367,0.467-0.7,0.8s-1.1,0.066-2.3-0.8c-1.134-0.8-2.601-1.533-4.4-2.2
		l-2.8-1l-0.2,1.5c-0.2,1-0.467,2-0.8,3s-1.6,1.833-3.8,2.5c-2.134,0.667-3.2,1.667-3.2,3s-0.934,2.333-2.8,3
		c-1.8,0.667-5.8,0.733-12,0.2c-6.134-0.467-9.867,0.066-11.2,1.6c-1.333,1.467-5.333,3.134-12,5c-6.667,1.8-11.5,1.934-14.5,0.4
		c-3-1.467-4.5-2.533-4.5-3.2s-0.333-1.066-1-1.2c-0.667-0.2-1.733-1.733-3.2-4.6c-1.533-2.8-2.3-6.2-2.3-10.2v-6l0.3-1.5l0.2-1.5
		l2.5,0.2l2.5,0.3l1,0.5l1,0.5l4.5,5c3,3.333,4.833,5.167,5.5,5.5l1,0.5l0.2,0.3l0.3,0.2l0.3,0.2l0.2,0.3h2h2l1-0.5l1-0.5l1-0.5
		l1-0.5l0.2-0.3l0.3-0.2v-2v-2l-0.3-0.2l-0.2-0.3l-0.2-0.3l-0.3-0.2l-0.3-0.2l-0.2-0.3l-0.2-0.3l-0.3-0.2l-0.3-0.2l-0.2-0.3
		l-0.2-0.3l-0.3-0.2l-0.3-0.2l-0.2-0.3l-4-0.5c-2.667-0.333-5.333-1.167-8-2.5s-6.066-4.566-10.2-9.7c-4.2-5.2-7.133-9.467-8.8-12.8
		s-2.934-5.167-3.8-5.5c-0.8-0.333-1.601-1.667-2.4-4c-0.866-2.333-2.8-5-5.8-8s-5.333-5.833-7-8.5s-2.066-4.333-1.2-5
		c0.8-0.667,1.134-1.333,1-2c-0.2-0.667-2.533-2.267-7-4.8c-4.533-2.467-9.866-4.134-16-5c-6.2-0.8-11.066-0.601-14.6,0.6l-5.2,1.7
		l-0.2-0.3l-0.3-0.2l-0.3-0.2l-0.2-0.3l-0.2-0.3l-0.3-0.2l-0.3-0.2l-0.2-0.3l-0.2-0.3l-0.3-0.2l-0.3-0.2l-0.2-0.3l-0.2-0.3l-0.3-0.2
		l-0.3-0.2l-0.2-0.3l-0.2-0.3l-0.3-0.2l-0.5-1.5c-0.333-1-0.5-2.833-0.5-5.5s-1.667-6.333-5-11s-5.667-10.5-7-17.5
		s-2.5-11.333-3.5-13s-1.934-5-2.8-10L689,558h-1c-0.667,0-1.066,0.333-1.2,1c-0.2,0.667-2.2,0.833-6,0.5c-3.866-0.333-5.8-1-5.8-2
		s-0.5-1.5-1.5-1.5s-1.5-0.5-1.5-1.5s-0.333-1.566-1-1.7c-0.667-0.2-2-1.133-4-2.8s-3.066-4.066-3.2-7.2
		c-0.2-3.2-0.633-5.633-1.3-7.3s-1.1-6.667-1.3-15c-0.134-8.333-0.533-12.5-1.2-12.5s-2-1.066-4-3.2l-3-3.3l-1-0.5l-1-0.5l-0.2-0.3
		l-0.3-0.2l-0.3-0.2l-0.2-0.3l-0.2-0.3l-0.3-0.2l-0.3-0.2l-0.2-0.3l-1-0.5l-1-0.5h-1.5H644l0.2,0.3l0.3,0.2l0.3,0.2l0.2,0.3l0.2,0.3
		l0.3,0.2l0.3,0.2l0.2,0.3l0.2,0.3l0.3,0.2l0.3,0.2l0.2,0.3l1,0.3l1,0.2l1.8,4.5c1.134,3,1.867,5.167,2.2,6.5l0.5,2l0.5,2.5l0.5,2.5
		l0.3,1l0.2,1l-3-0.2l-3-0.3l-1.5-0.5c-1-0.333-3.167-1-6.5-2s-6.833-3.667-10.5-8s-7.434-9.6-11.3-15.8
		c-3.8-6.134-8.033-13.033-12.7-20.7s-7.566-14.167-8.7-19.5c-1.2-5.333-3.633-8.4-7.3-9.2c-3.667-0.866-5.667-1.733-6-2.6
		c-0.333-0.8-1.1-1.533-2.3-2.2l-1.7-1l-0.5-1l-0.5-1l-0.5-1l-0.5-1l-0.3-0.2l-0.2-0.3l-0.2-0.3l-0.3-0.2l-0.5-1l-0.5-1v-1v-1
		l0.3-0.2l0.2-0.3l0.2-0.3l0.3-0.2l0.3,0.2l0.2,0.3l5.5,0.5c3.667,0.333,6,0.5,7,0.5h1.5l-0.2-0.3l-0.3-0.2v-1
		c0-0.667,0.167-1.333,0.5-2s0.267-1.167-0.2-1.5c-0.533-0.333,0.601-3.667,3.4-10c2.866-6.333,5.633-11.167,8.3-14.5
		s4.333-6.667,5-10l1-5l-0.5-1l-0.5-1l-0.5-1l-0.5-1l-0.5-1l-0.5-1l-0.3-0.2l-0.2-0.3l-0.2-0.3l-0.3-0.2l-0.3,0.2l-0.2,0.3l-0.2,0.3
		l-0.3,0.2l-0.5,1l-0.5,1l-0.3,0.2l-0.2,0.3l0.2,0.3l0.3,0.2l0.5,4l0.5,4l0.3,1l0.2,1l-3.5-0.2l-3.5-0.3l-0.2-0.3l-0.3-0.2l-0.3-0.2
		l-0.2-0.3l-0.2-0.3l-0.3-0.2l-0.3-0.2l-0.2-0.3l-1-0.3l-1-0.2l-0.2-1c-0.2-0.667-0.399-2.833-0.6-6.5
		c-0.134-3.667-0.934-5.833-2.4-6.5l-2.3-1l-0.3-0.2l-0.2-0.3l-0.2-0.3l-0.3-0.2l-0.3-0.2l-0.2-0.3l-1-0.5l-1-0.5l-0.2-0.3l-0.3-0.2
		l-0.3-0.2l-0.2-0.3l-1.5-0.5l-1.5-0.5h-1h-1l-0.2,0.3l-0.3,0.2v1v1l0.3,3.5l0.2,3.5l5.8,5c3.8,3.333,5.7,6.333,5.7,9
		c0,2.667-0.167,5.833-0.5,9.5l-0.5,5.5l-0.5,1l-0.5,1l-0.3,0.2l-0.2,0.3l-3,0.3l-3,0.2l-0.2-1c-0.2-0.667-0.733-1.167-1.6-1.5
		L579,409l-0.2-1l-0.3-1l-0.3-0.2l-0.2-0.3h-1h-1l0.2,0.3l0.3,0.2l0.5,1l0.5,1l0.5,0.5c0.333,0.333,0.667,1,1,2l0.5,1.5v1.5v1.5
		l-0.3,0.2l-0.2,0.3l-0.2,0.3l-0.3,0.2l-0.3-0.2l-0.2-0.3l-0.2-0.3l-0.3-0.2l-0.3-0.2l-0.2-0.3l-0.2-0.3l-0.3-0.2l-0.3-0.2l-0.2-0.3
		l-0.2-0.3l-0.3-0.2l-0.3-0.2l-0.2-0.3l-0.2-0.3l-0.3-0.2l-0.3-0.2l-0.2-0.3l-0.2-0.3l-0.3-0.2l-0.3-0.2l-0.2-0.3l-0.2-0.3l-0.3-0.2
		l-0.5-1c-0.333-0.667-1.066-1.733-2.2-3.2c-1.2-1.533-3.2-4.399-6-8.6c-2.866-4.134-4.467-7.867-4.8-11.2s0.167-6.167,1.5-8.5
		s2-6.667,2-13s-0.167-11.333-0.5-15s0.333-7.5,2-11.5s2.5-6.5,2.5-7.5s0.667-4,2-9s2.1-14.5,2.3-28.5
		c0.134-14-0.133-21.067-0.8-21.2c-0.667-0.2-1.6-1.4-2.8-3.6c-1.134-2.133-1.134-3.367,0-3.7c1.2-0.333,1.967-1.667,2.3-4l0.5-3.5
		l-1.5-0.2c-1-0.2-2-0.533-3-1c-1-0.533-1.5-1.133-1.5-1.8s-0.667-1.6-2-2.8c-1.333-1.134-3.667-4.7-7-10.7s-5.333-9.9-6-11.7
		c-0.667-1.866-3.733-2.966-9.2-3.3c-5.533-0.333-9.066-0.1-10.6,0.7c-1.467,0.866-3.533,0.3-6.2-1.7s-4.333-4.1-5-6.3
		c-0.667-2.134-2.167-3.6-4.5-4.4c-2.333-0.866-4.233-2.4-5.7-4.6c-1.533-2.134-3.3-4.534-5.3-7.2s-4.1-4.4-6.3-5.2
		c-2.134-0.866-5.8-3.533-11-8c-5.134-4.533-8.033-8.8-8.7-12.8s-1.767-6.4-3.3-7.2c-1.467-0.866-4.367-2.633-8.7-5.3
		s-8.667-7.167-13-13.5s-11.833-12.167-22.5-17.5s-23.167-6.566-37.5-3.7c-14.333,2.8-21.233,5.367-20.7,7.7
		c0.467,2.333-2.533,5.233-9,8.7c-6.533,3.533-15.467,9.066-26.8,16.6c-11.333,7.467-17.066,11.534-17.2,12.2
		c-0.2,0.667-0.866,1.066-2,1.2c-1.2,0.2-1.967-0.134-2.3-1c-0.333-0.8-0.833-1.267-1.5-1.4c-0.667-0.2-2-0.066-4,0.4
		c-2,0.533-3.333,1.533-4,3c-0.667,1.533-2.333,2.466-5,2.8s-6.167,1-10.5,2s-8.5,1.833-12.5,2.5s-6.667,0.333-8-1
		s-2.4-4.434-3.2-9.3c-0.867-4.8-2.466-8.7-4.8-11.7s-5.933-5.566-10.8-7.7c-4.8-2.2-8.034-4.2-9.7-6
		c-1.667-1.866-4.667-4.133-9-6.8s-6.567-4.333-6.7-5c-0.2-0.667-2.633-2.167-7.3-4.5s-11.433-5.434-20.3-9.3
		c-8.8-3.8-21.7-7.367-38.7-10.7l-25.5-5l-1-0.5l-1-0.5l-0.2-0.3l-0.3-0.2l-0.3-1l-0.2-1h-1.5H126v-1.5V101l2-0.2l2-0.3l9-0.5
		c6-0.333,10.267-0.6,12.8-0.8c2.467-0.134,3.534-0.534,3.2-1.2s0.4-0.934,2.2-0.8c1.867,0.2,2.867,0.4,3,0.6
		c0.2,0.134,0.4,0.267,0.6,0.4l0.2,0.3l1,0.5l1,0.5l1.5,0.5l1.5,0.5l1.5,0.3l1.5,0.2l-0.2-1l-0.3-1l-0.3-0.2l-0.2-0.3l-0.2-0.3
		l-0.3-0.2l-0.3-0.2l-0.2-0.3l-1-0.5l-1-0.5l-1-0.5l-1-0.5l-1.5-0.5c-1-0.333-2.167-0.667-3.5-1s-3.667-0.167-7,0.5
		s-6.5,0.767-9.5,0.3c-3-0.533-4.5-1.133-4.5-1.8s-0.833-1-2.5-1s-2.5,1-2.5,3s-1.833,3.5-5.5,4.5s-5.567,2.167-5.7,3.5
		c-0.2,1.333-2.733,2.267-7.6,2.8c-4.8,0.467-15.7,2.6-32.7,6.4c-17,3.866-25.5,5.3-25.5,4.3s-0.667-1.767-2-2.3l-2-0.7l0.2-0.3
		l0.3-0.2l0.3-0.2l0.2-0.3h-1h-1l-0.2,0.3l-0.3,0.2l-0.7,3c-0.533,2-1.466,3.167-2.8,3.5s-2,1-2,2s-3.333,2.434-10,4.3
		c-6.667,1.8-10.5,2.867-11.5,3.2l-1.5,0.5l-1,0.3l-1,0.2l0.2-1l0.3-1l0.3-0.2l0.2-0.3l0.2-0.3l0.3-0.2l0.3-0.2l0.2-0.3h-2h-2h-1h-1
		l0.2-0.3l0.3-0.2l0.3-0.2l0.2-0.3l0.2-0.3l0.3-0.2l0.3-0.2l0.2-0.3l0.2-0.3l0.3-0.2l0.5-1c0.333-0.667,0.667-1.167,1-1.5
		s1.6-0.9,3.8-1.7c2.133-0.866,3.467-2.533,4-5c0.467-2.533,1.6-4.533,3.4-6l2.8-2.3l-0.2-0.3c-0.2-0.134-0.733-0.467-1.6-1
		c-0.8-0.467-2.267-2.134-4.4-5C24.6,97.4,24,93,25,87s-0.4-10-4.2-12c-3.867-2-5.867-3.333-6-4c-0.2-0.667-0.733-1.167-1.6-1.5
		c-0.8-0.333-1.467-1.167-2-2.5c-0.467-1.333-2.467-3.833-6-7.5L0,54v-2.5V49h0.2h0.3L1,47l0.5-2v-4c0-2.667-0.1-4.333-0.3-5L1,35
		l139.5-10.8c93-7.134,140.333-10.8,142-11c1.667-0.134,4.433,2.466,8.3,7.8c3.8,5.333,6.267,10.667,7.4,16c1.2,5.333,2.133,8,2.8,8
		s1,0.333,1,1s48-0.667,144-4s144-4.5,144-3.5s0.5,1.5,1.5,1.5s2.1,2.333,3.3,7c1.134,4.667,1.867,7.5,2.2,8.5s0.667,1.833,1,2.5
		l0.5,1l0.5,1l0.5,1l0.3,0.2l0.2,0.3h1h1l3.5-0.5l3.5-0.5l1-0.5l1-0.5l0.2-0.3l0.3-0.2l1-12.5c0.667-8.333,0.167-14-1.5-17
		s-2.333-7.333-2-13s1.4-9.566,3.2-11.7c1.866-2.2,3.633-3.466,5.3-3.8S620,0.4,620,0.2z M790.2,296.8c-0.134-0.2-0.134-0.4,0-0.6
		l0.3-0.2v0.5C790.5,296.833,790.4,296.933,790.2,296.8z M880.8,684l-0.3,1l-0.3,0.2l-0.2,0.3h-1.5H877l0.2-0.3l0.3-0.2l0.3-0.2
		l0.2-0.3l0.2-0.3l0.3-0.2l0.3-0.2l0.2-0.3l1-0.3C880.667,683.066,880.934,683.333,880.8,684z"/>
	<path id="svg_3" fill="#FFFFFF" stroke="#FFFFFF" stroke-width="0.5" d="M624,1.2L623,0h138.5H900v309v309h-0.2h-0.3l-0.5-3.5
		c-0.333-2.333-0.833-6.333-1.5-12s-1.233-20-1.7-43c-0.533-23-0.467-34.566,0.2-34.7c0.667-0.2,0.267-6.399-1.2-18.6
		c-1.533-12.134-3.133-20.033-4.8-23.7s-3.066-5.833-4.2-6.5c-1.2-0.667-1.733-2-1.6-4c0.2-2-1.267-6.333-4.4-13
		c-3.2-6.667-5.133-10.066-5.8-10.2c-0.667-0.2-1.167-0.733-1.5-1.6c-0.333-0.8-1-1.267-2-1.4c-1-0.2-2.667-1.2-5-3
		c-2.333-1.866-3.233-3.467-2.7-4.8c0.467-1.333-0.633-4.667-3.3-10s-6.167-13.167-10.5-23.5c-4.333-10.333-10.733-22.566-19.2-36.7
		c-8.533-14.2-16.733-28.533-24.6-43L793.5,303l-0.5-1l-0.5-1l-0.3-0.2l-0.2-0.3l-0.2-0.3l-0.3-0.2l-0.3-0.2l-0.2-0.3l-0.2-0.3
		l-0.3-0.2v-1.5V296l0.3,0.2l0.2,0.3l0.2,0.3l0.3,0.2l0.3,0.2l0.2,0.3l0.2,0.3l0.3,0.2l0.3,0.2l0.2,0.3h2.5h2.5l1-0.3l1-0.2l0.2,3.5
		c0.2,2.333,0.467,4.5,0.8,6.5l0.5,3l0.3,0.2l0.2,0.3l1,0.3l1,0.2l0.2-1l0.3-1v-0.5V309v-3.5c0-2.333,0.233-4.5,0.7-6.5
		c0.533-2,1.133-3.067,1.8-3.2c0.667-0.2,1.4-1.867,2.2-5c0.866-3.2,1.3-6.633,1.3-10.3s-1.667-8-5-13s-6.566-8.567-9.7-10.7
		c-3.2-2.2-7.533-7.066-13-14.6c-5.533-7.467-9.8-13.2-12.8-17.2s-5.267-6.667-6.8-8c-1.467-1.333-4.134-5.167-8-11.5
		c-3.8-6.333-10.533-18.333-20.2-36s-16.4-30.9-20.2-39.7c-3.866-8.866-7.533-18.533-11-29c-3.533-10.533-6.3-17.966-8.3-22.3
		s-4.333-11.5-7-21.5s-5.233-16.066-7.7-18.2l-3.8-3.3l-0.2-0.3l-0.3-0.2l-0.3-0.2l-0.2-0.3l-0.2-0.3l-0.3-0.2l-0.3-0.2l-0.2-0.3
		l-0.2-0.3l-0.3-0.2l-0.3-0.2l-0.2-0.3l-0.2-0.3l-0.3-0.2v-2v-2l0.3,0.2l0.2,0.3l0.2,0.3l0.3,0.2l0.3,0.2l0.2,0.3l0.2,0.3l0.3,0.2
		l0.3,0.2l0.2,0.3l1.2,1.3c0.866,0.8,1.399,1.267,1.6,1.4l0.2,0.3l2,0.3l2,0.2l-0.2-5c-0.2-3.333-0.8-6.333-1.8-9
		s-2.267-4.667-3.8-6c-1.467-1.333-2.2-2.5-2.2-3.5s-0.667-1.233-2-0.7c-1.333,0.467-2.333,0.534-3,0.2s-2.167-0.5-4.5-0.5
		s-9.667-1.167-22-3.5S624.667,2.066,624,1.2z M810.2,289.8c-0.134-0.2-0.134-0.4,0-0.6c0.2-0.133,0.3-0.034,0.3,0.3
		S810.4,289.933,810.2,289.8z"/>
	<path id="svg_4" fill="#FEFEFE" stroke="#FEFEFE" stroke-width="0.5" d="M0,24.5V0h310h310v0.2c0,0.2-0.833,0.466-2.5,0.8
		s-3.434,1.6-5.3,3.8c-1.8,2.134-2.867,6.034-3.2,11.7s0.333,10,2,13s2.167,8.667,1.5,17l-1,12.5l-0.3,0.2l-0.2,0.3l-1,0.5l-1,0.5
		l-3.5,0.5l-3.5,0.5h-1h-1l-0.2-0.3l-0.3-0.2l-0.5-1l-0.5-1l-0.5-1c-0.333-0.667-0.667-1.5-1-2.5s-1.066-3.833-2.2-8.5
		c-1.2-4.667-2.3-7-3.3-7s-1.5-0.5-1.5-1.5s-48,0.167-144,3.5s-144,4.667-144,4s-0.333-1-1-1s-1.6-2.667-2.8-8
		c-1.133-5.333-3.6-10.667-7.4-16c-3.867-5.333-6.633-7.934-8.3-7.8c-1.667,0.2-49,3.866-142,11L1,35l0.2,1
		c0.2,0.667,0.3,2.333,0.3,5v4L1,47l-0.5,2H0.2H0V24.5z"/>
</g>
<circle fill="#B51F24" cx="587.1" cy="398.6" r="12.4"/>
</svg>
