<?xml version="1.0" encoding="utf-8"?>
<!-- Generator: Adobe Illustrator 16.0.0, SVG Export Plug-In . SVG Version: 6.00 Build 0)  -->
<!DOCTYPE svg PUBLIC "-//W3C//DTD SVG 1.1//EN" "http://www.w3.org/Graphics/SVG/1.1/DTD/svg11.dtd">
<svg version="1.1" id="Layer_1" xmlns="http://www.w3.org/2000/svg" xmlns:xlink="http://www.w3.org/1999/xlink" x="0px" y="0px"
	 width="480px" height="500px" viewBox="0 0 480 500" enable-background="new 0 0 480 500" xml:space="preserve">
<path fill="#E0B069" d="M151.754,120.135c0,0-7.798-14.481,1.753-22.853l4.062,11.426l-2.628,11.427l-4.055,0.429"/>
<path fill="#E0B069" d="M123.071,178.268c0,0-26.02,29.398,14.48,45.077l-3.232-28.394L123.071,178.268z"/>
<ellipse fill="#CA9D69" cx="267.521" cy="99.588" rx="93.79" ry="88.573"/>
<g>
	<path fill="#CA9D69" d="M260.304,35.522c-24.786-19.827-85.669-0.91-101.324,26.922c-7.538,13.335-4.639,28.991-5.799,44.066
		c-1.159,16.815-7.538,30.731-16.814,44.647c-7.538,12.755-16.815,26.092-13.916,41.747c2.899,14.495,14.495,26.671,20.294,40.587
		c11.017,23.774-3.479,67.839,22.033,82.917c22.613,13.335,60.882,7.536,86.395,5.218c23.193-1.739,46.966-15.655,67.26-26.092
		c11.017-5.799,23.771-12.757,27.831-25.513c4.06-12.177,0-26.093,1.739-38.269c3.479-33.049,38.269-54.502,37.688-86.973
		c-0.58-28.411-23.773-66.1-46.385-82.334c-24.934-17.975-62.043-25.513-92.192-27.832c-2.899,0-7.81,2.152-10.128,2.152"/>
</g>
<g>
	<path fill="#CA9D69" d="M348.772,223.345c-6.359,17.383-9.184,35.959-4.849,54.171c3.518,14.778,15.221,26.845,16.265,42.239
		c0.775,11.473-4.712,21.584-12.265,29.842c-12.579,13.749-33.317,23.685-51.693,15.783c-5.055-2.174-9.431-5.572-13.793-8.859
		c-4.044-3.048-7.254-7.004-11.776-9.425c6.912,0.693,15.255,3.235,21.386-1.67c6.782-5.549,5.55-14.18-2.466-17.264
		c-12.947-4.934-33.911,8.016-46.243,11.099c-26.513,7.399-84.308-9.893-97.873-37.64c-6.782-13.563-0.229-28.487,4.704-42.668
		c3.083-9.249,19.797-4.163,24.73-12.795c0.617-1.85,3.083-5.55,0.617-1.85"/>
</g>
<path fill="none" stroke="#98714A" stroke-width="3" stroke-linecap="round" stroke-linejoin="round" stroke-miterlimit="10" d="
	M312.337,185.106c-12.606,14.782-22.606,43.477-17.823,63.041c2.674,10.938,7.778,21.134,15.804,29.113
	c8.733,8.682,20.549,15.006,26.731,25.966c5.987,10.608,7.424,22.959,2.243,34.239c-4.881,10.635-19.979,21.073-31.074,12.849
	c-3.963-2.937-8.491-12.089-4.284-16.354c5.695-5.776,19.859,5.635,12.752,8.965"/>
<path fill="none" stroke="#98714A" stroke-width="3" stroke-linecap="round" stroke-linejoin="round" stroke-miterlimit="10" d="
	M270.166,238.582c13.868,9.391,24.104,21.721,25.652,39.089c0.713,8.01-2.645,15.163-7.583,21.262
	c-4.474,5.527-12.537,11.194-12.853,18.98c-0.394,9.703,12.704,8.689,13.912,0.229"/>
<g>
	<path fill="#E1EDC2" d="M217.886,228.127c0,0-26.526,21.837-35.499,40.946c0.773,0.328,1.538,0.702,2.286,1.137
		c1.423,0.718,2.844,1.853,4.125,3.145c1.57-9.311,12.058-23.378,39.467-44.649L217.886,228.127z"/>
	<path fill="#E1EDC2" d="M189.235,271.424c-2.312-0.525-4.562-1.441-6.646-2.791c-7.287,15.107,6.673,28.473,31.937,28.468
		c-0.578-2.194,0.801-4.243,2.967-5.737C206.892,291.014,184.482,288.297,189.235,271.424z"/>
	<path fill="#E1EDC2" d="M243.926,230.305c0,0,27.974,19.949,38.25,38.384c-0.75,0.388-1.489,0.813-2.202,1.293
		c-1.362,0.824-2.708,2.053-3.895,3.423c-2.211-9.177-13.644-22.482-42.471-41.799L243.926,230.305z"/>
	<path fill="#E1EDC2" d="M275.51,271.513c2.272-0.686,4.443-1.754,6.438-3.244c8.313,14.563-4.683,28.867-29.888,30.618
		c0.421-2.234-1.096-4.186-3.361-5.523C259.258,292.28,281.425,288.016,275.51,271.513z"/>
	<polygon fill="#231F20" points="252.312,304.653 209.951,302.667 211.474,486.248 215.097,485.925 214.185,324.524 246.85,321.888 
		247.765,485.925 251.254,486.163 	"/>
	<path opacity="0.15" fill="#211F1F" d="M237.764,490.149c-84.112,0-152.3,0.991-152.3,2.21c0,1.23,68.188,2.216,152.3,2.216
		c84.123,0,152.328-0.985,152.328-2.216C390.092,491.141,321.887,490.149,237.764,490.149z"/>
	<polyline fill="#E1EDC2" points="259.032,240.616 256.078,314.306 209.051,314.306 203.861,238.642 	"/>
	<path fill="#09080A" d="M251.094,486.131c0,0,2.984,4.721,10.163,4.721l0.198,1.469c0,0-9.211,0.728-11.983-3.677l0.19,3.362
		l-3.074-0.321l0.966-6.087L251.094,486.131z"/>
	<path fill="#09080A" d="M212.122,486.131c0,0-2.982,4.721-10.162,4.721l-0.202,1.469c0,0,9.209,0.728,11.978-3.677l-0.183,3.362
		l3.067-0.321l-0.963-6.087L212.122,486.131z"/>
	<polygon fill="#09080A" points="215.762,486.248 216.619,427.695 210.961,427.695 211.328,487.101 	"/>
	<polygon fill="#131816" points="251.094,486.131 253.12,428.837 246.588,428.837 247.319,487.101 	"/>
	<path fill="#EAC19C" d="M211.744,253.822c0,0,18.145,56.708,40.569,1.088l-39.387-1.088"/>
	<path fill="#CD9B78" d="M225.496,272.007c-0.279-0.079,6.863,0.492,5.634,7.293C231.13,279.3,230.383,273.345,225.496,272.007z"/>
	<path fill="#CD9B78" d="M237.155,272.007c0.278-0.079-6.859,0.492-5.637,7.293C231.519,279.3,232.27,273.345,237.155,272.007z"/>
</g>
<path fill="#EAC19C" d="M302.143,208.28c0,0-28.697,51.673-80.707,54.099c0,0-110.084-64.937-46.965-120.45
	c0,0,3.823-117.527,105.089-83.037c101.259,34.48,39.674,114.31,39.674,114.31L302.143,208.28z"/>
<path fill="#603A17" d="M183.375,104.703c-0.87,1.034-1.794,2.021-2.761,2.961c10.243-0.019,28.127,2.042,39.315,15.233
	C219.872,122.695,212.732,98.121,183.375,104.703z"/>
<g>
	<path fill="#FFFFFF" d="M186.481,142.352c0,0,6.104,21.805,25.952,7.677c0,0-11.331-14.708-26.023-7.928"/>
	<g>
		<defs>
			<path id="SVGID_1_" d="M186.481,142.352c0,0,6.104,21.805,25.952,7.677c0,0-11.331-14.708-26.023-7.928"/>
		</defs>
		<clipPath id="SVGID_2_">
			<use xlink:href="#SVGID_1_"  overflow="visible"/>
		</clipPath>
		<path clip-path="url(#SVGID_2_)" fill="#029247" d="M208.099,141.772c3.247,0.802,5.194,4.168,4.35,7.514
			c-0.841,3.349-4.16,5.405-7.407,4.604c-3.251-0.813-5.198-4.18-4.354-7.521C201.53,143.024,204.847,140.96,208.099,141.772z"/>
		<path clip-path="url(#SVGID_2_)" fill="#221F1F" d="M207.352,144.839c1.589,0.394,2.543,2.043,2.132,3.685
			c-0.413,1.639-2.039,2.646-3.629,2.253c-1.595-0.392-2.548-2.046-2.135-3.685C204.134,145.455,205.756,144.444,207.352,144.839z"
			/>
		<path clip-path="url(#SVGID_2_)" fill="#FFFFFF" d="M203.814,146.63c0.634,0.156,1.017,0.819,0.855,1.482
			c-0.171,0.656-0.821,1.061-1.464,0.901c-0.631-0.156-1.018-0.819-0.851-1.477C202.514,146.875,203.17,146.47,203.814,146.63z"/>
	</g>
	<path fill="#221F1F" d="M212.433,150.029c-0.211-0.201-0.309-1.01-0.473-1.286c-0.563-0.979-1.315-1.892-2.059-2.763
		c-2.875-3.369-6.567-5.521-11.475-6.398c-1.99-0.353-4.024-0.542-6.058-0.664c-2.603-0.163-5.25,0.021-7.845-0.238
		c-2.501-0.243-4.805-1.072-6.756-2.36c-0.974-0.644-1.978-1.435-2.67-2.308c-0.674-0.838-1.148-1.876-1.362-2.881
		c0,0-0.444,7.605,8.944,11.021c0,0-2.723,0.828-7.469-1.586c0,0,1.561,2.284,6.365,4.104c1.415,0.541,2.904,1.146,3.838,2.223
		c1.327,1.521,2.083,3.37,3.514,4.852c1.283,1.32,2.929,2.4,4.875,2.942c1.064,0.297,2.298,0.503,3.441,0.511
		c0.873,0.008,1.757-0.041,2.625-0.145c0.683-0.077,1.447-0.329,2.122-0.361c0,0-12.377,0.453-13.733-12.295
		C188.256,142.396,198.853,137.577,212.433,150.029z"/>
	<path opacity="0.2" fill="#010101" d="M187.309,143.961c0,0,10.38-3.033,25.124,6.067l-5.243-4.599l-7.527-3.579l-7.443-1.45
		l-3.234,0.7L187.309,143.961z"/>
</g>
<path fill="#D09F78" d="M204.832,178.268c0,0,10.936,25.743,34.377,6.645C239.209,184.913,219.669,192.619,204.832,178.268z"/>
<path opacity="0.37" fill="#D09F78" d="M204.832,178.34c0,0,11.749,39.363,34.375,6.644
	C239.206,184.983,219.669,192.69,204.832,178.34z"/>
<path fill="#603A17" d="M249.011,125.293c0,0,20.525-24.351,49.11,5.921C298.121,131.215,271.907,114.398,249.011,125.293z"/>
<path fill="#231F20" d="M243.242,158.531c0,0,10.663-10.959,28.206-5.548c17.528,5.414,22.125-15.676,22.125-15.676
	s-0.18,18.998-14.609,19.747c0,0,9.99,4.619,15.227-4.019c0,0-6.271,17.569-32.746,3.958
	C253.262,152.78,243.242,158.531,243.242,158.531z"/>
<path fill="#CD9B78" d="M212.812,256.791c0,0,21.887,12.938,39.076-1.891C251.888,254.9,233.803,277.354,212.812,256.791z"/>
<path fill="#DACF8D" d="M323.15,84.644"/>
<path fill="#CE9C78" d="M273.541,212.958c0,0-2.333-10.483-13.024-11.417C260.517,201.541,274.218,198.758,273.541,212.958z"/>
<g>
	<path fill="#E4856D" d="M264.177,208.845c0,0-22.861-2.957-32.07,7.767c0,0-16.458-8.566-27.825,0.075
		C204.282,216.687,233.491,264.054,264.177,208.845z"/>
	<path fill="#ED9888" d="M264.177,208.845c0.327-0.254-0.408,0.728-0.612,1.084c-30.46,53.498-59.283,6.757-59.283,6.757
		S234.1,232.462,264.177,208.845z"/>
</g>
<g>
	<path fill="#CA9D69" d="M253.801,53.749c19.134,5.798,57.402,22.034,49.286,48.126c-1.74,6.377-8.118,11.016-6.958,17.974
		c1.158,8.118,11.016,14.496,17.395,18.555c13.916,8.697,35.948,15.655,48.704,1.159c14.495-16.235-7.537-42.327-15.654-57.402
		c-1.16,1.159-42.235-32.949-43.394-31.79"/>
</g>
<g>
	<g>
		<path opacity="0.4" fill="#FFFFFF" d="M234.762,150.753c-1.366,13.145,12.414,25.35,30.79,27.261
			c18.375,1.91,34.38-7.196,35.755-20.347c1.369-13.144-12.418-25.348-30.792-27.266
			C252.131,128.498,236.129,137.607,234.762,150.753z"/>
		<path fill="#231F20" d="M233.906,148.616c1.513-14.499,15.591-22.133,36.739-19.938c10.292,1.069,18.481,4.038,24.039,8.451
			c5.958,4.736,8.878,11.138,8.096,18.644c-1.652,15.849-18.437,27.137-37.429,25.159
			C246.364,178.958,232.258,164.457,233.906,148.616z M238.375,149.076c-1.413,13.52,10.886,25.907,27.415,27.631
			c16.53,1.718,31.117-7.879,32.525-21.398c1.862-17.88-21.042-21.672-28.106-22.402
			C263.21,132.175,240.234,131.193,238.375,149.076z"/>
		<path fill="#231F20" d="M291.332,136.595c0,0,12.381-0.112,15.562,3.292c3.182,3.392,0.888,14.035-4.465,14.594
			C302.429,154.481,297.069,138.027,291.332,136.595z"/>
	</g>
	<g>
		<path opacity="0.4" fill="#FFFFFF" d="M165.313,142.132c-1.42,13.646,9.86,26.005,25.196,27.602
			c15.329,1.587,28.918-8.182,30.341-21.831c1.421-13.646-9.854-26.003-25.19-27.599
			C180.325,118.714,166.739,128.484,165.313,142.132z"/>
		<path fill="#231F20" d="M190.081,171.297c-15.885-1.651-27.493-15.76-25.855-31.457c0.771-7.427,4.368-13.094,10.135-16.57
			c5.366-3.238,12.618-4.583,21.238-3.684c17.7,1.838,27.772,11.889,26.274,26.246C220.241,161.527,205.981,172.948,190.081,171.297
			z M195.161,123.766c-5.911-0.616-25.355-1.242-27.205,16.464c-1.391,13.388,8.731,25.442,22.564,26.883
			c13.836,1.441,26.228-8.277,27.619-21.667C219.985,127.737,201.018,124.379,195.161,123.766z"/>
		<path fill="#231F20" d="M177.205,123.375c0,0-10.113-2.436-13.351,0.267c-3.245,2.696-3.373,13.463,0.905,15.014
			C164.76,138.656,172.236,123.694,177.205,123.375z"/>
	</g>
	<path fill="#231F20" d="M236.281,151.463c0,0-9.24-9.677-18.831-0.086l2.11-7.571c0,0,10.98-3.834,17.464,3.688L236.281,151.463z"
		/>
	<path fill="#231F20" d="M307.948,141.806l35.094,7.928c0,0,0.618-11.714,2.017-13.139l-41.879,2.756L307.948,141.806z"/>
</g>
<path fill="#EAC19C" d="M328.327,147.825c0,0,12.481-14.366,23.502,0.362c7.486,10.009,1.338,15.671-5.816,18.741
	c-5.969,2.573-12.646,3.338-12.646,3.338s-10.218,1.309-8.886,12.337c1.348,11.03,0.567,14.802-3.274,15.33
	c-3.832,0.524-10.448-4.377-9.448-10.604C316.05,160.456,328.327,147.825,328.327,147.825z"/>
<g>
	<path fill="#CE9C78" d="M323.155,165.792c0,0,21.789-30.049,15.944-3.778C339.1,162.014,339.584,146.75,323.155,165.792z"/>
	<path fill="#CE9C78" d="M323.027,165.862c0,0,13.797-14.245,5.083,6.2C328.11,172.062,332.367,158.619,323.027,165.862z"/>
</g>
<circle fill="#3C2518" cx="320.702" cy="193.03" r="1.98"/>
<g>
	<path fill="#CA9D69" d="M270.135,52.587c-26.672,4.639-55.663,18.556-56.822,48.706c-0.58,13.916-2.898,21.453-12.756,31.89
		c-10.437,9.857-22.613,19.714-24.353,34.79c-1.74,12.757,7.538,22.033,7.538,33.63c0.58,12.177-11.017,23.772-22.033,27.832
		c-20.294,7.537-26.672-12.757-25.513-28.992c1.74-27.252,2.321-51.221,13.338-74.414c9.857-19.715,24.352-36.913,38.268-55.467
		c24.932-33.049,56.822-44.066,94.511-27.251"/>
</g>
<g>
	<path fill="#E0B069" d="M261.578,55.566c1.382,2.302-4.142-1.841-5.522-2.302c-10.127-3.222-20.253-3.222-29.919,1.381
		c-17.492,7.825-22.555,19.333-20.254,36.824c2.302,19.332-4.142,26.697-19.332,37.745c-17.952,13.349-30.38,31.76-21.634,53.855
		c3.682,9.666,12.888,20.253,11.507,30.84c-0.92,7.365-7.825,13.349-12.888,18.412c8.746-15.19-5.524-28.538-9.667-42.808
		c-6.444-20.713-2.302-48.332,11.047-65.362c7.365-9.667,18.412-16.111,25.316-26.237c5.985-9.207,4.604-17.492,3.223-28.079
		c-1.841-18.872,11.507-31.3,30.379-32.681c7.825-0.459,43.268,11.047,39.125,20.254"/>
</g>
<g>
	<path fill="none" stroke="#98714A" stroke-width="3" stroke-linecap="round" stroke-linejoin="round" stroke-miterlimit="10" d="
		M262.001,54.909c-5.258-8.326-31.109-3.067-38.558-0.877c-12.707,3.944-25.413,14.021-31.985,25.851
		c-6.135,10.954-5.258,22.784-4.382,34.614c0.438,14.459-7.449,19.717-17.965,28.479c-10.953,9.202-23.222,23.223-21.907,38.558
		c0.876,10.516,9.639,19.279,14.021,28.479c4.381,7.887,9.201,14.021,5.696,23.66c-3.944,9.64-10.955,18.403-16.65,27.167
		c-14.475,22.268-6.016,49.465,15.54,62.774c5.858,3.618,12.625,7.004,19.195,9.103c8.978,2.869,18.226,4.824,27.426,6.814"/>
	<path fill="none" stroke="#98714A" stroke-width="3" stroke-linecap="round" stroke-linejoin="round" stroke-miterlimit="10" d="
		M262.647,55.499c0.401-10.453-18.494-16.081-25.73-17.69c-12.463-2.412-28.948-1.206-36.988,9.649
		c-6.03,7.639-3.618,18.495-10.854,25.329c-10.052,9.648-24.927,12.463-34.576,23.318c-9.247,10.454-6.032,19.701-1.207,31.762
		c6.835,17.69-7.237,24.927-18.896,36.988c-10.453,10.856-30.153,34.174-14.474,48.245c10.051,9.247,30.958,14.072,34.576,29.751
		c1.433,5.731-0.75,14.217-4.227,17.991"/>
	<path fill="none" stroke="#FECF0C" stroke-width="6" stroke-linecap="round" stroke-linejoin="round" stroke-miterlimit="10" d="
		M263.658,54.869c-9.277-13.335-26.093-17.395-40.587-10.437c-11.597,4.639-20.874,15.655-23.773,27.832
		c-2.899,12.177,2.319,23.194,1.16,35.37c-3.479,26.671-34.79,28.41-46.387,51.023c-11.016,22.034-8.118,52.184,9.857,69.579
		c8.697,8.697,20.874,19.715,20.294,33.63c-1.16,12.757-12.757,21.454-21.454,30.151"/>
</g>
<g>
	<path fill="#E0B069" d="M262.06,54.005c15.335-11.604,29.425-20.307,48.901-12.433c21.135,9.118,41.441,25.28,54.704,43.928
		c12.016,16.577,23.205,38.956,24.035,60.091c0.828,24.036-14.919,39.37-28.594,56.775c-13.263,16.991-9.118,36.468-17.406,55.116
		c-11.189,24.451-33.153,3.316-33.982-15.333c-1.658-30.667,30.667-46,48.486-65.062c19.063-20.721,9.532-37.298-12.846-48.073
		c-9.119-4.559-19.063-8.704-25.28-16.991c-7.045-9.117-9.117-20.721-12.019-31.496c-4.972-16.991-12.847-39.369-34.811-34.811
		c-3.315,0.829-7.044,2.487-10.361,3.73L262.06,54.005z"/>
</g>
<path fill="none" stroke="#98714A" stroke-width="3" stroke-linecap="round" stroke-linejoin="round" stroke-miterlimit="10" d="
	M282.176,41.08c0,0,35.722-15.456,78.085,37.419"/>
<path fill="none" stroke="#FECF0C" stroke-width="6" stroke-linecap="round" stroke-linejoin="round" stroke-miterlimit="10" d="
	M261.339,57.225c9.856-28.992,42.905-9.858,48.125,10.437c2.899,11.596,1.738,23.192,4.059,34.789
	c3.479,16.814,15.655,19.135,30.151,21.453c31.89,5.798,30.15,41.747,9.856,60.881c-19.134,17.975-49.286,36.529-41.167,67.84
	c3.479,13.336,16.814,28.412,27.831,12.176c12.177-16.814-11.597-16.235-10.437-5.219"/>
<path fill="#EAC19C" d="M233.171,66.653c0,0,16.526-23.562,45.228-2.851c28.703,20.71-18.552,9.638-18.084,9.638
	C260.783,73.439,232.07,66.729,233.171,66.653z"/>
<g>
</g>
<g>
</g>
<g>
</g>
<g>
</g>
<g>
</g>
<g>
</g>
</svg>
