<?xml version="1.0" encoding="utf-8"?>
<!-- Generator: Adobe Illustrator 16.0.0, SVG Export Plug-In . SVG Version: 6.00 Build 0)  -->
<!DOCTYPE svg PUBLIC "-//W3C//DTD SVG 1.1//EN" "http://www.w3.org/Graphics/SVG/1.1/DTD/svg11.dtd">
<svg version="1.1" id="Layer_1" xmlns="http://www.w3.org/2000/svg" xmlns:xlink="http://www.w3.org/1999/xlink" x="0px" y="0px"
	 width="480px" height="500px" viewBox="0 0 480 500" enable-background="new 0 0 480 500" xml:space="preserve">
<g>
	<path fill="#E9C09B" d="M227.281,308.866c-3.367,0-6.809-0.155-10.327-0.467c-14.304-1.269-29.868-5.114-46.258-11.43
		c-27.73-10.687-48.041-24.596-48.892-25.184l5.165-7.375c0,0,0,0,0.001,0l0,0c0.264,0.182,20.454,13.98,47.176,24.253
		c24.241,9.318,59.017,17.584,87.028,4.047l3.964,8.074C254.016,306.16,241.316,308.866,227.281,308.866z"/>
	<path fill="#808184" d="M261.174,292.711c-14.812,7.157-31.514,8.217-47.551,6.25c0.742,2.213,1.15,4.567,1.15,7.002
		c0,0.745-0.04,1.482-0.113,2.212c0.769,0.081,1.533,0.156,2.295,0.225c3.518,0.312,6.96,0.467,10.327,0.467
		c14.036,0,26.735-2.706,37.857-8.081L261.174,292.711z"/>
	<path fill="#808184" d="M318.536,276.661l-6.955,2.224c0.571,3.354,5.003,11.093,8.786,16.217
		c4.017,5.444,10.079,11.995,17.06,14.026c0.244-3.681,1.11-7.118,2.449-10.06c-10.974-1.742-20.751-20.912-21.505-23.105
		C318.377,275.976,318.463,276.233,318.536,276.661z"/>
	<path fill="#E9C09B" d="M341.837,299.194c-1.374,0.055-2.736-0.192-4.072-0.67c-0.58,3.546-1.749,6.773-3.351,9.432
		c1.752,0.849,3.578,1.449,5.459,1.688c5.903,0.751,11.359-2.039,16.218-8.293c5.289-6.812,9.893-17.91,13.681-32.994l-6.74-3.969
		C357.316,287.147,350.186,298.858,341.837,299.194z"/>
	<polygon fill="#414142" points="268.915,320.406 309.29,319.759 306.068,486.904 302.629,486.495 304.618,362.09 273.6,358.638 
		271.527,485.54 268.21,485.658 	"/>
	<path fill="#09080A" d="M267.815,485.611c0,0-3.135,4.586-10.331,4.367l-0.24,1.462c0,0,9.199,1.009,12.115-3.29l-0.293,3.343
		l3.081-0.233l-0.773-6.076L267.815,485.611z"/>
	<polygon fill="#FFFFFF" points="314.295,351.474 264.593,347.76 264.613,352.022 314.141,354.699 	"/>
	<g>
		
			<radialGradient id="SVGID_1_" cx="1283.1172" cy="4453.3281" r="89.1631" gradientTransform="matrix(-1.9291 0 0 0.0666 2764.3281 195.6807)" gradientUnits="userSpaceOnUse">
			<stop  offset="0" style="stop-color:#010101"/>
			<stop  offset="1" style="stop-color:#FFFFFF;stop-opacity:0"/>
		</radialGradient>
		<path opacity="0.29" fill="url(#SVGID_1_)" d="M117.08,492.17c0-3.28,77.006-5.937,171.988-5.937
			c94.992,0,171.987,2.656,171.987,5.937c0,3.277-76.995,5.938-171.987,5.938C194.085,498.107,117.08,495.447,117.08,492.17z"/>
		
			<radialGradient id="SVGID_2_" cx="2657.9473" cy="4466.6797" r="89.1943" gradientTransform="matrix(-1.2207 0 0 0.0666 3544.165 195.6807)" gradientUnits="userSpaceOnUse">
			<stop  offset="0" style="stop-color:#010101"/>
			<stop  offset="1" style="stop-color:#FFFFFF;stop-opacity:0"/>
		</radialGradient>
		<path opacity="0.29" fill="url(#SVGID_2_)" d="M190.768,493.059c0-3.279,48.73-5.939,108.843-5.939
			c60.104,0,108.837,2.66,108.837,5.939c0,3.281-48.733,5.941-108.837,5.941C239.498,499,190.768,496.34,190.768,493.059z"/>
	</g>
	<polygon fill="#808184" points="314.141,354.699 317.227,262.903 258.062,262.638 264.613,352.022 	"/>
	<path fill="#09080A" d="M306.173,486.863c0,0,2.823,4.784,10.021,5.004l0.146,1.475c0,0-9.233,0.434-11.873-4.028l0.08,3.34
		l-3.056-0.394l1.148-6.026L306.173,486.863z"/>
	<g id="ethan">
		<path d="M188.278,70.734c0,0,20.284-69.864,66.25-52.43c0,0,72.73-41.547,81.312,9.736c0,0,103.622,52.338,50.91,113.225
			c0,0,37.22,52.606-47.679,73.387c0,0,28.673,48.087,6.633,57.47c-22.041,9.383-50.716-69.187-50.716-69.187L188.278,70.734z"/>
		<ellipse cx="270.705" cy="128.427" rx="100.518" ry="100.8"/>
		<path fill="#E9BF9A" d="M235.247,305.661c48.109,1.621,75.764-44.682,89.343-82.607c25.313-39.23,0-123.965,0-123.965
			c-91.691,29.807-139.138-6.248-139.16-6.262c5.786,4.399,0.267,39.328-0.479,45.003c-1.855,14.143,2.223,27.82-3.316,41.005
			c-5.616,13.368-6.548,27.183-6.654,42.105C174.695,261.728,191.686,304.196,235.247,305.661z"/>
		<path fill="none" stroke="#CD9D78" stroke-width="5.4769" d="M209.599,260.111c0,0,57.758,11.598,68.147-27.79"/>
		<path fill="#E9BF9A" d="M181.636,122.57c0,50.858,38.378,92.082,85.712,92.082c47.341,0,85.716-41.224,85.716-92.082
			c0-50.857-38.375-92.081-85.716-92.081C220.014,30.489,181.636,71.713,181.636,122.57z"/>
		<path fill="#CD9D78" d="M319.43,235.649c0,0-4.169-8.803-3.363-18.394c0,0-4.523,16.659,1.117,23.944L319.43,235.649z"/>
		<path fill="#231F20" d="M310.854,110.646l-6.925,22.573c0,0-43.868-13.979-75.513-1.661l-4.57-23.737
			C223.846,107.822,265.768,86.94,310.854,110.646z"/>
		<path fill="#231F20" d="M140.086,116.673l3.893,16.546c0,0,36.099-10.353,60.508-1.384l5.388-17.423
			C209.876,114.413,182.75,92.359,140.086,116.673z"/>
		<g>
			<path fill="#231F20" d="M229.141,226.354c0.867-15-16.267-26.17-26.476-24.324c-15.099,2.54-25.34,18.949-39.051,25.451
				c-12.072,6.11-27.628,9.594-37.429-2.615c-3.401-4.077-7.552-9.167-6.383-15.413c0.719-3.174,3.159-9.223,6.721-7.214
				c1.608,0.907,1.309,3.808,1.174,5.586c-0.072,0.956-0.147,2.022-0.597,2.854c1.668-3.375,3.905-7.746,1.205-11.129
				c-3.248-4.067-8.677-3.701-12.303-0.311c-2.495,2.333-4.479,5.542-5.819,8.953c-2.439,6.213-3.664,13.321-3.125,20.113
				c0.152,1.91,0.418,3.862,0.819,5.714c3.195,13.843,11.312,27.754,22.314,33.703c12.738,6.888,27.816,4.912,40.855-0.581
				c7.562-3.187,14.969-7.523,21.945-12.299c2.658-1.821,5.299-3.676,7.953-5.509c2.965-2.047,5.585-4.802,9.01-5.623
				c6.958-1.545,12.027,1.656,18.431-4.291c2.557-2.283,8.951-15.026,2.02-13.963"/>
		</g>
		<path fill="#231F20" d="M209.599,271.872c0,0,31.671-5.886,44.93,4.847c0,0-10.613,24.579-25.02,23.54
			C215.102,299.221,209.599,271.872,209.599,271.872z"/>
		<polyline points="304.588,147.062 353.063,145.447 348.614,163.941 303.499,161.335 304.588,147.062 		"/>
		<path fill="#E9BF9A" d="M335.934,160.808c0,0,17.458-29.306,41.795-6.963c30.335,27.872-25.542,44.802-25.542,44.802
			s-17.696,5.611-11.739,24.57c5.973,18.966,5.831,25.852-0.799,28.029c-6.618,2.156-19.95-4.333-20.219-15.596
			C318.275,186.988,335.934,160.808,335.934,160.808z"/>
		<g>
			<path fill="#CD9D78" d="M332.626,194.086c0,0,28.825-59.913,27.026-11.805C359.652,182.281,355.534,155.278,332.626,194.086z"/>
			<path fill="#CD9D78" d="M332.438,194.238c0,0,19.813-29.513,11.015,9.265C343.452,203.502,346.607,178.484,332.438,194.238z"/>
		</g>
		<g>
			<path fill="#231F20" d="M185.086,223.847c0.867-15,30.066-23.534,46.184-20.189c23.865,4.756,37.843,22.543,58.883,31.022
				c18.467,7.847,42.925,13.607,60.504,2.957c6.076-3.537,13.51-7.97,12.572-14.334c-0.677-3.254-3.685-9.612-9.707-8.149
				c-2.721,0.661-2.675,3.581-2.728,5.365c-0.027,0.958-0.068,2.027,0.53,2.917c-2.172-3.593-5.105-8.259-0.26-11.211
				c5.827-3.552,14.492-2.383,19.807,1.516c3.656,2.683,6.359,6.159,7.997,9.739c2.981,6.522,3.878,13.75,1.989,20.404
				c-0.531,1.872-1.254,3.766-2.177,5.545c-7.216,13.251-22.347,25.838-40.912,30.104c-21.495,4.939-45.411,0.746-65.525-6.634
				c-11.665-4.279-22.907-9.678-33.391-15.447c-3.996-2.199-7.958-4.431-11.943-6.641c-4.454-2.47-8.247-5.589-13.624-6.91
				c-10.943-2.564-19.564-0.143-28.956-6.988c-3.762-2.641-12.111-16.224-1.14-14.143"/>
		</g>
		<path fill="#CD9D78" d="M242.629,194.579c0,0-30.049,28.808-54.351-2.617C188.278,191.962,213.382,207.457,242.629,194.579z"/>
		<path d="M181.636,105.301c0,0,25.917-67.967,62.996-66.026c37.078,1.941,59.988,3.883,59.988,3.883s5.131,21.18,31.221,32.031
			c0,0-10.762,35.428,9.864,62.607l-28.814,43.194l15.547,1.492l32.915-54.055l-12.289-43.046l-20.438-31.546
			c0,0-57.766-64.812-139.939,11.031L181.636,105.301z"/>
	</g>
	<g>
		<g>
			<path fill-rule="evenodd" clip-rule="evenodd" fill="#FFFFFF" d="M144.248,144.69c-2.015,14.108,2.917,26.835,3.618,41.021
				c13.401,4.415,31.828,10.407,45.511,0c10.376-7.892,6.628-23.638,12.662-36.019c5.467-1.836,9.176-1.655,15.375-1
				c5.169,10.956,6.163,26.534,12.662,36.02c17.172,7.393,47.361,8.919,66.023,1c1.636-13.198,4.245-25.319,4.521-40.021
				c-12.887-6.14-26.305-9.894-41.603-10.005c-16.26-0.119-33.073,6.089-48.84,6.002c-15.482-0.084-19.385-3.396-34.937-3.396
				C163.588,138.292,157.953,139.825,144.248,144.69z"/>
			<path fill-rule="evenodd" clip-rule="evenodd" d="M179.59,135.976c15.552,0,19.105,5.629,34.587,5.713
				c15.767,0.086,32.58-6.122,48.84-6.002c15.298,0.111,28.716,3.865,41.603,10.005c-0.276,14.702-2.886,26.823-4.521,40.021
				c-18.662,7.919-48.852,6.393-66.023-1c-6.499-9.486-7.492-25.063-12.662-36.02c-6.2-0.654-9.908-0.835-15.375,1
				c-6.034,12.381-2.286,28.127-12.662,36.019c-13.683,10.407-32.109,4.415-45.511,0c-1.838-14.638-3.881-26.127-3.618-41.021
				C157.953,139.825,163.938,135.976,179.59,135.976z M228.649,146.691c1.049,13.514,4.563,24.301,9.044,34.018
				c14.944,7.018,43.322,8.308,58.788,1.001c1.437-10.854,1.709-21.344,0-32.017C282.189,138.956,246.153,139.072,228.649,146.691z
				 M151.484,149.693c-1.55,9.677-1.523,24.581,0.904,33.018c16.965,5.228,25.154,5.733,39.18-3.002
				c3.834-9.765,7.932-19.24,8.14-33.017C182.232,138.666,165.94,139.442,151.484,149.693z"/>
			<path fill-rule="evenodd" clip-rule="evenodd" fill="#FFFFFF" d="M228.649,146.691c1.049,13.514,4.563,24.301,9.044,34.018
				c14.944,7.018,43.322,8.308,58.788,1.001c1.437-10.854,1.709-21.344,0-32.017C282.189,138.956,246.153,139.072,228.649,146.691z"
				/>
			<path fill-rule="evenodd" clip-rule="evenodd" fill="#FFFFFF" d="M151.484,149.693c-1.55,9.677-0.686,23.646,0.904,33.018
				c16.965,5.228,27.329,6.036,41.354-2.699c3.834-9.766,5.757-19.543,5.965-33.32C182.232,138.666,165.94,139.442,151.484,149.693z
				"/>
		</g>
	</g>
	<path fill="#E9C09B" d="M362.038,268.176c0,0-16.211-12.219-2.305-16.519c13.907-4.3,8.785,10.98,8.785,10.98
		s5.247-5.153,7.704-9.182c0,0,22.63,1.67-7.65,19.443"/>
	<path fill="#E9C09B" d="M128.544,268.798c0,0,16.992-11.127,3.403-16.332c-13.589-5.205-9.5,10.38-9.5,10.38
		s-4.892-5.487-7.075-9.669c0,0-22.596-1.116,6.432,18.609"/>
	<g>
		<path fill="#010101" d="M80.325,218.691l-50.168,22.974l50.536,24.069l-7.718,16.41L5.715,249.323v-14.221l67.259-32.639
			L80.325,218.691z"/>
	</g>
	<g>
		<path fill="#010101" d="M405.514,202.463l67.261,32.639v14.221l-67.261,32.821l-7.717-16.41l50.536-24.069l-50.169-22.974
			L405.514,202.463z"/>
	</g>
</g>
</svg>
