<?xml version="1.0" encoding="utf-8"?>
<!-- Generator: Adobe Illustrator 16.0.0, SVG Export Plug-In . SVG Version: 6.00 Build 0)  -->
<!DOCTYPE svg PUBLIC "-//W3C//DTD SVG 1.1//EN" "http://www.w3.org/Graphics/SVG/1.1/DTD/svg11.dtd">
<svg version="1.1" id="Layer_1" xmlns="http://www.w3.org/2000/svg" xmlns:xlink="http://www.w3.org/1999/xlink" x="0px" y="0px"
	 width="480px" height="500px" viewBox="0 0 480 500" enable-background="new 0 0 480 500" xml:space="preserve">
<g>
	<path fill="none" stroke="#231F20" stroke-width="9.4629" stroke-miterlimit="10" d="M276.005,245.348
		c0.784,0.286,83.479,34.496,23.87,67.449"/>
	<path fill="none" stroke="#231F20" stroke-width="9.4629" stroke-miterlimit="10" d="M221.153,254.011
		c0,0-78.329-0.626-37.435,46.005"/>
	<path fill="#424243" d="M252.806,376.99l-1.726,108.83l3.352,0.4l2.082-108.805C255.276,377.288,254.04,377.147,252.806,376.99z"/>
	<path fill="#424243" d="M221.961,372.582l-0.472,112.419l3.23-0.121l1.811-111.673C224.995,373.06,223.471,372.856,221.961,372.582
		z"/>
	<polygon fill="#231F20" points="274.86,318.114 277.865,227.996 220.23,227.733 226.614,315.482 	"/>
	<path fill="#09080A" d="M254.53,486.185c0,0,2.755,4.694,9.764,4.907l0.142,1.45c0,0-8.993,0.426-11.562-3.955l0.078,3.278
		l-2.978-0.388l1.119-5.915L254.53,486.185z"/>
	<path fill="#09080A" d="M221.103,484.956c0,0-3.053,4.501-10.062,4.284l-0.234,1.436c0,0,8.961,0.988,11.794-3.229l-0.281,3.28
		l3.004-0.229l-0.755-5.966L221.103,484.956z"/>
	<path opacity="0.1" fill="#010101" stroke="#A38060" stroke-width="0.8759" d="M92.323,492.801c0,1.542,58.649,2.787,130.99,2.787
		c72.36,0,131.005-1.245,131.005-2.787c0-1.536-58.645-2.791-131.005-2.791C150.972,490.01,92.323,491.265,92.323,492.801z"/>
	<path fill="#424242" d="M195.225,327.275c0,0,30.592,39.524,94.273,10.206L195.225,327.275z"/>
	<path fill="#424242" d="M223.796,342.409c0,0,20.598,7.578,44.271,0H223.796z"/>
	<polygon fill="#424242" points="290.758,336.627 196.289,337.506 196.134,320.46 290.594,319.579 	"/>
	<path fill="#D1D2D2" d="M239.739,323.121c-0.01-0.889-0.739-1.602-1.626-1.592c-0.888,0.008-1.603,0.735-1.592,1.624
		c0.006,0.886,0.738,1.603,1.621,1.596C239.034,324.738,239.749,324.011,239.739,323.121z"/>
	<path fill="#D1D2D2" d="M239.788,329.355c-0.009-0.89-0.74-1.601-1.629-1.595c-0.886,0.007-1.604,0.734-1.591,1.623
		c0.005,0.891,0.734,1.604,1.623,1.595C239.081,330.971,239.796,330.244,239.788,329.355z"/>
	<path fill="none" stroke="#D1D2D2" stroke-width="0.7644" d="M211.531,321.425c0,0,35.42-10.273,62.057,2.267"/>
	<path fill="none" stroke="#D1D2D2" stroke-width="0.7644" d="M217.029,308.393c0,0,14.933,4.745,24.819,9.256
		c0,0,13.108-12.463,23.985-9.141"/>
	<path fill="#E7E6E6" d="M256.042,292.773c0,0,10.426,6.813,22.868-0.643C278.91,292.131,264.271,295.72,256.042,292.773z"/>
	<path fill="#E7E6E6" d="M201.579,291.974c0,0,9.878,7.575,22.854,1.081C224.433,293.055,209.564,295.528,201.579,291.974z"/>
	<path fill="none" stroke="#D1D2D2" stroke-width="0.7644" d="M241.848,317.648c0,0-1.882,9.497,0.015,14.412"/>
	<polygon fill="#E92629" points="241.745,318.184 253.484,300.983 243.831,282.069 230.023,301.417 	"/>
	<path fill="#424242" d="M221.384,336.088c0,0,20.668,7.385,44.276-0.414L221.384,336.088z"/>
	<polygon fill="#7A7B7D" points="156.98,387.887 156.98,392.576 270.836,399.9 290.385,364.67 290.179,360.156 	"/>
	<g>
		<polygon fill="#939598" points="293.896,357.147 290.218,361.056 287.063,356.317 		"/>
		<g>
			<polygon fill="#939598" points="191.986,278.268 188.345,280.732 193.257,285.186 293.394,284.539 293.062,281.996 			"/>
			<polygon fill="#939598" points="191.986,278.268 296.291,281.005 293.859,357.154 190.993,355.965 			"/>
			<polygon fill="#231F20" points="188.345,280.732 292.651,283.472 290.183,360.688 186.533,357.276 			"/>
		</g>
	</g>
	<polygon fill="#2AA6DD" points="191.601,352.229 285.975,355.476 286.902,288.695 193.921,286.608 	"/>
	<g>
		<path fill="#E8BF9B" d="M304.209,315.133c0.623,1.856-0.374,3.92-2.215,4.586l-0.21,0.075c-1.841,0.666-3.734,2.766-4.208,4.666
			l-0.762,3.063c-0.474,1.9-2.355,3.138-4.184,2.749s-2.728-2.193-2-4.011l1.409-3.52c0.728-1.817-0.205-2.825-2.073-2.239
			l-8.27,2.594c-1.868,0.586-4-0.385-4.738-2.157s0.204-3.643,2.094-4.155l8.399-2.28c1.89-0.513,1.865-1.25-0.054-1.638
			l-5.924-1.196c-1.919-0.388-3.429-1.933-3.355-3.434c0.074-1.5,1.714-2.455,3.643-2.122l10.552,1.821
			c1.929,0.333,2.784-0.824,1.899-2.571l-0.242-0.478c-0.884-1.747-0.178-3.838,1.568-4.646c1.747-0.808,3.687,0.05,4.31,1.906
			L304.209,315.133z"/>
	</g>
	<path fill="#D2D3D4" d="M259.338,287.638h11.034c0,0-5.705-48.778,2.979-51.501l-12.758-7.279c0,0-4.871,21.668-1.342,58.749
		L259.338,287.638z"/>
	<circle fill="#939598" cx="264.097" cy="282.039" r="2.571"/>
	<polygon fill="#939598" points="186.533,357.276 156.98,387.887 269.729,395.146 290.183,360.688 	"/>
	<path fill="#D2D3D4" d="M216.88,285.141h11.037c0,0-0.441-45.91,13.686-41.496l-8.831-8.386c0,0-19.384,12.575-15.853,49.655
		L216.88,285.141z"/>
	<circle fill="#939598" cx="222.712" cy="280.059" r="2.57"/>
	<polygon fill="none" stroke="#767778" stroke-width="0.9462" points="204.311,388.23 210.336,379.938 237.427,381.292 
		231.022,389.999 	"/>
	<polygon fill="#231F20" points="199.371,360.253 274.81,363.979 263.013,380.741 187.263,375.154 	"/>
	<line fill="none" stroke="#939598" stroke-width="0.9462" x1="196.525" y1="362.074" x2="274.399" y2="366.234"/>
	<line fill="none" stroke="#939598" stroke-width="0.9462" x1="194.147" y1="365.343" x2="272.023" y2="369.505"/>
	<line fill="none" stroke="#939598" stroke-width="0.9462" x1="191.918" y1="368.76" x2="269.793" y2="372.924"/>
	<line fill="none" stroke="#939598" stroke-width="0.9462" x1="188.054" y1="372.773" x2="265.929" y2="376.936"/>
	<line fill="none" stroke="#939598" stroke-width="0.9462" x1="193.614" y1="376.456" x2="205.336" y2="359.165"/>
	<line fill="none" stroke="#939598" stroke-width="0.9462" x1="199.768" y1="377.628" x2="211.491" y2="360.338"/>
	<line fill="none" stroke="#939598" stroke-width="0.9462" x1="207.096" y1="378.216" x2="218.818" y2="360.924"/>
	<line fill="none" stroke="#939598" stroke-width="0.9462" x1="216.5" y1="374.172" x2="224.973" y2="361.217"/>
	<line fill="none" stroke="#939598" stroke-width="0.9462" x1="223.212" y1="374.347" x2="231.419" y2="362.096"/>
	<line fill="none" stroke="#939598" stroke-width="0.9462" x1="229.825" y1="375.199" x2="239.039" y2="361.217"/>
	<line fill="none" stroke="#939598" stroke-width="0.9462" x1="235.693" y1="375.306" x2="244.606" y2="362.096"/>
	<line fill="none" stroke="#939598" stroke-width="0.9462" x1="239.627" y1="379.385" x2="251.348" y2="362.096"/>
	<line fill="none" stroke="#939598" stroke-width="0.9462" x1="247.537" y1="379.972" x2="259.262" y2="362.682"/>
	<line fill="none" stroke="#939598" stroke-width="0.9462" x1="254.864" y1="380.558" x2="266.588" y2="363.268"/>
	<g>
		<ellipse fill="#7A7B7D" cx="186.971" cy="361.091" rx="1.225" ry="0.66"/>
		<ellipse fill="#7A7B7D" cx="190.363" cy="361.478" rx="1.224" ry="0.657"/>
		<ellipse fill="#7A7B7D" cx="193.851" cy="361.866" rx="1.225" ry="0.661"/>
		<ellipse fill="#7A7B7D" cx="185.141" cy="363.269" rx="1.226" ry="0.659"/>
		<ellipse fill="#7A7B7D" cx="188.534" cy="363.656" rx="1.225" ry="0.659"/>
		<ellipse fill="#7A7B7D" cx="192.021" cy="364.045" rx="1.225" ry="0.659"/>
		<ellipse fill="#7A7B7D" cx="183.398" cy="365.272" rx="1.225" ry="0.659"/>
		<ellipse fill="#7A7B7D" cx="186.79" cy="365.661" rx="1.225" ry="0.659"/>
		<ellipse fill="#7A7B7D" cx="190.278" cy="366.049" rx="1.225" ry="0.661"/>
		<ellipse fill="#7A7B7D" cx="181.481" cy="367.364" rx="1.225" ry="0.659"/>
		<ellipse fill="#7A7B7D" cx="184.873" cy="367.752" rx="1.225" ry="0.658"/>
		<ellipse fill="#7A7B7D" cx="188.36" cy="368.14" rx="1.226" ry="0.66"/>
		<ellipse fill="#7A7B7D" cx="179.216" cy="369.456" rx="1.225" ry="0.658"/>
		<ellipse fill="#7A7B7D" cx="182.607" cy="369.845" rx="1.225" ry="0.66"/>
		<path fill="#7A7B7D" d="M187.322,370.232c0-0.365-0.55-0.662-1.226-0.662c-0.677,0-1.224,0.297-1.224,0.662
			c0,0.362,0.547,0.657,1.224,0.657C186.772,370.89,187.322,370.595,187.322,370.232z"/>
	</g>
	<g>
		
			<ellipse transform="matrix(0.9949 -0.1005 0.1005 0.9949 -35.3671 29.6825)" fill="#7A7B7D" cx="276.945" cy="365.895" rx="1.224" ry="0.659"/>
		
			<ellipse transform="matrix(0.9949 -0.1008 0.1008 0.9949 -35.4473 30.113)" fill="#7A7B7D" cx="280.358" cy="365.941" rx="1.226" ry="0.659"/>
		
			<ellipse transform="matrix(0.995 -0.1 0.1 0.995 -35.1802 30.2266)" fill="#7A7B7D" cx="283.869" cy="365.975" rx="1.225" ry="0.659"/>
		
			<ellipse transform="matrix(0.995 -0.1001 0.1001 0.995 -35.4771 29.4102)" fill="#7A7B7D" cx="275.343" cy="368.246" rx="1.224" ry="0.659"/>
		
			<ellipse transform="matrix(0.995 -0.1001 0.1001 0.995 -35.451 29.7395)" fill="#7A7B7D" cx="278.757" cy="368.292" rx="1.225" ry="0.658"/>
		
			<ellipse transform="matrix(0.9949 -0.1005 0.1005 0.9949 -35.571 30.2169)" fill="#7A7B7D" cx="282.267" cy="368.326" rx="1.225" ry="0.66"/>
		
			<ellipse transform="matrix(0.9949 -0.1004 0.1004 0.9949 -35.8101 29.3656)" fill="#7A7B7D" cx="273.81" cy="370.416" rx="1.225" ry="0.661"/>
		<path fill="#7A7B7D" d="M278.443,370.338c-0.037-0.362-0.613-0.602-1.284-0.533c-0.676,0.067-1.19,0.416-1.152,0.777
			c0.035,0.364,0.611,0.603,1.284,0.535C277.965,371.049,278.48,370.7,278.443,370.338z"/>
		<path fill="#7A7B7D" d="M281.952,370.372c-0.036-0.361-0.612-0.6-1.285-0.533c-0.673,0.069-1.188,0.418-1.152,0.779
			c0.037,0.363,0.612,0.602,1.285,0.534C281.473,371.081,281.989,370.734,281.952,370.372z"/>
		
			<ellipse transform="matrix(0.995 -0.0997 0.0997 0.995 -35.788 28.9748)" fill="#7A7B7D" cx="272.114" cy="372.688" rx="1.225" ry="0.66"/>
		
			<ellipse transform="matrix(0.9949 -0.1008 0.1008 0.9949 -36.184 29.6857)" fill="#7A7B7D" cx="275.526" cy="372.735" rx="1.225" ry="0.659"/>
		
			<ellipse transform="matrix(0.9949 -0.1012 0.1012 0.9949 -36.3055 30.1649)" fill="#7A7B7D" cx="279.036" cy="372.77" rx="1.225" ry="0.661"/>
		
			<ellipse transform="matrix(0.995 -0.0997 0.0997 0.995 -36.0283 28.7825)" fill="#7A7B7D" cx="270.069" cy="374.998" rx="1.225" ry="0.66"/>
		
			<ellipse transform="matrix(0.9949 -0.1009 0.1009 0.9949 -36.441 29.5039)" fill="#7A7B7D" cx="273.483" cy="375.042" rx="1.225" ry="0.66"/>
		
			<ellipse transform="matrix(0.9949 -0.1005 0.1005 0.9949 -36.2758 29.7213)" fill="#7A7B7D" cx="276.993" cy="375.077" rx="1.225" ry="0.658"/>
	</g>
	<polygon fill="#42C6F4" points="274.395,305.289 262.821,315.358 277.427,320.048 261.285,325.145 269.742,334.95 253.357,333.707 
		253.396,346.002 241.16,338.752 232.776,350.241 227.964,338.928 213.399,346.53 217.303,334.183 200.46,335.866 212.034,325.796 
		197.427,321.104 213.568,316.008 205.111,306.202 221.495,307.444 221.455,295.15 233.692,302.399 242.077,290.913 
		246.889,302.228 261.456,294.623 257.552,306.97 	"/>
	<g>
		<path fill="#E8BF9B" d="M179.065,297.188c-1.421,1.347-1.508,3.637-0.195,5.089l0.15,0.165c1.313,1.452,2.001,4.194,1.528,6.094
			l-0.763,3.063c-0.474,1.899,0.609,3.875,2.406,4.39s3.438-0.657,3.648-2.604l0.406-3.768c0.209-1.947,1.507-2.399,2.882-1.006
			l6.085,6.166c1.375,1.394,3.714,1.537,5.197,0.317c1.483-1.22,1.528-3.312,0.099-4.652l-6.348-5.952
			c-1.429-1.34-1.062-1.979,0.815-1.422l5.792,1.722c1.877,0.558,3.935-0.1,4.572-1.46c0.638-1.359-0.362-2.973-2.223-3.583
			l-10.172-3.338c-1.861-0.61-2.073-2.033-0.473-3.161l0.44-0.311c1.6-1.128,1.958-3.305,0.793-4.838
			c-1.164-1.532-3.278-1.684-4.699-0.337L179.065,297.188z"/>
	</g>
	<path fill="#CA9D69" d="M269.337,170.248c7.747-4.386,16.977-5.709,25.658-3.625l0.119,0.028c9.072,2.178,16.996,7.938,21.87,15.89
		c1.996,3.259,3.423,6.81,4.272,10.485c22.641-38.29,70.503-77.447,52.879-132.479C352.907-5.728,215.901,5.302,215.901,5.302
		c2.49,28.833-19.482,84.539-19.482,84.539L269.337,170.248z"/>
	<path fill="#E7BE99" d="M177.907,202.81c2.306,12.991,4.961,37.832,16.082,43.634c16.554,8.638,45.734,17.495,62.122,11.341
		c22.603-8.479,63.712-46.463,61.968-73.379c-0.333-5.32,4.975-14.527,6.515-19.615c7.04-23.363,20.74-57.521,9.166-81.387
		c-10.125-20.887-39.277-29.032-59.876-33.635c-4.063-0.917-51.831-10.004-53.647-4.909c-3.271,9.179-16.917,42.563-21.053,51.386
		c-8.681,18.529-23.385,34.517-27.682,54.931C167.48,170.261,174.518,183.665,177.907,202.81z"/>
	<path fill="#CE9C78" d="M311.548,205.969c0,0-7.767-10.336-3.891-18.506c0,0-8.852,14.396,0.731,23.275L311.548,205.969"/>
	<g>
		<path opacity="0.39" fill="#CD9D78" d="M223.725,165.935c2.286,0.183,6.961-2.941,9.507-3.575
			c4.112-1.031,9.562,4.434,14.339,0.604c0,0-21.145,18.942-36.698,11.92c0,0-11.761-5.514-11.776-29.663
			C199.096,145.22,205.669,164.503,223.725,165.935z"/>
		<path fill="#CD9D78" d="M249.374,157.398c0,0,3.133,16.746-14.089,4.393C235.285,161.791,247.695,167.852,249.374,157.398z"/>
		<path fill="#CD9D78" d="M241.667,158.566c0,0-33.123,27.746-41.891-13.228C199.776,145.339,215.666,172.364,241.667,158.566z"/>
	</g>
	<path fill="#A17F60" d="M251.922,219.054c0,0-15.4,5.628-28.989-4.59C222.933,214.464,235.708,227.444,251.922,219.054z"/>
	<path fill="none" stroke="#A17F60" stroke-width="0.9747" stroke-miterlimit="10" d="M197.654,196.516
		c0,0,59.274,27.74,89.375-1.382"/>
	<path fill="#CA9D69" d="M330.647,74.437c0,0-21.362,42.106-7.252,55.688l-7.095,29.544l17.759,4.264l18.433-52.99L330.647,74.437z"
		/>
	<path fill="#E7BE99" d="M323.086,158.356c0,0,13.991-18.069,33.6-4.142c24.44,17.361-20.478,27.616-20.478,27.616
		s-14.227,3.396-9.413,15.153c4.836,11.757,4.725,16.019-0.605,17.334c-5.328,1.31-16.656-6.394-16.887-13.363
		C308.321,170.84,323.086,158.356,323.086,158.356z"/>
	<g>
		<path fill="#CE9C78" d="M320.463,178.927c0,0,23.118-36.942,21.723-7.2C342.186,171.727,338.852,155.009,320.463,178.927z"/>
		<path fill="#CE9C78" d="M320.306,179.027c0,0,15.902-18.187,8.884,5.774C329.189,184.801,331.688,169.336,320.306,179.027z"/>
	</g>
	<path fill="none" stroke="#A07953" stroke-width="0.9747" stroke-miterlimit="10" d="M228.189,38.752
		c0,0,3.665-12.967,2.974-27.084"/>
	<path fill="none" stroke="#A07953" stroke-width="0.9747" stroke-miterlimit="10" d="M237.621,41.017
		c0,0,7.444-21.163,7.982-33.243"/>
	<path fill="none" stroke="#A07953" stroke-width="0.9747" stroke-miterlimit="10" d="M257.033,42.605
		c0,0,7.443-21.162,7.981-33.241"/>
	<path fill="none" stroke="#A07953" stroke-width="0.9747" stroke-miterlimit="10" d="M266.383,44.85c0,0,7.444-21.161,7.982-33.242
		"/>
	<path fill="none" stroke="#A07953" stroke-width="0.9747" stroke-miterlimit="10" d="M275.15,46.955c0,0,7.442-21.162,7.98-33.241"
		/>
	<path fill="none" stroke="#A07953" stroke-width="0.9747" stroke-miterlimit="10" d="M284.608,49.225
		c0,0,7.443-21.162,7.981-33.241"/>
	<path fill="none" stroke="#A07953" stroke-width="0.9747" stroke-miterlimit="10" d="M295.112,52.487c0,0,7.443-21.163,7.98-33.242
		"/>
	<path fill="none" stroke="#A07953" stroke-width="0.9747" stroke-miterlimit="10" d="M304.764,55.6c0,0,7.44-21.161,7.98-33.242"/>
	<path fill="none" stroke="#A07953" stroke-width="0.9747" stroke-miterlimit="10" d="M315.297,58.129
		c0,0,7.443-21.161,7.982-33.241"/>
	<path fill="none" stroke="#A07953" stroke-width="0.9747" stroke-miterlimit="10" d="M321.75,63.087
		c0,0,10.099-20.032,12.183-31.943"/>
	<path fill="none" stroke="#A07953" stroke-width="0.9747" stroke-miterlimit="10" d="M330.414,68.278
		c0,0,13.719-17.749,18.028-29.045"/>
	<path fill="none" stroke="#A07953" stroke-width="0.9747" stroke-miterlimit="10" d="M247.523,40.322
		c0,0,7.557-24.854,8.577-30.028"/>
	<path fill="none" stroke="#A07953" stroke-width="0.9747" stroke-miterlimit="10" d="M335.826,78.347
		c0,0,5.801,17.637,31.64,27.739"/>
	<path fill="none" stroke="#A07953" stroke-width="0.9747" stroke-miterlimit="10" d="M333.077,89.797
		c0,0,5.801,17.635,31.641,27.738"/>
	<path fill="none" stroke="#A07953" stroke-width="0.9747" stroke-miterlimit="10" d="M329.921,102.946
		c0,0,5.801,17.636,31.64,27.738"/>
	<path fill="none" stroke="#A07953" stroke-width="0.9747" stroke-miterlimit="10" d="M334.307,71.302
		c1.122,0.628,24.485-10.174,30.86-20.314"/>
	<path fill="none" stroke="#A07953" stroke-width="0.9747" stroke-miterlimit="10" d="M336.431,75.827
		c0,0,18.706,10.972,33.793,10.779"/>
	<path fill="none" stroke="#A07953" stroke-width="0.9747" stroke-miterlimit="10" d="M325.972,119.39
		c0,0,12.872,14.066,25.604,19.611"/>
	<path fill="none" stroke="#A07953" stroke-width="0.9747" stroke-miterlimit="10" d="M326.705,135.936
		c0,0,5.601,7.986,14.303,11.241"/>
	<path fill="none" stroke="#A07953" stroke-width="0.9747" stroke-miterlimit="10" d="M335.625,73.434
		c0,0,26.504,0.622,33.521-2.375"/>
	<g>
		<path fill="#FFFFFF" d="M217.403,319.301l1.505-0.403l2.091,7.804c0.83,3.099-0.438,4.458-2.444,4.995
			c-0.554,0.148-1.261,0.208-1.684,0.154l-0.104-1.288c0.344,0.037,0.822,0.02,1.324-0.115c1.35-0.361,1.983-1.18,1.372-3.463
			L217.403,319.301z"/>
		<path fill="#FFFFFF" d="M232.916,321.266c1.076,4.015-0.794,6.796-3.77,7.594c-3.08,0.825-5.883-0.984-6.828-4.514
			c-0.992-3.702,0.66-6.741,3.774-7.576C229.275,315.917,231.988,317.805,232.916,321.266z M223.917,323.881
			c0.668,2.49,2.615,4.361,4.985,3.727c2.389-0.64,3.149-3.199,2.44-5.846c-0.621-2.32-2.481-4.417-4.991-3.745
			C223.86,318.685,223.231,321.32,223.917,323.881z"/>
		<path fill="#FFFFFF" d="M233.385,315.187c0.621-0.314,1.631-0.697,2.687-0.979c1.505-0.403,2.543-0.403,3.428-0.01
			c0.727,0.287,1.275,0.883,1.521,1.799c0.302,1.126-0.178,2.311-1.286,3.09l0.009,0.035c1.182-0.021,2.726,0.55,3.188,2.279
			c0.27,1.004,0.075,1.871-0.36,2.601c-0.613,0.962-1.835,1.66-3.739,2.17c-1.038,0.278-1.853,0.423-2.373,0.487L233.385,315.187z
			 M236.17,319.559l1.367-0.366c1.592-0.427,2.304-1.507,2.003-2.632c-0.366-1.367-1.548-1.625-3.071-1.217
			c-0.692,0.186-1.076,0.344-1.305,0.461L236.17,319.559z M237.668,325.147c0.308-0.027,0.745-0.125,1.281-0.269
			c1.558-0.417,2.841-1.374,2.387-3.068c-0.427-1.593-1.97-1.884-3.613-1.443l-1.246,0.334L237.668,325.147z"/>
		<path fill="#FFFFFF" d="M245.15,322.401c0.785,0.234,1.864,0.316,2.902,0.039c1.54-0.413,2.223-1.468,1.907-2.645
			c-0.292-1.09-1.082-1.546-2.818-1.73c-2.085-0.164-3.526-0.836-3.967-2.479c-0.486-1.817,0.657-3.569,2.925-4.177
			c1.193-0.319,2.133-0.275,2.731-0.119l-0.087,1.339c-0.436-0.105-1.308-0.243-2.363,0.039c-1.592,0.427-1.942,1.541-1.729,2.337
			c0.292,1.091,1.145,1.437,2.921,1.629c2.177,0.232,3.436,0.916,3.895,2.629c0.481,1.799-0.434,3.713-3.185,4.45
			c-1.125,0.302-2.441,0.303-3.176,0.055L245.15,322.401z"/>
		<path fill="#FFFFFF" d="M253.568,318.514l-2.468-8.241l1.661-0.445l1.982,8.371L253.568,318.514z M253.798,321.104
			c-0.167-0.623,0.146-1.188,0.733-1.346c0.623-0.167,1.143,0.176,1.309,0.799c0.162,0.605-0.11,1.18-0.733,1.347
			C254.501,322.065,253.961,321.709,253.798,321.104z"/>
	</g>
	<path fill="#A17F60" d="M283.487,187.463c0,0,23.519-0.171,12.804,18.776C296.291,206.24,301.677,191.956,283.487,187.463z"/>
	<path fill="#FFFFFF" d="M204.15,113.62c-1.967,5.037,0.287,10.823,5.055,12.93c4.76,2.087,10.214-0.301,12.19-5.351
		c1.977-5.037-0.287-10.829-5.042-12.921C211.59,106.182,206.141,108.574,204.15,113.62z"/>
	<path fill="#FFFFFF" d="M259.834,126.345c-2.422,6.304,1.286,13.923,8.312,17c7.006,3.074,14.646,0.446,17.071-5.872
		c2.436-6.313-1.28-13.933-8.294-16.999C269.911,117.396,262.272,120.028,259.834,126.345z"/>
	<path fill="#C4E8F3" d="M213.536,111.535c-3.041-1.338-6.355-0.839-8.877,1.002c-0.186,0.347-0.36,0.704-0.509,1.083
		c-1.967,5.037,0.287,10.823,5.055,12.93c3.032,1.329,6.343,0.837,8.859-0.996c0.188-0.352,0.364-0.715,0.516-1.098
		C220.556,119.418,218.292,113.627,213.536,111.535z"/>
	<path fill="#E0E1E0" d="M281.939,139.583c2.437-6.312-1.281-13.931-8.295-16.998c-3.832-1.682-7.848-1.65-11.104-0.25
		c-1.166,1.085-2.099,2.432-2.707,4.01c-2.422,6.304,1.286,13.923,8.312,17c3.828,1.68,7.838,1.647,11.09,0.25
		C280.402,142.51,281.333,141.163,281.939,139.583z"/>
	<path fill="#CA9D69" d="M312.313,138.154l-11.184,8.758c0,0-9.076-24.075-56.244-22.499l-0.31-11.664
		C244.576,112.75,311.604,102.876,312.313,138.154z"/>
	<path fill="#CA9D69" d="M183.63,107.002l4.441,9.86c0,0,9.357-15.602,34.603-0.781l2.317-8.745
		C224.991,107.336,190.525,80.503,183.63,107.002z"/>
	<g>
		<circle fill="#3BB14A" cx="279.141" cy="135.936" r="4.347"/>
		<circle fill="#231F20" cx="279.141" cy="135.936" r="2.213"/>
		<circle fill="#FFFFFF" cx="277.174" cy="134.665" r="1.271"/>
	</g>
	<g>
		<circle fill="#3BB14A" cx="216.489" cy="119.185" r="3.25"/>
		<circle fill="#231F20" cx="216.489" cy="119.185" r="1.654"/>
		<circle fill="#FFFFFF" cx="215.019" cy="118.234" r="0.95"/>
	</g>
</g>
<g>
</g>
<g>
</g>
<g>
</g>
<g>
</g>
<g>
</g>
<g>
</g>
</svg>
