<?xml version="1.0" encoding="utf-8"?>
<!-- Generator: Adobe Illustrator 16.0.0, SVG Export Plug-In . SVG Version: 6.00 Build 0)  -->
<!DOCTYPE svg PUBLIC "-//W3C//DTD SVG 1.1//EN" "http://www.w3.org/Graphics/SVG/1.1/DTD/svg11.dtd">
<svg version="1.1" id="Layer_1" xmlns="http://www.w3.org/2000/svg" xmlns:xlink="http://www.w3.org/1999/xlink" x="0px" y="0px"
	 width="480px" height="500px" viewBox="0 0 480 500" enable-background="new 0 0 480 500" xml:space="preserve">
<g>
	<path fill="#29A8E0" d="M172.029,286.889l-1.95-7.099c-3.427,0.425-11.472,4.543-16.836,8.122
		c-5.7,3.802-12.612,9.613-14.979,16.549c3.723,0.408,7.171,1.433,10.097,2.91c2.25-10.967,22.126-19.956,24.385-20.618
		C172.732,286.758,172.466,286.834,172.029,286.889z"/>
	<path fill="#E9C09B" d="M148.146,309.341c0.004-1.386,0.315-2.746,0.858-4.069c-3.571-0.742-6.793-2.062-9.419-3.791
		c-0.938,1.727-1.627,3.537-1.953,5.419c-1.023,5.908,1.567,11.523,7.698,16.69c6.675,5.627,17.733,10.752,32.866,15.234
		l4.322-6.607C159.685,325.454,148.12,317.758,148.146,309.341z"/>
	<path fill="#29A8E0" d="M289.673,280.847l-9.498,4.99c1.62,3.085,9.85,8.954,16.52,12.5c7.087,3.769,17.385,7.81,27.932,7.015
		c-0.524-3.736-0.093-7.479,1.138-10.926c-16.233,2.684-34.886-12.338-36.495-14.204
		C289.278,280.233,289.466,280.454,289.673,280.847z"/>
	<path fill="#E9C09B" d="M328.622,293.764c-1.968,0.606-3.989,0.908-6.029,0.974c0.005,3.736-0.913,7.396-2.589,10.666
		c2.728,0.135,5.502-0.005,8.271-0.522c8.688-1.627,15.891-6.575,21.409-14.706c6.007-8.855,10.003-21.674,11.878-38.102
		l-10.659-1.218C348.074,275.644,340.578,290.08,328.622,293.764z"/>
	<polygon fill="#414142" points="178.215,315.713 218.892,315.056 215.646,484.768 212.181,484.354 214.184,358.036 
		182.935,354.531 180.847,483.384 177.505,483.503 	"/>
	<path fill="#09080A" d="M177.107,483.455c0,0-3.158,4.656-10.407,4.434l-0.243,1.484c0,0,9.269,1.024,12.206-3.339l-0.295,3.394
		l3.104-0.236l-0.779-6.17L177.107,483.455z"/>
	<polygon fill="#FFFFFF" points="223.934,347.258 173.861,343.486 173.881,347.815 223.777,350.532 	"/>
	<g>
		
			<radialGradient id="SVGID_1_" cx="1330.0566" cy="4423.6055" r="89.8291" gradientTransform="matrix(-1.9291 0 0 0.0671 2764.3281 193.2913)" gradientUnits="userSpaceOnUse">
			<stop  offset="0" style="stop-color:#010101"/>
			<stop  offset="1" style="stop-color:#FFFFFF;stop-opacity:0"/>
		</radialGradient>
		<path opacity="0.29" fill="url(#SVGID_1_)" d="M25.249,490.115c0-3.331,77.58-6.028,173.27-6.028
			c95.699,0,173.269,2.697,173.269,6.028c0,3.327-77.569,6.028-173.269,6.028C102.829,496.144,25.249,493.442,25.249,490.115z"/>
		
			<radialGradient id="SVGID_2_" cx="2732.0615" cy="4437.0547" r="89.8623" gradientTransform="matrix(-1.2207 0 0 0.0671 3544.165 193.2913)" gradientUnits="userSpaceOnUse">
			<stop  offset="0" style="stop-color:#010101"/>
			<stop  offset="1" style="stop-color:#FFFFFF;stop-opacity:0"/>
		</radialGradient>
		<path opacity="0.29" fill="url(#SVGID_2_)" d="M99.486,491.017c0-3.329,49.093-6.031,109.653-6.031
			c60.552,0,109.648,2.702,109.648,6.031c0,3.332-49.097,6.033-109.648,6.033C148.579,497.05,99.486,494.349,99.486,491.017z"/>
	</g>
	<polygon fill="#29A8E0" points="223.777,350.532 226.887,257.327 167.282,257.057 173.881,347.815 	"/>
	<path fill="#09080A" d="M215.751,484.727c0,0,2.844,4.858,10.095,5.081l0.146,1.496c0,0-9.302,0.441-11.96-4.09l0.08,3.392
		l-3.079-0.399l1.157-6.119L215.751,484.727z"/>
	<g>
		<path fill="#BBA992" d="M282.234,164.84c0,0,31.437-124.138-43.807-109.674c0,0-175.841-60.93-121.983,147.482
			c0,0,15.407,65.158,44.089,65.839L282.234,164.84z"/>
		<path fill="#E9C09B" d="M275.927,232.469c0,0,44.532,84.614-22.444,97.288c0,0-83.043,48.791-86.447-60.092l-3.14-27.404
			L275.927,232.469z"/>
		<path fill="#E9C09B" d="M281.089,159.218c0,49.877-32.429,90.312-72.432,90.312s-72.432-40.435-72.432-90.312
			c0-16.847-2.309-41.782,4.132-55.28c12.63-26.465,43.68-26.287,68.3-35.033C246.353,55.516,281.089,109.34,281.089,159.218z"/>
		<path fill="#E9C09B" d="M149.36,221.113c0,0,19.038,57.292,40.745,39.5c21.707-17.793,81.78-8.422,81.78-8.422
			s34.333-73.881-0.291-100.822c0,0,4.981-86.471-58.359-65.476c-63.341,20.995-67.975,83.98-67.975,83.98"/>
		<path fill="#E9C09B" d="M148.477,206.537c0,0-16.825-21.987-34.153-1.598c-21.603,25.435,24.813,33.718,24.813,33.718
			s14.729,2.817,11.794,18.706c-2.938,15.895-2.153,21.438,3.372,22.553c5.516,1.1,15.563-5.415,14.679-14.542
			C165.171,225.968,148.477,206.537,148.477,206.537z"/>
		<g>
			<path fill="#D09F78" d="M154.373,233.081c0,0-28.934-45.591-22.805-6.922C131.568,226.159,132.228,203.96,154.373,233.081z"/>
			<path fill="#D09F78" d="M154.547,233.193c0,0-18.746-21.927-7.932,8.544C146.615,241.737,141.643,221.836,154.547,233.193z"/>
		</g>
		<g>
			<path opacity="0.39" fill="#D09F78" d="M224.461,239.999c-2.888-0.49-7.743-6.333-10.698-8.038
				c-4.789-2.761-13.212,3.042-17.968-3.812c0,0,19.737,34.212,41.164,29.539c0,0,18.26,0.479,24.353-38.389
				C261.312,219.299,247.276,243.871,224.461,239.999z"/>
			<path fill="#D09F78" d="M195.255,219.853c0,0-8.992,22.174,16.131,10.659C211.386,230.512,194.15,234.875,195.255,219.853z"/>
			<path fill="#D09F78" d="M204.459,223.973c0,0,32.605,49.176,55.969-4.729C260.428,219.244,232.489,251.52,204.459,223.973z"/>
		</g>
		<g>
			<path fill="#D09F78" d="M178.835,253.441c0,0,2.554-12.803,15.583-3.308C194.418,250.134,185.576,243.953,178.835,253.441z"/>
			<path fill="#D09F78" d="M185.376,250.567c0,0-13.051,23.377,13.62,30.154c18.022,4.574,39.432-13.809,39.432-13.809
				S203.375,281.797,185.376,250.567z"/>
			<path fill="#D09F78" d="M231.276,269.441c-9.552,2.584-18.198,2.541-25.851-0.154c-15.584-5.482-21.152-19.857-21.388-20.47
				l1.463-0.55c0.053,0.143,5.564,14.324,20.461,19.553c12.758,4.479,28.479,1.276,46.723-9.507l0.797,1.345
				C245.628,264.302,238.215,267.567,231.276,269.441z"/>
			<path fill="#F4F5F5" d="M238.428,266.912c0,0-31.103,13.198-49.762-11.387c-1.903,2.911-7.881,13.629,6.293,15.26
				c0,0-3.801,4.146-1.626,7.99c1.662,0.74,3.519,1.396,5.663,1.945C217.019,285.295,238.428,266.912,238.428,266.912z"/>
		</g>
		<path fill="#BBA992" d="M248.876,84.102c0,0-36.475-109.915-103.616-31.546c0,0,45.65-4.128,28.277,31.546
			C156.165,119.776,255.324,99.437,248.876,84.102z"/>
		<path fill="#A39582" d="M152.016,52.464c0,0,33.334,0.023,23.784,26.248l-1.714,1.126
			C174.085,79.838,177.812,54.884,152.016,52.464z"/>
		<path fill="#BBA992" d="M145.26,144.41v13.769c0,0,51.078-8.069,74.632,8.495V144.41C219.892,144.41,182.303,127.25,145.26,144.41
			z"/>
		<path fill="#BBA992" d="M296.022,148.84l-0.469,13.761c0,0-31.575-9.149-46.826,6.906l0.757-22.251
			C249.484,147.256,273.508,130.904,296.022,148.84z"/>
		<path fill="#D09F78" d="M227.165,138.109c0,0,12.815,9.697,1.388,15.811C228.553,153.92,233.283,148.307,227.165,138.109z"/>
		<path fill="#D09F78" d="M241.492,153.92c0,0-12.815-9.698-1.388-15.811C240.104,138.109,235.375,143.723,241.492,153.92z"/>
		<path fill="#231F20" d="M202.247,177.744c0,0-19.254,32.307-47.797,6.31C154.45,184.054,179.24,200.452,202.247,177.744z"/>
		<path fill="#231F20" d="M286.182,178.087c0,0-11.051,27.741-28.152,4.988C258.029,183.076,272.822,197.494,286.182,178.087z"/>
		<g>
			<path opacity="0.43" fill="#FFFFFF" d="M133.092,155.543c0,0,110.534-8.748,82.134,42.237
				C186.825,248.764,123.988,220.551,133.092,155.543z"/>
			<path fill="#231F20" d="M164.562,222.919c-9.187-1.319-16.448-4.87-21.584-10.553c-5.852-6.475-9.828-15.347-10.908-24.337
				l-0.013-0.109c-0.13-1.08-0.526-4.364-0.65-7.525c-0.026-0.674-0.059-1.501-0.043-2.395c-1.869-0.823-3.42-2.135-4.508-3.847
				c-2.304-3.626-2.45-8.583-0.445-15.156c0.547-1.796,2.133-3.079,4.005-3.24c9.603-0.825,19.999-1.224,30.9-1.187
				c2.4,0.009,5.075-0.057,7.906-0.126c8.065-0.197,17.208-0.422,25.948,0.834c14.707,2.113,24.199,7.941,29.019,17.818
				c8.289,16.992-3.73,32.621-17.743,41.582c-5.962,3.814-12.996,6.414-20.905,7.726
				C178.087,223.643,170.833,223.82,164.562,222.919z M135.706,169.756 M140.613,177.187c-0.09,1.08-0.135,3.764,0.574,9.63
				l0.014,0.116c0.858,7.147,3.993,14.17,8.6,19.267c3.658,4.049,9.065,6.611,16.069,7.616c5.35,0.768,11.631,0.602,18.164-0.483
				c6.675-1.108,12.547-3.26,17.456-6.4c3.688-2.358,21.713-14.879,14.434-29.801c-3.429-7.028-10.439-11.079-22.062-12.748
				c-7.978-1.146-16.71-0.933-24.416-0.743c-2.897,0.071-5.634,0.138-8.162,0.129c-9.402-0.033-12.025-0.034-20.438,0.591"/>
			<path fill="#231F20" d="M248.876,189.501c0-4.212-28.984-4.212-28.984,0v-22.827c0,4.109,28.984,4.109,28.984,0V189.501z"/>
			<path opacity="0.43" fill="#FFFFFF" d="M314.348,155.543c0,0-83.563-8.748-62.093,42.237
				C273.725,248.764,321.23,220.551,314.348,155.543z"/>
			<path fill="#231F20" d="M274.697,222.405c-5.979-1.312-11.297-3.912-15.805-7.726c-10.594-8.961-19.68-24.59-13.413-41.582
				c3.644-9.876,10.819-15.705,21.938-17.818c6.608-1.256,13.52-1.031,19.617-0.834c2.141,0.069,4.163,0.135,5.978,0.126
				c8.241-0.037,16.101,0.362,23.36,1.187c1.415,0.161,2.612,1.443,3.027,3.24c1.516,6.572,1.405,11.529-0.337,15.156
				c-0.822,1.711-1.994,3.024-3.407,3.847c0.012,0.894-0.013,1.721-0.032,2.395c-0.095,3.161-0.395,6.445-0.492,7.525l-0.01,0.109
				c-0.816,8.991-3.822,17.862-8.246,24.337c-3.884,5.683-9.374,9.234-16.319,10.553
				C285.815,223.82,280.332,223.643,274.697,222.405z M312.372,169.756 M308.485,164.36c-6.359-0.625-8.342-0.624-15.45-0.591
				c-1.912,0.008-3.98-0.059-6.172-0.129c-5.824-0.189-12.426-0.403-18.457,0.743c-8.787,1.669-14.086,5.72-16.679,12.748
				c-5.503,14.922,8.124,27.443,10.911,29.801c3.711,3.14,8.151,5.292,13.197,6.4c4.939,1.085,9.688,1.251,13.732,0.483
				c5.295-1.005,9.382-3.567,12.148-7.616c3.482-5.097,5.852-12.12,6.501-19.267l0.011-0.116c0.535-5.867,0.501-8.551,0.434-9.63"/>
		</g>
	</g>
	<g>
		<polygon fill="#FFFFFF" points="364.068,182.512 372.443,190.61 365.751,213.114 369.433,214.935 374.938,212.201 
			382.043,214.714 386.247,218.892 387.726,218.296 397.084,225.871 404.752,230.563 407.031,239.583 398.912,265.53 
			391.471,270.938 388.141,277.414 381.343,280.893 377.418,294.097 371.181,290.956 366.16,284.496 357.283,287.514 
			332.691,277.809 332.582,273.15 331.007,269.523 321.894,252.316 320.513,240.144 312.205,224.627 314.969,217.584 
			322.729,213.338 330.995,214.974 331.764,222.128 341.445,227.289 352.036,184.375 		"/>
		
			<rect x="357.166" y="179.074" transform="matrix(0.9586 0.2848 -0.2848 0.9586 67.0645 -96.1364)" fill="#231F20" width="13.8" height="6.875"/>
		<polygon fill="#231F20" points="394.679,223.948 366.819,215.67 368.781,209.079 396.641,217.361 		"/>
		
			<rect x="327.349" y="280.911" transform="matrix(0.9586 0.2849 -0.2849 0.9586 95.2925 -86.3957)" fill="#231F20" width="34.52" height="6.87"/>
		
			<rect x="367.464" y="289.712" transform="matrix(0.9585 0.285 -0.285 0.9585 99.0763 -94.5035)" fill="#231F20" width="13.527" height="6.871"/>
		
			<rect x="319.152" y="210.863" transform="matrix(0.9586 0.2848 -0.2848 0.9586 74.5465 -83.9727)" fill="#231F20" width="13.626" height="6.872"/>
		
			<rect x="313.349" y="209.135" transform="matrix(-0.2849 0.9586 -0.9586 -0.2849 646.2155 -56.94)" fill="#231F20" width="61.996" height="6.874"/>
		
			<rect x="343.953" y="201.852" transform="matrix(-0.2849 0.9586 -0.9586 -0.2849 669.7239 -89.0555)" fill="#231F20" width="48.255" height="6.876"/>
		
			<rect x="374.075" y="221.497" transform="matrix(-0.2847 0.9586 -0.9586 -0.2847 708.7892 -78.9845)" fill="#231F20" width="19.572" height="6.878"/>
		
			<rect x="389.087" y="228.097" transform="matrix(-0.285 0.9585 -0.9585 -0.285 730.8124 -82.0645)" fill="#231F20" width="13.853" height="6.873"/>
		
			<rect x="387.014" y="248.557" transform="matrix(-0.2848 0.9586 -0.9586 -0.2848 760.9888 -63.7523)" fill="#231F20" width="34.523" height="6.877"/>
		<polygon fill="#231F20" points="372.408,274.753 380.271,248.307 386.858,250.266 379.001,276.714 		"/>
		
			<rect x="383.942" y="269.591" transform="matrix(-0.2851 0.9585 -0.9585 -0.2851 763.9822 -23.7531)" fill="#231F20" width="13.814" height="6.874"/>
		
			<rect x="352.867" y="255.22" transform="matrix(-0.2848 0.9586 -0.9586 -0.2848 719.0302 -19.1633)" fill="#231F20" width="27.594" height="6.874"/>
		
			<rect x="362.964" y="280.209" transform="matrix(-0.2852 0.9585 -0.9585 -0.2852 742.7726 13.3394)" fill="#231F20" width="6.897" height="6.874"/>
		<polygon fill="#231F20" points="375.1,289.827 379.001,276.711 385.585,278.67 381.69,291.785 		"/>
		
			<rect x="339.597" y="251.273" transform="matrix(-0.2848 0.9586 -0.9586 -0.2848 698.1935 -11.5164)" fill="#231F20" width="27.592" height="6.876"/>
		
			<rect x="306.326" y="217.746" transform="matrix(-0.2848 0.9586 -0.9586 -0.2848 614.4601 -16.0694)" fill="#231F20" width="13.797" height="6.875"/>
		
			<rect x="313.397" y="229.7" transform="matrix(-0.2853 0.9584 -0.9584 -0.2853 630.699 -4.0106)" fill="#231F20" width="6.896" height="6.874"/>
		
			<rect x="320.623" y="253.232" transform="matrix(-0.2849 0.9586 -0.9586 -0.2849 662.4359 19.1599)" fill="#231F20" width="6.896" height="6.874"/>
		<polygon fill="#231F20" points="324.42,267.567 326.384,260.953 332.971,262.916 331.007,269.523 		"/>
		<polygon fill="#231F20" points="329.04,276.143 331.007,269.523 337.598,271.486 335.632,278.095 		"/>
		
			<rect x="313.713" y="241.485" transform="matrix(-0.2849 0.9586 -0.9586 -0.2849 646.6005 7.4653)" fill="#231F20" width="13.605" height="6.872"/>
		
			<rect x="400.128" y="226.736" transform="matrix(-0.2846 0.9587 -0.9587 -0.2846 739.094 -91.2343)" fill="#231F20" width="6.925" height="6.875"/>
		
			<rect x="330.35" y="220.449" transform="matrix(-0.2851 0.9585 -0.9585 -0.2851 643.5712 -32.2505)" fill="#231F20" width="6.927" height="6.874"/>
	</g>
</g>
</svg>
