<?xml version="1.0" encoding="utf-8"?>
<!-- Generator: Adobe Illustrator 16.0.0, SVG Export Plug-In . SVG Version: 6.00 Build 0)  -->
<!DOCTYPE svg PUBLIC "-//W3C//DTD SVG 1.1//EN" "http://www.w3.org/Graphics/SVG/1.1/DTD/svg11.dtd">
<svg version="1.1" id="Layer_1" xmlns="http://www.w3.org/2000/svg" xmlns:xlink="http://www.w3.org/1999/xlink" x="0px" y="0px"
	 width="500px" height="500px" viewBox="0 0 500 500" enable-background="new 0 0 500 500" xml:space="preserve">
<g>
	<polygon fill="#E9C09B" points="313.762,172.679 387.539,157.049 388.51,165.396 309.931,183.487 	"/>
	<path fill="#E9C09B" d="M91.693,239.664c13.713-17.009,37.226-38.92,74.771-67.142l2.765,9.971c0,0-55.775,40.677-73.634,71.899"/>
	<polygon fill="#175680" points="242.955,293.846 162.764,290.415 166.396,480.978 173.257,480.328 170.952,331.77 232.764,326.516 
		235.102,480.081 243.697,480.045 	"/>
	<path fill="#231F20" d="M242.093,480.567c0,0,5.955,9.391,20.262,9.333l0.402,2.929c0,0-18.317,1.535-23.879-7.226l0.39,6.69
		l-6.096-0.606l1.858-12.136L242.093,480.567z"/>
	<path fill="#231F20" d="M165.79,480.729c0,0-5.883,9.433-20.193,9.484l-0.381,2.935c0,0,18.33,1.386,23.818-7.428l-0.34,6.712
		l6.104-0.651l-1.962-12.126L165.79,480.729z"/>
	<path fill="#D8D6CB" d="M241.298,202.847c-99.441,1.541,74.352-6.776,78.846-9.649l-6.908-27.608l-47.185,5.591l-17.529,0.074
		L241.298,202.847z"/>
	<g>
		<path fill="#E9C09B" d="M387.36,165.471c0.615,2.973,3.581,5.073,6.59,4.666l0.718-0.097c3.009-0.407,7.177,1.066,9.262,3.273
			l3.981,4.215c2.085,2.208,5.617,2.459,7.849,0.561c2.23-1.899,2.131-5.021-0.224-6.938l-5.323-4.335
			c-2.354-1.917-1.835-3.926,1.153-4.463l13.99-2.518c2.988-0.538,5.1-3.439,4.691-6.448l-0.021-0.151
			c-0.408-3.009-3.168-4.935-6.133-4.279l-13.881,3.066c-2.965,0.655-3.481-0.398-1.148-2.341l7.398-6.16
			c2.333-1.943,3.161-5.219,1.839-7.281c-1.322-2.062-4.358-2.216-6.747-0.343l-13.341,10.461c-2.389,1.874-4.495,0.927-4.681-2.104
			l-0.072-1.176c-0.186-3.031-2.818-5.391-5.851-5.245l-0.204,0.01c-3.032,0.146-5.01,2.698-4.395,5.671L387.36,165.471z"/>
	</g>
	<path fill="#D8D6CB" d="M150.742,169.23c0,0-19.552,18.063-38.621,40.252l22.175,16.12l23.482-25.151L150.742,169.23z"/>
	<polyline fill="#D8D6CB" points="214.298,316.42 245.681,315.591 255.188,172.537 150.742,169.23 160.757,319.152 201.486,316.644 
			"/>
	<polygon fill="#414142" points="160.297,314.075 246.418,311.034 245.222,318.888 161.329,325.609 	"/>
	<polygon fill="#6E6F71" points="186.929,310.687 187.552,324.419 214.335,322.253 214.279,309.89 	"/>
	<line fill="none" stroke="#BCBBB3" stroke-width="3.284" x1="202.6" y1="170.845" x2="203.159" y2="309.358"/>
	<path fill="#BCBBB3" d="M219.598,205.609c-0.014-2.569-2.104-4.646-4.678-4.632c-2.568,0.01-4.646,2.1-4.632,4.675
		c0.007,2.565,2.1,4.642,4.671,4.629C217.531,210.27,219.604,208.18,219.598,205.609z"/>
	<path fill="#BCBBB3" d="M220.091,224.234c-0.007-2.564-2.101-4.643-4.672-4.633c-2.572,0.007-4.643,2.101-4.636,4.668
		c0.01,2.571,2.104,4.652,4.675,4.636C218.027,228.898,220.105,226.802,220.091,224.234z"/>
	<path fill="#BCBBB3" d="M220.178,244.978c-0.01-2.571-2.099-4.645-4.675-4.635c-2.567,0.006-4.646,2.103-4.632,4.672
		c0.011,2.571,2.1,4.645,4.667,4.639C218.117,249.642,220.185,247.549,220.178,244.978z"/>
	<path fill="#BCBBB3" d="M220.253,262.759c-0.014-2.572-2.103-4.653-4.674-4.642c-2.579,0.009-4.646,2.105-4.636,4.679
		c0.01,2.571,2.101,4.638,4.671,4.636C218.186,267.413,220.264,265.316,220.253,262.759z"/>
	<path fill="#BCBBB3" d="M221.608,284.765c-0.011-2.567-2.104-4.648-4.672-4.631c-2.576,0.011-4.646,2.099-4.639,4.664
		c0.014,2.572,2.106,4.653,4.671,4.643C219.547,289.431,221.622,287.335,221.608,284.765z"/>
	<line fill="none" stroke="#BCBBB3" stroke-width="1.642" x1="163.901" y1="224.654" x2="195.079" y2="224.523"/>
	<path fill="#EAC19C" d="M110.091,151.036c7.082,39.203,49.231,67.187,105.891,55.114c56.668-12.065,79.162-48.248,73.295-87.653
		c-5.853-39.396-37.837-67.091-94.507-55.025C138.098,75.54,101.216,101.907,110.091,151.036z"/>
	<path fill="#EAC19C" d="M106.594,87.938c4.948,29.751,44.791,46.946,88.98,38.417c44.188-8.525,75.998-39.546,71.051-69.291
		c-4.952-29.742-43.372-58.688-87.565-50.161C134.871,15.423,101.642,58.206,106.594,87.938z"/>
	<path fill="#EAC19C" d="M257.218,75.743c0.864,5.828,6.83,9.421,13.323,8.036c6.5-1.38,11.062-7.221,10.202-13.04
		c-0.873-5.818-6.837-9.422-13.34-8.041C260.911,64.087,256.343,69.922,257.218,75.743z"/>
	<path fill="#EAC19C" d="M88.996,111.629c1.269,8.483,9.962,13.723,19.418,11.71c9.47-2.022,16.119-10.528,14.853-19.007
		c-1.255-8.481-9.952-13.725-19.428-11.71C94.386,94.638,87.734,103.144,88.996,111.629z"/>
	<path fill="#CE9E77" d="M109.081,104.082c0,0-15.589-7.24-16.226,11.811c0,0,3.823-11.383,8.287-8.89c0,0-4.959,7.93-2.401,12.789
		C98.74,119.792,101.55,105.683,109.081,104.082z"/>
	<path fill="#CE9E77" d="M266.681,72.514c0,0,6.263-10.201,12.009-0.308c0,0-5.269-4.51-6.947-1.371c0,0,4.886,2.218,4.901,5.85
		C276.644,76.686,271.15,70.308,266.681,72.514z"/>
	<path fill="#FFFFFF" d="M196.004,82.267c0.443,2.916,7.677,3.817,16.164,2.004c8.49-1.81,15.022-5.631,14.593-8.556
		c-0.44-2.91-7.674-3.811-16.164-1.998C202.107,75.522,195.574,79.351,196.004,82.267z"/>
	<path fill="#FFFFFF" d="M171.934,87.073c0.709,4.8,8.169,7.232,16.66,5.418c8.504-1.805,14.806-7.164,14.087-11.972
		c-0.715-4.801-8.18-7.219-16.667-5.414C177.526,76.919,171.214,82.275,171.934,87.073z"/>
	<path fill="#46160D" d="M201.028,77.423c0.249,1.683,1.324,3.248,2.942,2.823c1.392-0.361,2.334-1.903,2.086-3.582
		c-0.252-1.672-1.581-2.799-2.987-2.5c-0.093,0.024-0.201,0.045-0.294,0.083"/>
	<path fill="#46160D" d="M194.394,79.516c0.321,2.177,2.057,3.633,3.863,3.247c1.822-0.385,3.03-2.466,2.709-4.65
		c-0.328-2.178-2.06-3.633-3.877-3.251C195.279,75.241,194.066,77.328,194.394,79.516z"/>
	<path fill="#553F37" d="M230.835,63.608c0,0-17.541-19.179-30.613,0.132C200.222,63.74,221.701,55.787,230.835,63.608z"/>
	<path fill="#553F37" d="M192.736,59.701c0,0-23.914-28.35-33.504,8.071C159.232,67.772,171.485,43.002,192.736,59.701z"/>
	<path fill="#EAC19C" d="M226.376,79.712l-21.26,4.151c0,0-4.747,1.198-3.444,2.773C201.672,86.637,219.623,85.039,226.376,79.712z"
		/>
	<path fill="#CE9E77" d="M255.785,79.004c0,0-27.044-6.182-54.76,6.383C201.025,85.387,243.023,75.609,255.785,79.004z"/>
	<path fill="#EAC19C" d="M204.85,86.57c0,0-14.591-6.292-37.046,1.265l2.336,9.5l28.527-5.52L204.85,86.57z"/>
	<path fill="#CE9E77" d="M201.406,85.395c0,0-42.289-6.262-59.429,9.05C141.977,94.445,187.335,80.895,201.406,85.395z"/>
	<path fill="#FFFFFF" d="M201.339,77.402c0.068,0.471,0.446,0.777,0.828,0.703c0.391-0.097,0.654-0.542,0.585-1.009
		c-0.065-0.471-0.441-0.788-0.835-0.701C201.532,76.476,201.268,76.928,201.339,77.402z"/>
	<path fill="#FFFFFF" d="M198.577,77.723c0.1,0.673,0.635,1.116,1.19,0.999c0.555-0.121,0.93-0.75,0.831-1.429
		c-0.096-0.669-0.625-1.112-1.187-0.994C198.852,76.421,198.484,77.053,198.577,77.723z"/>
	<path fill="#CE9E77" d="M229.448,74.973c0,0-19.817-21.687-28.561,2.535C200.887,77.508,220.916,69.71,229.448,74.973z"/>
	<path fill="#CE9E77" d="M201.122,77.561c0,0-11.003-25.961-32.659,1.297C168.463,78.858,193.314,73.763,201.122,77.561z"/>
	<path fill="#EAC19C" d="M238.989,162.923"/>
	<path opacity="0.31" fill="#D09F78" d="M117.929,115.312c0,0-20.743-62.503,32.305-92.622c0,0,41.132,38.054,70.304-6.93
		c0,0,42.506,26.518,46.866,46.938c0,0-3.561-59.233-82.159-56.459c-57.589,2.032-86.121,69.353-77.934,85.853l2.895,31.004
		c0,0-17.884,89.109,95.052,84.906c0,0,99.118-3.729,82.683-96.152c0,0-3.399-16.6-14.515-28.737c0,0,2.256,10.512-3.277,12.197
		C270.148,95.31,188.829,118.347,117.929,115.312z"/>
	<path fill="#EAC19C" d="M117.459,134.846c0,0,16.184-23.75,39.902-12.748c0,0,60.705,7.898,98.352-13.713
		c0,0,7.458-16.446,14.436-13.076c6.987,3.371,2.52-1.792,2.52-1.792s12.745,39.902,0.973,55.488c0,0-5.785,34.059-55.355,34.262
		c0,0-84.274,18.098-86.688-29.246L117.459,134.846z"/>
	<g>
		<path fill="#FFFFFF" d="M135.958,127.434c0,0,63.02,19.648,131.875-17.378l2.245,24.456c0,0-15.59,24.339-65.146,28.782
			c-49.536,4.439-2.129,0.055-2.129,0.055s-58.628,3.781-64.184-6.629L135.958,127.434z"/>
		<path fill="none" stroke="#A58060" stroke-width="2.343" d="M135.958,127.434c0,0,67.199,19.716,131.875-17.378l4.117,21.822
			c0,0-3.206,22.796-69.147,31.47c-65.939,8.697-64.849-11.321-64.849-11.321L135.958,127.434z"/>
		<path fill="#A58060" d="M123.097,139.269c0,0,3.089-24.083,31.134-17.339C154.23,121.93,133.426,122.58,123.097,139.269z"/>
		<path fill="#A58060" d="M247.635,104.271c0,0,20.001-13.746,33.676,11.634C281.311,115.906,266.955,100.851,247.635,104.271z"/>
		<path fill="#A58060" d="M189.177,175.817c0,0,31.129-6.882,46.31-2.619l-45.078,6.634L189.177,175.817z"/>
	</g>
	<path fill="none" stroke="#C2C1C1" stroke-width="1.642" d="M140.677,144.079c0,0,77.262,14.844,126.9-20.714"/>
	<path fill="#D09F78" d="M182.869,99.052c0,0,22.214,15.489,36.278-4.297C219.147,94.755,203.2,107.28,182.869,99.052z"/>
	<g>
		<g>
			<path fill="#3B2416" d="M107.7,346.477c0,0,61.051-14.821,51.575,38.624c0,0-5.238,20.609,9.415,33
				c14.655,12.378,30.459,66.137-36.81,72.277c-67.258,6.128-70.095-33.07-64.695-52.391c5.384-19.323,11.638-30.175,4.986-43.094
				c-6.645-12.919-7.078-40.848,25.143-46.268L107.7,346.477z"/>
			<path fill="#F2F2F2" d="M135.468,405.023c1.799-9.283-4.284-18.275-13.588-20.061c-9.287-1.8-18.278,4.276-20.064,13.567
				c-1.801,9.304,4.29,18.296,13.574,20.089C124.686,420.418,133.679,414.322,135.468,405.023z"/>
			<polygon fill="#3B2416" points="95.614,238.994 105.864,347.357 122.42,345.574 110.73,238.168 			"/>
			<polygon fill="#3B2416" points="84.345,194.01 92.341,240.849 112.974,239.436 112.662,191.575 			"/>
			<g>
				<path fill="#3B2416" d="M122.924,200.681c0.52,3-0.415,5.664-2.082,5.945c-1.663,0.291-3.431-1.912-3.957-4.912
					c-0.507-2.995,0.418-5.655,2.089-5.942C120.639,195.486,122.408,197.682,122.924,200.681z"/>
				<polygon fill="#3B2416" points="119.455,203.003 109.533,204.71 109.016,201.759 118.952,200.053 				"/>
			</g>
			<g>
				<path fill="#3B2416" d="M123.123,215.393c-0.049,2.854-1.377,5.147-2.964,5.117c-1.59-0.029-2.833-2.368-2.78-5.228
					c0.046-2.851,1.378-5.145,2.962-5.113C121.936,210.201,123.183,212.537,123.123,215.393z"/>
				<polygon fill="#3B2416" points="119.518,216.923 110.07,216.75 110.124,213.941 119.574,214.115 				"/>
			</g>
			<g>
				<path fill="#3B2416" d="M122.562,227.575c0.19,2.676-0.856,4.931-2.343,5.038c-1.486,0.102-2.841-1.976-3.039-4.651
					c-0.19-2.672,0.86-4.931,2.343-5.028C121.012,222.826,122.371,224.9,122.562,227.575z"/>
				<polygon fill="#3B2416" points="119.324,229.309 110.48,229.949 110.291,227.317 119.14,226.69 				"/>
			</g>
			<g>
				<path fill="#3B2416" d="M81.414,231.985c-0.683-2.595-0.061-4.996,1.373-5.384c1.447-0.378,3.159,1.423,3.844,4.015
					c0.672,2.594,0.057,4.999-1.375,5.373C83.813,236.365,82.089,234.576,81.414,231.985z"/>
				<polygon fill="#3B2416" points="84.276,229.689 92.85,227.442 93.522,229.985 84.948,232.228 				"/>
			</g>
			<g>
				<path fill="#3B2416" d="M79.997,220.062c-0.212-2.673,0.837-4.932,2.319-5.047c1.483-0.107,2.855,1.964,3.055,4.639
					c0.202,2.67-0.835,4.925-2.315,5.041C81.57,224.802,80.201,222.731,79.997,220.062z"/>
				<polygon fill="#3B2416" points="83.232,218.309 92.066,217.637 92.27,220.269 83.425,220.94 				"/>
			</g>
			<g>
				<path fill="#3B2416" d="M77.392,206.255c-0.204-2.668,0.833-4.928,2.319-5.043c1.48-0.107,2.849,1.964,3.06,4.637
					c0.197,2.668-0.833,4.925-2.323,5.039C78.972,211.004,77.596,208.928,77.392,206.255z"/>
				
					<rect x="80.706" y="204.168" transform="matrix(-0.9971 0.076 -0.076 -0.9971 185.6536 403.9089)" fill="#3B2416" width="8.875" height="2.636"/>
			</g>
			<polygon fill="#F2F2F2" points="100.831,438.801 145.875,432.253 148.243,444.35 102.678,450.796 			"/>
			<polygon fill="#F2F2F2" points="124.698,445.04 118.398,444.599 97.744,241.026 99.106,240.883 119.647,443.312 123.166,443.556 
				102.745,240.578 104.11,240.446 			"/>
			<polygon fill="#F2F2F2" points="130.116,441.38 106.4,239.89 107.761,239.726 131.477,441.209 			"/>
		</g>
		<polygon fill="#F2F2F2" points="90.975,201.239 94.818,200.865 98.717,236.235 94.874,236.613 		"/>
		<polygon fill="#F2F2F2" points="101.75,200.795 110.252,199.951 110.694,235.465 105.193,235.594 		"/>
	</g>
	<path fill="#E9C09B" d="M95.595,254.392c-10.851,18.96-7.704,34.42,30.439,35.167l1.877,8.609c0,0-88.015,5.729-36.218-58.504"/>
	<g>
		<path fill="#E9C09B" d="M119.408,294.814c-0.543,2.987,1.42,6.044,4.363,6.791l0.719,0.184c2.942,0.747,6.254,3.674,7.358,6.502
			l2.106,5.391c1.104,2.828,4.286,4.384,7.069,3.457s3.864-3.862,2.401-6.522l-3.297-5.997c-1.463-2.66-0.228-4.328,2.744-3.707
			l13.889,2.903c2.972,0.621,6.019-1.277,6.771-4.219l0.033-0.128c0.751-2.941-1.083-5.763-4.077-6.268l-14.021-2.368
			c-2.994-0.505-3.078-1.678-0.187-2.605l9.156-2.938c2.891-0.928,4.884-3.657,4.43-6.065c-0.454-2.408-3.213-3.689-6.13-2.847
			l-16.298,4.707c-2.917,0.843-4.513-0.822-3.545-3.701l0.377-1.123c0.967-2.879-0.587-6.052-3.454-7.053l-0.198-0.069
			c-2.867-1.001-5.656,0.625-6.199,3.612L119.408,294.814z"/>
	</g>
	<path opacity="0.15" fill="#221F1F" d="M257.439,489.678c-107.926,0.436-195.42,1.952-195.415,3.389
		c0.005,1.442,87.508,2.252,195.437,1.814c107.932-0.438,195.433-1.953,195.431-3.396
		C452.884,490.05,365.371,489.239,257.439,489.678z"/>
</g>
</svg>
