<?xml version="1.0" encoding="utf-8"?>
<!-- Generator: Adobe Illustrator 16.0.0, SVG Export Plug-In . SVG Version: 6.00 Build 0)  -->
<!DOCTYPE svg PUBLIC "-//W3C//DTD SVG 1.1//EN" "http://www.w3.org/Graphics/SVG/1.1/DTD/svg11.dtd">
<svg version="1.1" id="Layer_1" xmlns="http://www.w3.org/2000/svg" xmlns:xlink="http://www.w3.org/1999/xlink" x="0px" y="0px"
	 width="480px" height="500px" viewBox="0 0 480 500" enable-background="new 0 0 480 500" xml:space="preserve">
<g>
	<polygon fill="#E9C09B" points="298.988,172.097 372.332,156.56 373.295,164.857 295.179,182.841 	"/>
	<path fill="#E9C09B" d="M78.227,238.688c13.632-16.91,37.007-38.691,74.332-66.747l2.749,9.912c0,0-55.447,40.438-73.201,71.475"/>
	<polygon fill="#16557F" points="228.598,292.55 148.879,289.141 152.49,478.582 159.31,477.936 157.019,330.251 218.466,325.028 
		220.791,477.689 229.336,477.653 	"/>
	<path fill="#231F20" d="M227.74,478.174c0,0,5.92,9.336,20.144,9.276l0.399,2.913c0,0-18.21,1.525-23.738-7.184l0.388,6.65
		l-6.06-0.602l1.846-12.064L227.74,478.174z"/>
	<path fill="#231F20" d="M151.887,478.334c0,0-5.848,9.376-20.075,9.428l-0.378,2.917c0,0,18.222,1.378,23.678-7.383l-0.338,6.672
		l6.067-0.648l-1.951-12.054L151.887,478.334z"/>
	<path fill="#D7D6CB" d="M226.951,202.087c-98.856,1.532,73.913-6.736,78.381-9.591l-6.867-27.446l-46.906,5.557l-17.427,0.074
		L226.951,202.087z"/>
	<g>
		<path fill="#E9C09B" d="M372.146,164.9c0.616,2.973,3.582,5.073,6.591,4.666l0.648-0.088c3.009-0.407,7.177,1.066,9.262,3.273
			l3.914,4.143c2.085,2.208,5.606,2.469,7.824,0.581c2.218-1.888,2.107-5.001-0.247-6.918l-5.242-4.269
			c-2.354-1.917-1.835-3.926,1.153-4.463l13.845-2.491c2.988-0.538,5.1-3.439,4.69-6.448l-0.011-0.086
			c-0.409-3.009-3.169-4.935-6.134-4.279l-13.734,3.034c-2.965,0.655-3.481-0.398-1.148-2.341l7.304-6.082
			c2.333-1.943,3.167-5.209,1.854-7.259s-4.344-2.194-6.732-0.32l-13.212,10.359c-2.389,1.874-4.495,0.927-4.681-2.104l-0.067-1.104
			c-0.186-3.031-2.818-5.391-5.851-5.245l-0.139,0.007c-3.032,0.146-5.01,2.698-4.395,5.671L372.146,164.9z"/>
	</g>
	<path fill="#D7D6CB" d="M136.928,168.669c0,0-19.438,17.957-38.394,40.015l22.045,16.025l23.344-25.002L136.928,168.669z"/>
	<polyline fill="#D7D6CB" points="200.109,314.992 231.308,314.168 240.758,171.956 136.928,168.669 146.884,317.709 
		187.373,315.214 	"/>
	<polygon fill="#404041" points="146.427,312.661 232.04,309.638 230.853,317.444 147.452,324.128 	"/>
	<polygon fill="#6D6E70" points="172.902,309.292 173.521,322.943 200.146,320.79 200.091,308.5 	"/>
	<line fill="none" stroke="#BCBBB3" stroke-width="3.284" x1="188.48" y1="170.274" x2="189.036" y2="307.973"/>
	<path fill="#BCBBB3" d="M205.38,204.833c-0.015-2.554-2.092-4.619-4.652-4.605c-2.553,0.01-4.618,2.087-4.604,4.648
		c0.007,2.549,2.086,4.615,4.644,4.601C203.323,209.466,205.386,207.389,205.38,204.833z"/>
	<path fill="#BCBBB3" d="M205.869,223.349c-0.007-2.55-2.089-4.616-4.645-4.605c-2.556,0.007-4.615,2.088-4.608,4.641
		c0.009,2.556,2.091,4.625,4.646,4.609C203.818,227.986,205.883,225.902,205.869,223.349z"/>
	<path fill="#BCBBB3" d="M205.955,243.97c-0.01-2.556-2.087-4.618-4.647-4.608c-2.552,0.006-4.619,2.09-4.605,4.644
		c0.011,2.557,2.087,4.619,4.64,4.612C203.906,248.608,205.962,246.527,205.955,243.97z"/>
	<path fill="#BCBBB3" d="M206.029,261.646c-0.014-2.557-2.091-4.626-4.647-4.614c-2.562,0.008-4.618,2.093-4.608,4.651
		c0.011,2.556,2.089,4.611,4.644,4.608C203.976,266.273,206.04,264.189,206.029,261.646z"/>
	<path fill="#BCBBB3" d="M207.377,283.521c-0.01-2.551-2.091-4.62-4.645-4.603c-2.56,0.01-4.619,2.087-4.612,4.638
		c0.014,2.557,2.094,4.625,4.643,4.614C205.328,288.162,207.391,286.078,207.377,283.521z"/>
	<line fill="none" stroke="#BCBBB3" stroke-width="1.642" x1="150.009" y1="223.767" x2="181.004" y2="223.635"/>
	<path fill="#EBC19C" d="M96.516,150.582c7.041,38.972,48.941,66.791,105.268,54.789c56.335-11.994,78.694-47.964,72.865-87.138
		c-5.818-39.163-37.616-66.696-93.952-54.701C124.358,75.529,87.694,101.741,96.516,150.582z"/>
	<path fill="#EBC19C" d="M93.04,87.854c4.919,29.577,44.526,46.669,88.457,38.191c43.929-8.475,75.551-39.313,70.632-68.883
		c-4.922-29.567-43.117-58.343-87.049-49.866C121.15,15.767,88.117,58.298,93.04,87.854z"/>
	<path fill="#EBC19C" d="M242.777,75.732c0.858,5.793,6.789,9.365,13.244,7.988c6.462-1.372,10.998-7.178,10.143-12.963
		c-0.868-5.784-6.797-9.366-13.262-7.993C246.449,64.144,241.907,69.944,242.777,75.732z"/>
	<path fill="#EBC19C" d="M75.545,111.407c1.262,8.433,9.903,13.642,19.304,11.64c9.415-2.009,16.024-10.466,14.765-18.895
		c-1.249-8.432-9.894-13.644-19.313-11.642C80.903,94.516,74.291,102.971,75.545,111.407z"/>
	<path fill="#CE9D77" d="M95.512,103.904c0,0-15.498-7.198-16.13,11.741c0,0,3.8-11.315,8.238-8.837c0,0-4.93,7.882-2.387,12.713
		C85.232,119.52,88.025,105.495,95.512,103.904z"/>
	<path fill="#CE9D77" d="M252.184,72.521c0,0,6.227-10.142,11.938-0.305c0,0-5.237-4.484-6.907-1.363c0,0,4.856,2.205,4.873,5.816
		C262.088,76.669,256.627,70.328,252.184,72.521z"/>
	<path fill="#FFFFFF" d="M181.923,82.217c0.44,2.898,7.631,3.793,16.069,1.991c8.44-1.799,14.934-5.598,14.507-8.506
		c-0.438-2.892-7.629-3.787-16.069-1.985C187.991,75.513,181.496,79.318,181.923,82.217z"/>
	<path fill="#FFFFFF" d="M157.995,86.994c0.705,4.772,8.121,7.19,16.562,5.387c8.455-1.794,14.719-7.122,14.004-11.901
		c-0.711-4.773-8.132-7.177-16.569-5.381C163.555,76.901,157.28,82.225,157.995,86.994z"/>
	<path fill="#490E00" d="M186.917,77.401c0.247,1.674,1.316,3.23,2.925,2.807c1.383-0.359,2.32-1.892,2.074-3.561
		c-0.25-1.663-1.571-2.783-2.969-2.485c-0.093,0.024-0.199,0.046-0.293,0.083"/>
	<path fill="#490E00" d="M180.323,79.481c0.319,2.165,2.044,3.612,3.841,3.229c1.81-0.383,3.012-2.452,2.693-4.623
		c-0.327-2.165-2.048-3.611-3.855-3.232C181.203,75.232,179.997,77.307,180.323,79.481z"/>
	<path fill="#543E36" d="M216.549,63.669c0,0-17.438-19.066-30.432,0.13C186.117,63.799,207.468,55.893,216.549,63.669z"/>
	<path fill="#543E36" d="M178.675,59.784c0,0-23.773-28.183-33.308,8.023C145.367,67.807,157.549,43.183,178.675,59.784z"/>
	<path fill="#EBC19C" d="M212.117,79.677l-21.135,4.127c0,0-4.719,1.192-3.424,2.757C187.559,86.561,205.403,84.973,212.117,79.677z
		"/>
	<path fill="#CE9D77" d="M241.353,78.973c0,0-26.885-6.146-54.438,6.346C186.915,85.319,228.667,75.598,241.353,78.973z"/>
	<path fill="#EBC19C" d="M190.717,86.496c0,0-14.505-6.255-36.828,1.256l2.322,9.445l28.359-5.488L190.717,86.496z"/>
	<path fill="#CE9D77" d="M187.293,85.327c0,0-42.04-6.225-59.079,8.997C128.214,94.324,173.306,80.853,187.293,85.327z"/>
	<path fill="#FFFFFF" d="M187.227,77.381c0.068,0.468,0.444,0.773,0.824,0.699c0.388-0.097,0.65-0.54,0.582-1.003
		c-0.065-0.468-0.439-0.783-0.831-0.696C187.418,76.46,187.156,76.91,187.227,77.381z"/>
	<path fill="#FFFFFF" d="M184.481,77.7c0.099,0.669,0.631,1.109,1.183,0.993c0.553-0.119,0.924-0.745,0.826-1.42
		c-0.096-0.665-0.621-1.105-1.18-0.988C184.754,76.406,184.39,77.034,184.481,77.7z"/>
	<path fill="#CE9D77" d="M215.17,74.966c0,0-19.7-21.558-28.393,2.521C186.777,77.486,206.689,69.734,215.17,74.966z"/>
	<path fill="#CE9D77" d="M187.011,77.539c0,0-10.938-25.808-32.467,1.29C154.544,78.829,179.249,73.763,187.011,77.539z"/>
	<path fill="#EBC19C" d="M224.656,162.399"/>
	<path opacity="0.31" fill="#CF9E78" d="M104.308,115.068c0,0-20.621-62.136,32.115-92.077c0,0,40.89,37.831,69.889-6.889
		c0,0,42.258,26.362,46.591,46.661c0,0-3.54-58.885-81.675-56.127c-57.25,2.019-85.614,68.944-77.475,85.348l2.877,30.821
		c0,0-17.78,88.585,94.493,84.407c0,0,98.534-3.707,82.196-95.586c0,0-3.38-16.502-14.429-28.567c0,0,2.242,10.45-3.259,12.125
		C255.631,95.184,174.79,118.085,104.308,115.068z"/>
	<path fill="#EBC19C" d="M103.841,134.486c0,0,16.089-23.61,39.667-12.672c0,0,60.346,7.851,97.773-13.632
		c0,0,7.414-16.349,14.35-12.999c6.947,3.351,2.505-1.782,2.505-1.782s12.67,39.667,0.968,55.161c0,0-5.752,33.858-55.029,34.061
		c0,0-83.779,17.992-86.178-29.074L103.841,134.486z"/>
	<g>
		<path fill="#FEFEFE" d="M122.23,127.119c0,0,62.649,19.533,131.099-17.276l2.232,24.312c0,0-15.498,24.196-64.762,28.613
			c-49.245,4.414-2.117,0.055-2.117,0.055s-58.283,3.759-63.806-6.591L122.23,127.119z"/>
		<path fill="none" stroke="#A57F5F" stroke-width="2.343" d="M122.23,127.119c0,0,66.803,19.6,131.099-17.276l4.094,21.693
			c0,0-3.187,22.662-68.74,31.286c-65.551,8.646-64.467-11.255-64.467-11.255L122.23,127.119z"/>
		<path fill="#A57F5F" d="M109.445,138.884c0,0,3.071-23.94,30.951-17.237C140.396,121.646,119.713,122.293,109.445,138.884z"/>
		<path fill="#A57F5F" d="M233.25,104.092c0,0,19.883-13.665,33.479,11.566C266.729,115.658,252.457,100.692,233.25,104.092z"/>
		<path fill="#A57F5F" d="M175.136,175.216c0,0,30.946-6.841,46.038-2.603l-44.812,6.595L175.136,175.216z"/>
	</g>
	<path fill="none" stroke="#C1C1C1" stroke-width="1.642" d="M126.922,143.665c0,0,76.808,14.757,126.152-20.592"/>
	<path fill="#CF9E78" d="M168.866,98.903c0,0,22.083,15.398,36.063-4.271C204.93,94.632,189.077,107.083,168.866,98.903z"/>
	<g>
		<g>
			<path fill="#3B2314" d="M94.14,344.872c0,0,60.692-14.735,51.27,38.397c0,0-5.207,20.487,9.361,32.806
				c14.568,12.304,30.28,65.746-36.594,71.851c-66.863,6.093-69.682-32.876-64.314-52.082c5.352-19.21,11.569-29.997,4.957-42.84
				c-6.605-12.843-7.036-40.608,24.995-45.995L94.14,344.872z"/>
			<path fill="#F1F1F2" d="M121.744,403.073c1.788-9.228-4.258-18.166-13.508-19.941c-9.232-1.789-18.17,4.252-19.946,13.486
				c-1.79,9.25,4.264,18.188,13.494,19.972C111.025,418.379,119.965,412.316,121.744,403.073z"/>
			<polygon fill="#3B2314" points="82.125,238.021 92.315,345.747 108.773,343.975 97.151,237.201 			"/>
			<polygon fill="#3B2314" points="70.921,193.303 78.871,239.866 99.382,238.461 99.072,190.882 			"/>
			<g>
				<path fill="#3B2314" d="M109.273,199.934c0.518,2.982-0.412,5.63-2.07,5.911c-1.652,0.289-3.41-1.901-3.933-4.883
					c-0.504-2.978,0.416-5.623,2.077-5.907C107.002,194.77,108.761,196.953,109.273,199.934z"/>
				<polygon fill="#3B2314" points="105.825,202.243 95.961,203.94 95.447,201.006 105.325,199.31 				"/>
			</g>
			<g>
				<path fill="#3B2314" d="M109.471,214.56c-0.048,2.837-1.369,5.118-2.946,5.086c-1.581-0.028-2.816-2.354-2.764-5.196
					c0.045-2.834,1.37-5.115,2.944-5.083C108.291,209.398,109.531,211.72,109.471,214.56z"/>
				<polygon fill="#3B2314" points="105.887,216.081 96.496,215.909 96.549,213.116 105.943,213.289 				"/>
			</g>
			<g>
				<path fill="#3B2314" d="M108.913,226.671c0.189,2.659-0.852,4.901-2.33,5.008c-1.478,0.1-2.824-1.965-3.021-4.625
					c-0.189-2.656,0.855-4.901,2.33-4.998C107.373,221.949,108.724,224.011,108.913,226.671z"/>
				<polygon fill="#3B2314" points="105.695,228.393 96.903,229.029 96.714,226.414 105.512,225.791 				"/>
			</g>
			<g>
				<path fill="#3B2314" d="M68.008,231.054c-0.679-2.58-0.06-4.966,1.364-5.352c1.438-0.376,3.141,1.414,3.822,3.991
					c0.668,2.579,0.057,4.97-1.367,5.342C70.393,235.408,68.679,233.629,68.008,231.054z"/>
				<polygon fill="#3B2314" points="70.853,228.771 79.376,226.538 80.044,229.065 71.521,231.295 				"/>
			</g>
			<g>
				<path fill="#3B2314" d="M66.6,219.201c-0.21-2.658,0.832-4.902,2.306-5.017c1.474-0.107,2.839,1.953,3.038,4.612
					c0.2,2.654-0.831,4.896-2.302,5.01C68.163,223.914,66.802,221.854,66.6,219.201z"/>
				<polygon fill="#3B2314" points="69.815,217.458 78.598,216.791 78.8,219.407 70.008,220.074 				"/>
			</g>
			<g>
				<path fill="#3B2314" d="M64.01,205.476c-0.203-2.653,0.828-4.899,2.306-5.013c1.471-0.107,2.832,1.952,3.042,4.61
					c0.196,2.652-0.828,4.896-2.309,5.009C65.58,210.196,64.213,208.132,64.01,205.476z"/>
				
					<rect x="67.304" y="203.401" transform="matrix(-0.9971 0.0759 -0.0759 -0.9971 158.7677 403.3847)" fill="#3B2314" width="8.822" height="2.62"/>
			</g>
			<polygon fill="#F1F1F2" points="87.31,436.651 132.09,430.143 134.444,442.17 89.147,448.576 			"/>
			<polygon fill="#F1F1F2" points="111.037,442.855 104.774,442.417 84.242,240.042 85.597,239.899 106.016,441.138 
				109.514,441.379 89.213,239.597 90.571,239.465 			"/>
			<polygon fill="#F1F1F2" points="116.423,439.216 92.847,238.912 94.201,238.75 117.775,439.047 			"/>
		</g>
		<polygon fill="#F1F1F2" points="77.512,200.488 81.333,200.117 85.208,235.279 81.389,235.654 		"/>
		<polygon fill="#F1F1F2" points="88.224,200.047 96.676,199.209 97.116,234.514 91.646,234.643 		"/>
	</g>
	<path fill="#E9C09B" d="M82.105,253.328c-10.787,18.85-7.658,34.219,30.26,34.961l1.866,8.558c0,0-87.497,5.694-36.005-58.159"/>
	<g>
		<path fill="#E9C09B" d="M105.784,293.481c-0.543,2.987,1.42,6.044,4.363,6.792l0.652,0.165c2.942,0.748,6.254,3.674,7.358,6.503
			l2.07,5.299c1.104,2.829,4.272,4.389,7.04,3.467c2.767-0.923,3.834-3.854,2.372-6.515l-3.246-5.902
			c-1.463-2.661-0.228-4.329,2.744-3.708l13.743,2.873c2.972,0.621,6.019-1.277,6.77-4.219l0.017-0.064
			c0.751-2.941-1.083-5.763-4.077-6.268l-13.874-2.344c-2.994-0.505-3.078-1.678-0.187-2.605l9.041-2.899
			c2.891-0.928,4.887-3.646,4.435-6.04s-3.208-3.664-6.125-2.821l-16.139,4.661c-2.917,0.843-4.513-0.822-3.545-3.701l0.354-1.055
			c0.967-2.879-0.587-6.052-3.454-7.053l-0.135-0.048c-2.867-1.001-5.656,0.625-6.199,3.612L105.784,293.481z"/>
	</g>
	<path opacity="0.15" fill="#221F1F" d="M242.997,487.229c-107.291,0.435-194.27,1.942-194.264,3.37
		c0.005,1.433,86.993,2.239,194.286,1.804c107.297-0.435,194.283-1.941,194.281-3.375
		C437.291,487.6,350.294,486.795,242.997,487.229z"/>
</g>
</svg>
