<?xml version="1.0" encoding="utf-8"?>
<!-- Generator: Adobe Illustrator 16.0.0, SVG Export Plug-In . SVG Version: 6.00 Build 0)  -->
<!DOCTYPE svg PUBLIC "-//W3C//DTD SVG 1.1//EN" "http://www.w3.org/Graphics/SVG/1.1/DTD/svg11.dtd">
<svg version="1.1" id="Layer_1" xmlns="http://www.w3.org/2000/svg" xmlns:xlink="http://www.w3.org/1999/xlink" x="0px" y="0px"
	 width="480px" height="500px" viewBox="0 0 480 500" enable-background="new 0 0 480 500" xml:space="preserve">
<g>
	<path fill="#231F20" d="M336.811,386.075c-0.463,0-0.935-0.089-1.389-0.279c-122.725-51.3-209.384-116.365-210.246-117.016
		c-1.586-1.2-1.899-3.459-0.7-5.046c1.2-1.587,3.458-1.901,5.046-0.7c0.854,0.646,86.837,65.184,208.679,116.114
		c1.836,0.768,2.701,2.878,1.934,4.713C339.558,385.243,338.22,386.075,336.811,386.075z"/>
	<path fill="#231F20" d="M340.167,374.446c-68.477-28.624-125.559-61.62-161.388-84.26l-0.751-0.476
		c-1.5,5.899-5.443,10.903-10.654,13.843l1.704,1.077c36.485,23.077,94.619,56.708,164.378,85.867
		c1.069,0.447,2.198,0.674,3.355,0.674c3.519,0,6.67-2.098,8.027-5.345C346.688,381.402,344.592,376.297,340.167,374.446z"/>
	<path fill="#231F20" d="M338.201,379.148c-68.135-28.48-125.053-61.215-162.145-84.653c-0.232,0.471-0.475,0.938-0.741,1.393
		c-0.956,1.632-2.15,3.118-3.514,4.437c37.369,23.637,94.827,56.716,163.62,85.472c0.454,0.19,0.926,0.279,1.389,0.279
		c1.409,0,2.747-0.832,3.324-2.214C340.902,382.026,340.037,379.916,338.201,379.148z"/>
	<path fill="#E9C09B" d="M212.571,312.133c0.004-1.316,0.299-2.607,0.815-3.865c-3.393-0.705-6.455-1.959-8.95-3.602
		c-0.892,1.64-1.545,3.36-1.855,5.148c-0.972,5.613,1.489,10.948,7.314,15.858c6.342,5.346,16.849,10.215,31.227,14.474l4.106-6.277
		C223.535,327.443,212.547,320.131,212.571,312.133z"/>
	<path fill="#E9C09B" d="M312.535,312.133c-0.004-1.316-0.299-2.607-0.814-3.865c3.393-0.705,6.453-1.959,8.949-3.602
		c0.892,1.64,1.545,3.36,1.855,5.148c0.972,5.613-1.489,10.948-7.315,15.858c-6.342,5.346-16.848,10.215-31.227,14.474l-4.106-6.277
		C301.572,327.443,312.561,320.131,312.535,312.133z"/>
	<polygon fill="#414142" points="279.56,326.816 240.912,326.191 243.996,487.441 247.288,487.046 245.384,367.03 275.075,363.699 
		277.059,486.125 280.235,486.239 	"/>
	<polygon fill="#FFFFFF" stroke="#B0B0B0" stroke-width="2" stroke-miterlimit="10" points="236.27,359.9 233.315,271.343 
		289.948,271.086 283.678,357.318 	"/>
	<circle fill="#EA2327" cx="260.573" cy="316.675" r="21.92"/>
	<polygon fill="#231F20" points="336.113,372.74 353.79,380.15 345.511,396.217 326.399,387.262 	"/>
	<path fill="none" stroke="#231F20" stroke-width="3" stroke-miterlimit="10" d="M236.928,300.94c0,0,13.673,31.536,48.721,39.502"
		/>
	
		<ellipse transform="matrix(0.8014 0.5981 -0.5981 0.8014 212.016 -44.6472)" fill="#231F20" cx="173.248" cy="296.978" rx="4.94" ry="15.951"/>
	<path fill="#FFFFFF" stroke="#B0B0B0" stroke-width="2" stroke-miterlimit="10" d="M235.264,290.801l-1.853-6.744
		c-3.256,0.404-10.9,4.316-15.996,7.717c-5.417,3.613-11.983,9.134-14.233,15.724c3.537,0.388,6.813,1.361,9.593,2.766
		c2.138-10.42,21.023-18.961,23.169-19.59C235.931,290.677,235.679,290.748,235.264,290.801z"/>
	<path fill="#FFFFFF" stroke="#B0B0B0" stroke-width="2" stroke-miterlimit="10" d="M289.843,290.801l1.853-6.744
		c3.256,0.404,10.9,4.316,15.996,7.717c5.417,3.613,11.983,9.134,14.233,15.724c-3.538,0.388-6.813,1.361-9.594,2.766
		c-2.137-10.42-21.022-18.961-23.169-19.59C289.176,290.677,289.429,290.748,289.843,290.801z"/>
	<path fill="#09080A" d="M243.896,487.401c0,0-2.702,4.616-9.592,4.827l-0.139,1.423c0,0,8.838,0.419,11.365-3.886l-0.076,3.222
		l2.925-0.379l-1.1-5.814L243.896,487.401z"/>
	<path fill="#09080A" d="M280.613,486.194c0,0,3,4.423,9.887,4.212l0.231,1.41c0,0-8.806,0.974-11.598-3.172l0.281,3.225
		l-2.949-0.226l0.74-5.862L280.613,486.194z"/>
	<g>
		
			<radialGradient id="SVGID_1_" cx="2050.832" cy="4459.4648" r="85.3477" gradientTransform="matrix(1.9291 0 0 0.0671 -3695.9902 193.2913)" gradientUnits="userSpaceOnUse">
			<stop  offset="0" style="stop-color:#010101"/>
			<stop  offset="1" style="stop-color:#FFFFFF;stop-opacity:0"/>
		</radialGradient>
		<path opacity="0.29" fill="url(#SVGID_1_)" d="M424.898,492.521c0-3.165-73.711-5.728-164.629-5.728
			c-90.927,0-164.627,2.562-164.627,5.728c0,3.161,73.7,5.728,164.627,5.728C351.188,498.249,424.898,495.683,424.898,492.521z"/>
		
			<radialGradient id="SVGID_2_" cx="3871.5557" cy="4472.2461" r="85.3823" gradientTransform="matrix(1.2207 0 0 0.0671 -4475.8271 193.2913)" gradientUnits="userSpaceOnUse">
			<stop  offset="0" style="stop-color:#010101"/>
			<stop  offset="1" style="stop-color:#FFFFFF;stop-opacity:0"/>
		</radialGradient>
		<path opacity="0.29" fill="url(#SVGID_2_)" d="M354.362,493.378c0-3.163-46.644-5.73-104.185-5.73
			c-57.532,0-104.18,2.567-104.18,5.73c0,3.166,46.648,5.732,104.18,5.732C307.719,499.11,354.362,496.544,354.362,493.378z"/>
	</g>
	
		<ellipse transform="matrix(0.9883 -0.1523 0.1523 0.9883 -18.8264 37.7482)" fill="#694F2E" cx="236.928" cy="141.733" rx="92.723" ry="110.002"/>
	<path fill="#D09F78" d="M316.854,144.524c0,0,3.824-15.892,22.044-10.844c22.723,6.297-5.202,24.08-5.202,24.08
		s-8.786,5.738-1.572,12.779c7.218,7.045,8.538,10.035,5.26,12.213c-3.278,2.172-12.087,1.889-14.525-2.915
		C312.291,159.106,316.854,144.524,316.854,144.524z"/>
	<path fill="#EAC19C" d="M315.362,155.865c2.981-29.285-1.462-48.273-7.491-60.413c-13.542-29.571-49.33-46.255-86.146-38.121
		c-83.077,17.97-61.331,104.731-61.331,104.731l1.329,16.078l-1.133,36.817l4.8,2.195c-1.659,7.797-1.75,15.813-0.006,23.772
		c8.146,37.23,82.566,57.492,103.643,70.847c9.234,5.852,72.174-67.563,68.194-102.978
		C336.033,187.435,315.362,155.865,315.362,155.865z"/>
	<path fill="#D09F78" d="M230.147,187.399c0,0,21.965,30.286,34.198-5.431C264.346,181.968,251.866,201.235,230.147,187.399z"/>
	<g>
		<path opacity="0.3" fill="#D09F78" d="M189.178,144.585c0,0,35.567-3.984,42.943,10.097c0,0,0.445,26.11-49.649,8.185
			C182.472,162.867,177.92,151.484,189.178,144.585z"/>
		<path fill="none" stroke="#D09F78" stroke-width="1.5298" d="M190.375,143.732c0,0,33.639-1.006,39.75,8.008
			c0,0,6.328,9.177-4.446,13.6"/>
		<path fill="none" stroke="#D09F78" stroke-width="1.5298" d="M223.301,162.187c0,0,2.536,24.36-25.836,12.47"/>
		<path fill="none" stroke="#D09F78" stroke-width="1.5298" d="M223.515,159.095c0,0-2.936-23.74-27.184-4.766"/>
		<path fill="#FFFFFF" stroke="#D09F78" stroke-width="1.5298" d="M201.396,158.79c0.64-6.164,6.144-10.65,12.328-10.013
			c6.165,0.631,10.654,6.143,10.019,12.31c-0.633,6.167-6.15,10.662-12.324,10.026C205.25,170.481,200.765,164.962,201.396,158.79z"
			/>
		<path fill="#56341F" d="M223.224,161.158c0.081-2.073-1.522-3.811-3.595-3.894c-2.07-0.083-3.81,1.524-3.891,3.598
			c-0.082,2.067,1.524,3.812,3.589,3.896C221.4,164.841,223.142,163.225,223.224,161.158z"/>
	</g>
	<g>
		<path opacity="0.3" fill="#D09F78" d="M285.873,128.792c0,0-35.35,5.579-38.732,21.115c0,0,6.487,25.294,50.046-5.263
			C297.187,144.644,298.558,132.461,285.873,128.792z"/>
		<path fill="none" stroke="#D09F78" stroke-width="1.5298" d="M284.493,128.288c0,0-32.706,7.945-36.207,18.252
			c0,0-3.67,10.526,7.895,11.935"/>
		<path fill="none" stroke="#D09F78" stroke-width="1.5298" d="M257.635,154.804c0,0,4.006,24.163,28.215,5.184"/>
		<path fill="none" stroke="#D09F78" stroke-width="1.5298" d="M256.607,151.88c0,0-3.457-23.67,24.952-11.798"/>
		<path fill="#FFFFFF" stroke="#D09F78" stroke-width="1.5298" d="M277.854,145.727c-2.246-5.777-8.747-8.644-14.535-6.389
			c-5.783,2.244-8.647,8.742-6.402,14.525c2.241,5.779,8.756,8.651,14.54,6.402C277.235,158.02,280.097,151.514,277.854,145.727z"/>
		<path fill="#56341F" d="M257.436,153.792c-0.628-1.977,0.46-4.075,2.439-4.702c1.968-0.629,4.075,0.455,4.701,2.435
			c0.625,1.97-0.461,4.079-2.434,4.707C260.166,156.86,258.064,155.767,257.436,153.792z"/>
	</g>
	<path fill="#EAC19C" d="M165.373,170.422c0,0-9.643-17.476-29.467-5.64c-24.723,14.775,13.918,26.68,13.918,26.68
		s12.208,3.913,5.991,14.545c-6.223,10.629-6.812,14.578-2.238,16.083c4.559,1.497,14.84-1.687,16.165-8.135
		C175.475,186.118,165.373,170.422,165.373,170.422z"/>
	<g>
		<path fill="#D09F78" d="M164.41,189.62c0,0-14.784-35.462-18.328-7.831C146.083,181.789,151.775,166.482,164.41,189.62z"/>
		<path fill="#D09F78" d="M164.532,189.716c0,0-11.33-17.69-8.893,4.873C155.639,194.589,155.886,180.129,164.532,189.716z"/>
	</g>
	<path fill="#694F2E" d="M323.929,168.174c-3.743-5.506-5.444-12.429-10.595-16.797c5.783,13.966,14.216,28.366,16.898,43.35
		c4.226,23.592-16.435,46.524-34.066,59.154c-5.503,3.94-11.708,7.541-17.979,10.115c-26.565,10.903-63.816,8.938-85.834-11.262
		c-5.746-5.272-11.29-12.818-14.27-20.068c-6.834-16.631-4.888-33.75-6.207-51.184c-0.793-10.492-6.761-20.277-6.914-30.797
		l-4.567,11.377c5.76,12.821,6.704,28.155,6.382,39.386c-0.525,3.487-1.35,9.273-2.579,18.207
		c-1.776,12.873,1.858,30.148,7.109,41.95c5.908,13.274,19.69,23.853,34.42,29.065c22.362,7.915,55.388,31.13,77.979,24.979
		c20.218-5.514,36.009-45.239,46.588-62.09c16.092-25.635,9.988-61.416-6.341-85.351
		C323.945,168.197,323.938,168.186,323.929,168.174z M165.391,217.152c0,0,0.477-3.986,0.984-8.414
		C165.953,213.91,165.391,217.152,165.391,217.152z"/>
	<polygon fill="#694F2E" points="272.879,255.327 267.902,249.222 297.085,236.502 295.469,246.072 	"/>
	<path fill="#694F2E" d="M166.063,147.033l-4.729-13.197c0,0,21.084-17.719,53.371-15.626l1.138,14.794
		C215.844,133.004,197.646,120.228,166.063,147.033z"/>
	<path fill="#694F2E" d="M309.601,126.383l0.37-14.018c0,0-25.565-10.245-55.582,1.824l3.539,14.411
		C257.928,128.601,271.225,110.779,309.601,126.383z"/>
	<g>
		<g opacity="0.5">
			<path fill="#FFFFFF" d="M263.297,123.193c-10.247,2.166-16.429,12.219-13.736,22.341l2.892,10.874
				c2.692,10.122,13.352,17.013,23.687,15.313l31.705-5.215c10.335-1.7,17.057-11.483,14.938-21.741l-2.906-14.064
				c-2.119-10.257-12.238-16.878-22.485-14.712L263.297,123.193z"/>
		</g>
		<g opacity="0.5">
			<path fill="#FFFFFF" d="M172.322,140.343c-10.321,1.8-17.127,11.687-15.125,21.97l2.111,10.85
				c2.001,10.283,12.141,17.605,22.532,16.272l31.979-4.104c10.391-1.333,17.734-10.917,16.318-21.298l-1.926-14.117
				c-1.416-10.38-11.019-17.4-21.339-15.6L172.322,140.343z"/>
		</g>
		<path fill="#231F20" d="M223.53,187.729L223.53,187.729l-0.035,0.002l-50.369,6.466c-7.237,0.931-14.25-4.062-15.628-11.132
			l-5.699-29.311c-0.678-3.467,0.066-6.987,2.105-9.899c2.025-2.91,5.099-4.857,8.627-5.472l52.827-9.214
			c3.659-0.635,7.309,0.236,10.221,2.422c2.756,2.079,4.535,5.11,4.999,8.534l4.462,32.755
			C236.025,180.103,230.864,186.768,223.53,187.729L223.53,187.729z M216.924,136.24l-0.261,0.042l-52.831,9.217
			c-1.583,0.278-2.968,1.149-3.881,2.463c-0.916,1.311-1.252,2.891-0.951,4.457l5.705,29.301c0.649,3.319,4.057,5.747,7.454,5.314
			l50.368-6.47l0.51,3.583l-0.494-3.588c3.332-0.434,5.679-3.457,5.227-6.737l-4.466-32.752c-0.208-1.513-0.978-2.842-2.179-3.741
			C219.935,136.428,218.441,136.042,216.924,136.24L216.924,136.24z"/>
		<path fill="#231F20" d="M266.277,176.939L266.277,176.939c-6.808,0.417-13.245-4.167-14.971-10.661l-7.705-28.966
			c-0.914-3.445-0.403-6.978,1.439-9.953c1.841-2.98,4.793-5.027,8.295-5.768l52.296-11.054c7.368-1.559,14.479,3.263,15.945,10.346
			l6.704,32.438c0.716,3.476,0.007,6.979-1.993,9.86c-2.005,2.884-5.047,4.792-8.585,5.378l-50.034,8.226
			C267.203,176.859,266.748,176.907,266.277,176.939L266.277,176.939z M308.242,117.471c-0.294,0.016-0.595,0.057-0.891,0.12
			l-52.294,11.051c-1.569,0.329-2.886,1.245-3.712,2.57c-0.817,1.33-1.037,2.912-0.635,4.448l7.703,28.967
			c0.819,3.071,3.99,5.32,7.225,5.113l0,0c0.212-0.007,0.426-0.032,0.639-0.064l50.033-8.231c1.586-0.262,2.959-1.121,3.864-2.421
			c0.905-1.302,1.224-2.882,0.9-4.444l-6.703-32.432C313.785,119.302,311.151,117.291,308.242,117.471L308.242,117.471z"/>
		<path fill="#231F20" d="M227.542,154.28c0,0,7.989-24.311,23.113-4.241l0.36,8.113c0,0-13.971-13.574-21.46,5.228L227.542,154.28z
			"/>
	</g>
	<path fill="#694F2E" d="M157.031,93.794c0,0,27.534,25.949,84.328,17.572c0,0-14.783-2.97-17.676-8.22
		c0,0,45.323,10.822,84.188-7.694c0,0-15.37-76.623-113.476-39.483L157.031,93.794z"/>
	<g>
		<path fill="#FFFFFF" d="M220.926,230.82c0,0,46.752,0.851,86.225-37.991l6.381,16.188c0,0-5.774,19.641-38.588,32.496
			c-32.807,12.855-1.433,0.468-1.433,0.468s-39.124,14.201-44.966,8.222L220.926,230.82z"/>
		<path fill="none" stroke="#A47F5F" stroke-width="3.9092" d="M220.926,230.82c0,0,49.602,0.068,86.225-37.991l7.125,14.019
			c0,0,2.343,16.134-40.765,35.133c-43.116,18.994-46.35,5.163-46.35,5.163L220.926,230.82z"/>
		<path fill="#A47F5F" d="M214.525,241.415c0,0-2.677-16.987,17.729-17.964C232.253,223.451,218.24,228.017,214.525,241.415z"/>
		<path fill="#A47F5F" d="M292.266,192.907c0,0,10.87-13.32,25.211,1.226C317.477,194.132,304.729,186.744,292.266,192.907z"/>
	</g>
	<path fill="none" stroke="#BBBDBF" stroke-width="1.7497" d="M228.521,241.069c0,0,43.389-1.045,81.562-37.427"/>
	<path fill="#694F2E" d="M202.161,264.571c0,0-13.827-49.557,30.355-48.973c11.682,0.154,24.308-1.497,34.558-7.471
		c9.178-5.349,15.338-14.518,23.857-20.741c8.091-5.911,20.306-8.789,29.393-3.363c4.18,2.496,7.071,6.551,9.853,10.439
		c0.005-7.998-3.242-15.118-11.269-17.559c-8.287-2.521-18.327-2.756-26.696-0.533c-9.066,2.409-16.12,8.385-22.954,14.51
		c-6.692,5.996-13.532,10.543-22.346,12.792c-8.948,2.283-18.27,2.303-27.391,1.098c-7.169-0.948-18.012-4.935-23.957,1.122
		c-3.503,3.568-6.114,9.366-8.287,13.816c-2.85,5.834-3.924,12.084-5.079,18.414c-0.991,5.433-2.34,10.834-2.864,16.341
		c-0.258,2.708,0.104,5.683-0.584,8.325l25.425,1.472"/>
	<path fill="#83623E" d="M165.757,80.278c0,0,70.739,28.866,135.546,8.934C301.304,89.212,224.625,102.807,165.757,80.278z"/>
</g>
</svg>
