<?xml version="1.0" encoding="utf-8"?>
<!-- Generator: Adobe Illustrator 16.0.0, SVG Export Plug-In . SVG Version: 6.00 Build 0)  -->
<!DOCTYPE svg PUBLIC "-//W3C//DTD SVG 1.1//EN" "http://www.w3.org/Graphics/SVG/1.1/DTD/svg11.dtd">
<svg version="1.1" id="Layer_1" xmlns="http://www.w3.org/2000/svg" xmlns:xlink="http://www.w3.org/1999/xlink" x="0px" y="0px"
	 width="480px" height="500px" viewBox="0 0 480 500" enable-background="new 0 0 480 500" xml:space="preserve">
<g>
	<path fill="none" stroke="#415E98" stroke-width="8.2648" stroke-miterlimit="10" d="M281.744,341.334
		c0,0,44.617-39.353-20.223-77.668"/>
	<path fill="#6E6F72" d="M234.91,287.239c3.044,2.37,125.31,205.944,125.31,205.944l10.755-0.119L245.514,279.728L234.91,287.239z"
		/>
	<path fill="#A3A5A8" d="M253.163,312.229c0,5.739-5.742,10.391-12.828,10.391h-37.237c-7.083,0-12.826-4.651-12.826-10.391v-52.458
		c0-5.737,5.743-10.391,12.826-10.391h37.237c7.086,0,12.828,4.653,12.828,10.391V312.229z"/>
	<path fill="#6E6F72" d="M244.85,300.939c-18.051-0.052-36.329,0.178-54.578-0.056v11.346c0,5.739,5.743,10.391,12.826,10.391
		h37.237c7.086,0,12.828-4.651,12.828-10.391v-11.266C250.392,300.955,247.62,300.949,244.85,300.939z"/>
	<polygon fill="#415E98" points="218.692,308.185 256.968,306.382 255.599,487.26 252.315,486.963 253.136,326.146 223.622,323.755 
		222.8,486.963 219.645,487.177 	"/>
	<polygon fill="#415E98" points="211.823,239.354 262.472,248.522 257.98,320.101 238.535,318.988 235.829,315.217 233.415,319.439 
		219.451,318.988 	"/>
	<path fill="#323031" d="M255.694,487.209c0,0,2.826,4.494,9.657,4.494l0.185,1.399c0,0-8.75,0.696-11.386-3.497l0.172,3.192
		l-2.906-0.295l0.91-5.795L255.694,487.209z"/>
	<path fill="#323031" d="M219.271,487.132c0,0-2.83,4.497-9.66,4.497l-0.181,1.393c0,0,8.743,0.699,11.384-3.493l-0.178,3.197
		l2.909-0.299l-0.91-5.787L219.271,487.132z"/>
	<circle fill="#1E2D47" cx="235.429" cy="274.577" r="3.012"/>
	<circle fill="#1E2D47" cx="235.429" cy="287.316" r="3.012"/>
	<circle fill="#1E2D47" cx="235.429" cy="300.98" r="3.012"/>
	
		<line fill="none" stroke="#1E2D47" stroke-width="1.097" stroke-miterlimit="10" x1="241.105" y1="264.153" x2="241.105" y2="313.26"/>
	<path opacity="0.15" fill="#211F1F" d="M249.025,491.005c-61.405,0-111.183,0.974-111.183,2.179
		c0,1.208,49.778,2.183,111.183,2.183c61.407,0,111.194-0.975,111.194-2.183C360.22,491.979,310.433,491.005,249.025,491.005z"/>
	<path fill="#A3A5A8" d="M223.957,256.549c0,0,8.863,18.861-9.624,27.756l-2.51-6.172c0,0,13.071,1.445,10.224-21.584"/>
	<path fill="#A3A5A8" d="M251.888,261.298c0,0-4.237,15.372,8.339,23.007v-6.716c0,0-5.583,0.424-4.513-16.291H251.888z"/>
	<path fill="#D1B39D" d="M277.474,345.695c-0.014-0.322-2.199-1.273-2.429-1.396c-1.849-1.017-3.751-1.948-5.803-2.479
		c-3.109-0.799-6.56-0.874-8.744,1.818c-1.507,1.87-3.403,7.36-0.524,9.076c2.747,1.608,6.443-3.799,9.443-3.739
		c5.375,0.109,8.172-0.484,8.172-0.484L277.474,345.695z"/>
	<g>
		<path fill="#F0D0B5" d="M271.274,329.926c2.043-1.308,5.53-3.632,7.069-0.761c1.279,2.033-0.608,5.868,1.273,7.649
			c1.73,1.636,5.202-0.42,7.051,1.647c1.741,1.628-0.231,4.465,0.631,6.616c0.857,2.437,4.057,3.021,4.608,5.723
			c0.571,2.42-0.848,5.281-2.482,7.016c-2.844,3.359-9.061,6.807-13.295,4.758c-2.464-1.259-4.248-4.434-2.574-7.007
			c1.515-2.168,4.245-3.276,6.156-5.001c-1.771,1.588-5.747,7.826-7.86,2.809c-1.35-3.587,1.948-7.614,4.566-9.444
			c-1.36,2.042-2.889,4.206-5.551,4.196c-2.793-0.152-5.341-2.392-5.766-4.935c-1.146-4.826,2.629-9.824,5.889-13.002
			c0.128,0.144,0.128,0.144,0.113,0.41"/>
	</g>
	<path fill="none" stroke="#415E98" stroke-width="8.2648" stroke-miterlimit="10" d="M141.331,224.154
		c0,0,12.369,58.192,77.589,20.526"/>
	<g>
		<path fill="#CA9D69" d="M221.536,27.87c-22.442,15.052-44.433,32.521-70.306,40.961c-7.631,2.489-15.567,2.317-22.827,0.06
			c-30.249,42.561,8.81,98.56,8.81,98.56l169.985-27.598C310.061,106.993,293.557,28.019,221.536,27.87z"/>
		<path fill="#F0D0B5" d="M140.395,147.289c-12.2-38.901,13.044-81.446,56.381-95.037c43.338-13.593,88.359,6.916,100.56,45.818
			c1.498,4.775,2.568,10.045,3.239,15.637l0.012-0.003c0.424,3.511,0.689,7.147,0.79,10.859l9.616,25.253
			c0.327,0.621,0.637,1.245,0.938,1.876c0.097,0.209,0.187,0.42,0.285,0.619c0.192,0.418,0.387,0.842,0.569,1.261
			c0.107,0.248,0.213,0.491,0.317,0.741c0.16,0.378,0.318,0.76,0.469,1.145c0.106,0.255,0.202,0.521,0.305,0.782
			c0.143,0.37,0.281,0.73,0.414,1.101c0.094,0.269,0.188,0.528,0.279,0.801c0.129,0.362,0.251,0.729,0.37,1.094
			c0.083,0.265,0.168,0.534,0.251,0.799c0.116,0.37,0.229,0.743,0.335,1.117c0.068,0.254,0.146,0.506,0.217,0.771
			c0.109,0.389,0.209,0.786,0.312,1.184c0.051,0.231,0.117,0.467,0.174,0.696c0.112,0.468,0.213,0.943,0.316,1.407
			c0.035,0.159,0.072,0.314,0.104,0.477c0.125,0.619,0.244,1.242,0.354,1.871c0.026,0.158,0.046,0.323,0.079,0.492
			c0.073,0.46,0.149,0.926,0.217,1.384c0.032,0.235,0.055,0.463,0.089,0.704c0.051,0.391,0.1,0.784,0.144,1.173
			c0.024,0.257,0.05,0.504,0.07,0.759c0.037,0.371,0.073,0.75,0.1,1.124c0.021,0.253,0.046,0.516,0.063,0.776
			c0.023,0.368,0.043,0.736,0.063,1.102c0.009,0.259,0.021,0.521,0.029,0.771c0.017,0.371,0.021,0.74,0.036,1.111
			c0.002,0.26,0.006,0.504,0.006,0.762c0.003,0.38,0.005,0.766-0.002,1.142c0,0.241-0.008,0.478-0.006,0.716
			c-0.013,0.418-0.025,0.844-0.039,1.27c-0.016,0.189-0.014,0.39-0.023,0.575c-0.032,0.613-0.066,1.229-0.115,1.846l-0.001,0.008
			c-0.045,0.613-0.102,1.22-0.157,1.828c-0.026,0.199-0.054,0.391-0.069,0.591c-0.048,0.412-0.093,0.824-0.147,1.241
			c-0.029,0.226-0.062,0.466-0.094,0.696c-0.049,0.377-0.104,0.751-0.164,1.128c-0.034,0.248-0.078,0.486-0.12,0.737
			c-0.061,0.358-0.116,0.719-0.184,1.082c-0.042,0.247-0.085,0.497-0.138,0.747c-0.063,0.361-0.137,0.72-0.207,1.067
			c-0.046,0.253-0.104,0.493-0.146,0.744c-0.082,0.357-0.164,0.722-0.245,1.085c-0.056,0.237-0.11,0.467-0.16,0.703
			c-0.091,0.385-0.187,0.773-0.287,1.156c-0.049,0.212-0.103,0.417-0.152,0.624c-0.123,0.466-0.249,0.925-0.376,1.381
			c-0.036,0.128-0.067,0.257-0.102,0.378c-0.172,0.592-0.341,1.178-0.521,1.76c-0.038,0.146-0.084,0.29-0.135,0.432
			c-0.132,0.437-0.269,0.874-0.413,1.309c-0.066,0.216-0.138,0.43-0.216,0.64c-0.115,0.362-0.239,0.729-0.365,1.086
			c-0.083,0.24-0.168,0.471-0.254,0.706c-0.114,0.344-0.237,0.675-0.36,1.015c-0.091,0.233-0.179,0.482-0.272,0.718
			c-0.125,0.333-0.252,0.662-0.379,0.994c-0.091,0.241-0.19,0.478-0.278,0.714c-0.134,0.331-0.262,0.657-0.4,0.986
			c-0.097,0.233-0.193,0.471-0.291,0.707c-0.139,0.328-0.283,0.659-0.422,0.993c-0.096,0.224-0.191,0.451-0.289,0.673
			c-0.158,0.357-0.313,0.712-0.477,1.065c-0.086,0.191-0.177,0.389-0.261,0.582c-0.238,0.523-0.485,1.047-0.727,1.565
			c-0.05,0.104-0.099,0.208-0.152,0.307c-0.215,0.451-0.43,0.904-0.65,1.349c-0.104,0.21-0.21,0.417-0.313,0.625
			c-0.162,0.318-0.324,0.642-0.488,0.96c-0.119,0.239-0.246,0.468-0.361,0.702c-0.151,0.292-0.306,0.58-0.459,0.878
			c-0.124,0.235-0.255,0.477-0.385,0.725c-0.148,0.276-0.298,0.55-0.449,0.826c-0.137,0.249-0.271,0.494-0.414,0.735
			c-0.143,0.269-0.29,0.536-0.441,0.795c-0.141,0.25-0.278,0.498-0.418,0.743c-0.15,0.259-0.295,0.521-0.449,0.775
			c-0.138,0.246-0.276,0.491-0.426,0.743c-0.152,0.253-0.304,0.509-0.463,0.765c-0.135,0.235-0.283,0.479-0.426,0.719
			c-0.156,0.259-0.315,0.516-0.478,0.78c-0.202,0.326-0.403,0.652-0.604,0.97c-0.222,0.369-0.448,0.726-0.676,1.085
			c-0.164,0.252-0.329,0.512-0.491,0.766c-0.14,0.215-0.274,0.428-0.419,0.645c-0.171,0.266-0.345,0.528-0.521,0.789
			c-0.131,0.196-0.255,0.4-0.388,0.592c-0.179,0.269-0.354,0.526-0.532,0.79c-0.127,0.198-0.261,0.387-0.392,0.581
			c-0.177,0.265-0.36,0.521-0.539,0.784c-0.124,0.183-0.244,0.364-0.374,0.544c-0.181,0.262-0.369,0.53-0.548,0.793
			c-0.126,0.166-0.246,0.339-0.366,0.512c-0.19,0.269-0.378,0.537-0.572,0.803c-0.104,0.144-0.207,0.291-0.313,0.434
			c-0.207,0.281-0.413,0.567-0.616,0.854c-0.076,0.095-0.146,0.191-0.223,0.295c-1.075,1.467-2.148,2.887-3.209,4.249
			c-0.038,0.049-0.08,0.096-0.111,0.139c-0.243,0.312-0.487,0.624-0.731,0.928c-0.053,0.07-0.109,0.135-0.161,0.199
			c-0.231,0.299-0.463,0.593-0.703,0.884c-0.054,0.073-0.113,0.14-0.172,0.217c-0.238,0.296-0.471,0.583-0.697,0.866
			c-0.051,0.055-0.102,0.12-0.149,0.181c-0.243,0.3-0.48,0.592-0.726,0.882c-0.024,0.029-0.052,0.068-0.081,0.093
			c-0.262,0.319-0.521,0.636-0.785,0.945c-0.004,0.011-0.012,0.013-0.012,0.017c-0.01,0.019-0.022,0.031-0.038,0.04
			c-0.536,0.646-1.069,1.273-1.588,1.88c-0.02,0.024-0.04,0.048-0.062,0.067c-0.024,0.03-0.046,0.056-0.072,0.087
			c-0.013,0.019-0.02,0.03-0.036,0.04c-0.76,0.883-1.501,1.736-2.217,2.541c-0.038,0.05-0.085,0.101-0.129,0.149
			c-0.017,0.02-0.034,0.039-0.053,0.061c-0.227,0.256-0.456,0.505-0.676,0.75c-0.013,0.021-0.028,0.032-0.038,0.045
			c-0.257,0.281-0.508,0.566-0.756,0.836c-0.348,0.389-0.71,0.755-1.072,1.128l-0.008,0.002c-0.047,0.041-0.101,0.088-0.147,0.13
			v0.008c-0.336,0.324-0.674,0.641-1.019,0.938h-0.001l-0.009,0.01c-9.876,8.674-24.18,8.671-36.785,6.111
			c-0.009,0-0.019,0.004-0.031-0.002c-0.828-0.165-1.647-0.351-2.464-0.537c-0.011-0.002-0.022-0.005-0.033-0.009
			c-0.81-0.188-1.619-0.387-2.415-0.592c0,0,0,0-0.011-0.004c-3.997-1.035-7.713-2.265-10.929-3.461
			c-0.011,0.004-0.018-0.002-0.026-0.006c-0.624-0.229-1.229-0.459-1.812-0.69c-0.031-0.011-0.059-0.022-0.084-0.029
			c-0.572-0.225-1.118-0.443-1.646-0.656c-0.041-0.015-0.074-0.025-0.114-0.042c-0.521-0.212-1.011-0.42-1.488-0.62
			c-0.035-0.018-0.072-0.033-0.106-0.043c-0.473-0.203-0.921-0.395-1.35-0.584c-0.028-0.018-0.052-0.029-0.083-0.035
			c-0.426-0.191-0.836-0.372-1.209-0.543c-0.015-0.003-0.03-0.014-0.039-0.016c-1.155-0.526-2.057-0.961-2.67-1.26
			c-0.011-0.004-0.024-0.017-0.041-0.015c-0.198-0.105-0.352-0.184-0.479-0.244c-0.007-0.006-0.01-0.006-0.01-0.006
			c-0.231-0.119-0.354-0.187-0.354-0.187c-3.411-1.387-6.525-2.818-9.368-4.287c0,0-0.005-0.008-0.01-0.015
			c-0.033-0.015-0.066-0.035-0.1-0.048c-0.901-0.468-1.762-0.936-2.597-1.405c-0.003,0.001-0.011-0.002-0.014-0.009
			c-0.149-0.083-0.29-0.162-0.431-0.243l-0.001-0.006c-1.651-0.93-3.2-1.883-4.647-2.834c-0.007-0.003-0.012-0.009-0.021-0.016
			c-0.079-0.052-0.16-0.099-0.234-0.158c0,0-0.009-0.001-0.017-0.002c-0.704-0.47-1.377-0.943-2.033-1.409l-0.002-0.007
			c-0.095-0.063-0.184-0.133-0.28-0.197c-0.006-0.007-0.016-0.011-0.016-0.011c-1.332-0.965-2.57-1.942-3.724-2.917
			c-0.007-0.004-0.011-0.003-0.016-0.009c-0.065-0.053-0.129-0.108-0.192-0.162c-0.005,0.001-0.005,0-0.005,0
			c-1.799-1.538-3.375-3.066-4.759-4.593c-0.042-0.041-0.077-0.084-0.119-0.126c-0.01-0.011-0.017-0.017-0.022-0.03
			c0,0-14.085-13.762-20.525-39.178l-9.648-27.69l-12.727-8.158L140.395,147.289z"/>
		<path fill="#CE9C78" d="M221.307,180.123c0,0,37.979,30.468,41.282-12.947C262.589,167.176,256.697,195.048,221.307,180.123z"/>
		<path fill="none" stroke="#CE9C78" stroke-width="1.944" stroke-miterlimit="10" d="M203.467,215.941
			c0,0,41.815,31.196,69.562-0.352"/>
		<path fill="#231F20" d="M189.998,172.993c0,0,0.958-47.668,38.457-19.187C228.454,153.806,197.936,135.771,189.998,172.993z"/>
		<path fill="#231F20" d="M251.888,149.375c0,0,7.661-45.062,35.941-7.983C287.829,141.393,263.398,116.378,251.888,149.375z"/>
		<path fill="#CE9C78" d="M193.78,224.348c0,0-8.318-20.069,11.833-17.397C205.613,206.951,190.593,208.094,193.78,224.348z"/>
		<path fill="#CA9D69" d="M160.789,180.913l7.976-3.643l-19.616-33.469c0,0,13.353-9.415,4.145-27.977
			c0,0,40.328-80.299,137.382-32.471l-5.968-19.025c0,0-34.829-30.425-36.314-28.266c-1.483,2.159-35.016-1.271-35.016-1.271
			s-34.423,13.121-38.844,12.183c-4.421-0.937-33.16,22.651-33.16,22.651l-17.898,18.152l2.811,44.827l6.771,21.585L160.789,180.913
			z"/>
		<path fill="#F0D0B5" d="M152.971,162.03c0,0-15.104-14.918-31.664,1.92c-11.253,11.438-3.64,17.238,5.622,20.139
			c7.732,2.426,16.625,2.832,16.625,2.832s13.594,0.765,10.501,12.926c-3.111,12.163-2.502,16.239,2.599,16.569
			c5.093,0.323,14.577-5.467,13.964-12.219C168.006,175.057,152.971,162.03,152.971,162.03z"/>
		<g>
			<path fill="#CE9C78" d="M158.051,181.888c0,0-16.884-14.696-7.564,7.114C150.487,189.002,146.339,174.565,158.051,181.888z"/>
			<path fill="#CE9C78" d="M157.891,181.822c0,0-25.78-31.487-21.004-3.106C136.887,178.716,138.028,162.045,157.891,181.822z"/>
		</g>
		<g>
			<path fill="#415E98" d="M164.979,43.452c0,0,73.15-46.157,79.271-28.647c6.122,17.504-100.682,64.719-100.682,64.719
				L116.914,97.66l-11.468-13.749c0,0-48.786-10.199-5.436-37.865C143.361,18.375,135.642-6.988,164.979,43.452z"/>
			<path fill="#1E2D47" d="M164.979,43.452c0,0-3.674,10.651-20.57,17.761c0,0,17.546-11.94,18.372-21.517L164.979,43.452z"/>
			<path fill="#415E98" d="M114.439,38.359c0,0,2.289-19.652-8.333-13.099C95.483,31.81,114.439,38.359,114.439,38.359z"/>
		</g>
		<path fill="#CA9D69" d="M217.794,125.428l1.751,10.504c0,0-29.688-9.752-47.303,18.067
			C172.242,154,175.514,121.491,217.794,125.428z"/>
		<path fill="#CA9D69" d="M242.265,118.694l4.653,9.535c0,0,14.751-24.592,42.199-11.823
			C289.117,116.406,268.811,91.773,242.265,118.694z"/>
	</g>
	<polygon fill="#6E6F72" points="317.902,480.867 317.902,495.366 396.613,493.186 396.613,480.867 	"/>
	<polygon fill="#464748" points="317.902,489.874 317.902,495.366 396.613,493.186 396.613,488.139 	"/>
	<path fill="#F0D0B5" d="M145.457,228.773c-1.002,2.603-3.758,4.139-6.127,3.421c-2.362-0.723-6.125,0.069-8.351,1.756l-2.191,1.671
		c-2.226,1.698-5.229,1.677-6.681-0.036c-1.452-1.717-0.656-4.254,1.764-5.641l3.093-1.771c2.421-1.39,2.246-3.294-0.381-4.229
		l-8.669-3.078c-2.637-0.933-4.225-3.539-3.542-5.796c0.695-2.259,3.383-3.258,5.976-2.229l8.543,3.407
		c2.592,1.039,3.223,0.154,1.388-1.959l-3.71-4.29c-1.827-2.11-2.297-4.987-1.046-6.378c1.25-1.4,3.823-0.854,5.714,1.202
		l7.65,8.331c1.891,2.053,3.903,1.677,4.471-0.838c0.566-2.517,2.929-4.167,5.255-3.668c2.323,0.493,3.402,3.039,2.402,5.652
		L145.457,228.773z"/>
	<g>
		<g>
			<path fill="#99734D" d="M130.02,110.191c-1.664,0.515-3.229,0.494-4.891-0.02c-0.726-0.224-2.355,0.835-1.192,1.195
				c2.124,0.657,4.271,0.636,6.393-0.02C131.52,110.979,131.226,109.818,130.02,110.191L130.02,110.191z"/>
		</g>
	</g>
	<g>
		<g>
			<path fill="#99734D" d="M137.715,121.172c-2.111,1.429-3.613,3.132-4.774,5.407c-0.204,0.4,0.698,0.386,0.845,0.365
				c0.429-0.06,0.936-0.235,1.144-0.643c0.968-1.896,2.233-3.429,4-4.625C140.045,120.922,138.297,120.778,137.715,121.172
				L137.715,121.172z"/>
		</g>
	</g>
	<g>
		<g>
			<path fill="#99734D" d="M143.62,102.794c-0.436-0.898-0.521-1.761-0.522-2.745c0-1.097-2.029-0.835-2.028,0.127
				c0,1.294,0.162,2.349,0.73,3.522C142.215,104.555,144.099,103.783,143.62,102.794L143.62,102.794z"/>
		</g>
	</g>
	<g>
		<g>
			<path fill="#99734D" d="M142.113,122.465c-1.198,0.559-2.55,0.69-3.761,1.253c-0.23,0.107-0.641,0.494-0.21,0.648
				c0.452,0.161,0.996-0.031,1.404-0.221c1.198-0.558,2.55-0.689,3.76-1.253c0.231-0.108,0.642-0.494,0.21-0.648
				C143.065,122.083,142.521,122.275,142.113,122.465L142.113,122.465z"/>
		</g>
	</g>
	<g>
		<g>
			<path fill="#99734D" d="M137.338,142.913c-1.056,1.601-1.854,3.155-1.894,5.106c-0.006,0.315,1.984,0.045,1.996-0.535
				c0.038-1.887,0.849-3.38,1.866-4.922c0.202-0.305-0.735-0.205-0.799-0.194C138.13,142.435,137.566,142.567,137.338,142.913
				L137.338,142.913z"/>
		</g>
	</g>
	<g>
		<g>
			<path fill="#99734D" d="M131.591,143.494c-1.04-0.529-1.768-1.233-2.299-2.278c-0.363-0.712-2.306-0.075-1.996,0.535
				c0.634,1.246,1.464,2.099,2.714,2.735c0.426,0.217,1.035,0.062,1.416-0.177C131.705,144.133,132.019,143.712,131.591,143.494
				L131.591,143.494z"/>
		</g>
	</g>
	<g>
		<g>
			<path fill="#99734D" d="M141.665,136.294c0.491-0.022,0.97-0.142,1.437-0.289c0.267-0.084,0.532-0.173,0.797-0.261
				c0.078-0.026,0.521-0.089,0.273-0.078c0.438-0.02,1.02-0.164,1.33-0.497c0.317-0.341-0.274-0.415-0.492-0.405
				c-0.491,0.022-0.97,0.142-1.437,0.289c-0.267,0.084-0.532,0.173-0.797,0.261c-0.078,0.026-0.521,0.089-0.273,0.078
				c-0.438,0.02-1.02,0.164-1.33,0.497C140.855,136.23,141.447,136.304,141.665,136.294L141.665,136.294z"/>
		</g>
	</g>
	<g>
		<g>
			<path fill="#99734D" d="M147.974,153.995c0.793,0,2.107-1.204,0.757-1.204C147.938,152.791,146.624,153.995,147.974,153.995
				L147.974,153.995z"/>
		</g>
	</g>
	<g>
		<g>
			<path fill="#99734D" d="M152.196,86.822c-1.692-0.037-3.315-0.59-5.015-0.627c-1.16-0.025-1.512,1.479-0.165,1.508
				c1.692,0.037,3.315,0.59,5.015,0.627C153.191,88.354,153.543,86.851,152.196,86.822L152.196,86.822z"/>
		</g>
	</g>
	<g>
		<g>
			<path fill="#99734D" d="M133.511,97.084c-0.748,0.353-1.526,0.482-2.349,0.483c-0.474,0-1.057,0.128-1.307,0.586
				c-0.223,0.409,0.19,0.745,0.583,0.744c1.367-0.001,2.671-0.182,3.92-0.772c0.312-0.147,0.805-0.56,0.495-0.941
				C134.551,96.812,133.886,96.908,133.511,97.084L133.511,97.084z"/>
		</g>
	</g>
	<g>
		<g>
			<path fill="#99734D" d="M152.421,96.894c-0.563,1.209-0.691,2.555-1.253,3.761c-0.461,0.99,1.552,0.898,1.892,0.168
				c0.563-1.209,0.692-2.555,1.253-3.761C154.773,96.072,152.761,96.164,152.421,96.894L152.421,96.894z"/>
		</g>
	</g>
	<g>
		<g>
			<path fill="#99734D" d="M169.412,79.94c0-0.836,0-1.672,0-2.508c0-0.891-2.002-0.484-2.002,0.227c0,0.836,0,1.672,0,2.508
				C167.41,81.058,169.412,80.651,169.412,79.94L169.412,79.94z"/>
		</g>
	</g>
	<g>
		<g>
			<path fill="#99734D" d="M156.747,82.019c0.012,0.652,0.117,1.31,0.598,1.791c0.508,0.508,1.237,0.688,1.937,0.701
				c0.479,0.009,1.063-0.128,1.303-0.599c0.213-0.418-0.185-0.785-0.596-0.793c-0.316-0.006-0.653-0.011-0.881-0.24
				c-0.265-0.265-0.336-0.67-0.343-1.03C158.745,80.834,156.731,81.171,156.747,82.019L156.747,82.019z"/>
		</g>
	</g>
	<g>
		<g>
			<path fill="#99734D" d="M161.838,91.312c-0.498,1.057-0.692,2.12-0.694,3.282c-0.001,0.847,1.996,0.421,1.997-0.245
				c0.001-1.024,0.116-2.047,0.558-2.985C164.115,90.479,162.12,90.713,161.838,91.312L161.838,91.312z"/>
		</g>
	</g>
	<g>
		<g>
			<path fill="#99734D" d="M179.439,73.666c0-1.254,0-2.508,0-3.762c0-0.859-1.998-0.438-1.998,0.24c0,1.254,0,2.508,0,3.762
				C177.441,74.765,179.439,74.343,179.439,73.666L179.439,73.666z"/>
		</g>
	</g>
	<g>
		<g>
			<path fill="#99734D" d="M188.118,65.555c0.66-0.661,1.341-1.25,2.178-1.68c0.143-0.073,0.702-0.405,0.25-0.499
				c-0.433-0.09-1.009,0.063-1.394,0.26c-1.075,0.551-1.986,1.23-2.837,2.083c-0.315,0.315,0.278,0.325,0.466,0.308
				C187.199,65.988,187.806,65.867,188.118,65.555L188.118,65.555z"/>
		</g>
	</g>
	<g>
		<g>
			<path fill="#99734D" d="M206.408,55.539c0.001-1.238,0.042-2.423,0.572-3.564c0.491-1.056-1.527-1.095-1.916-0.258
				c-0.589,1.267-0.681,2.581-0.682,3.958C204.38,56.754,206.407,56.476,206.408,55.539L206.408,55.539z"/>
		</g>
	</g>
	<g>
		<g>
			<path fill="#99734D" d="M211.493,50.44c1.39,0.726,2.261,1.969,2.307,3.554c0.018,0.612,2.018,0.222,1.996-0.535
				c-0.052-1.792-1.165-3.162-2.711-3.969C212.522,49.196,210.682,50.017,211.493,50.44L211.493,50.44z"/>
		</g>
	</g>
	<g>
		<g>
			<path fill="#99734D" d="M203.705,61.312c-1.815,0.999-3.012,2.961-3.081,5.035c-0.033,1.018,1.99,0.702,2.019-0.166
				c0.045-1.366,0.662-3.042,1.933-3.741C205.768,61.784,204.686,60.773,203.705,61.312L203.705,61.312z"/>
		</g>
	</g>
	<g>
		<g>
			<path fill="#99734D" d="M195.779,69.087c-0.871,1.006-0.248,2.423,0.554,3.264c0.357,0.374,0.909,0.384,1.36,0.165
				c0.32-0.156,0.821-0.682,0.464-1.056c-0.309-0.323-1.101-1.288-0.7-1.751c0.312-0.36,0.169-0.837-0.268-0.999
				C196.71,68.532,196.11,68.705,195.779,69.087L195.779,69.087z"/>
		</g>
	</g>
	<g>
		<g>
			<path fill="#99734D" d="M181.804,83.091c0.699,0,2.142-1.061,0.795-1.061C181.9,82.031,180.457,83.091,181.804,83.091
				L181.804,83.091z"/>
		</g>
	</g>
	<g>
		<g>
			<path fill="#99734D" d="M225.824,58.475c0.033-1.138,0.745-2.045,1.246-3.02c0.194-0.376-0.703-0.323-0.828-0.304
				c-0.397,0.061-0.953,0.219-1.152,0.608c-0.559,1.084-1.225,1.991-1.262,3.251C223.814,59.462,225.804,59.152,225.824,58.475
				L225.824,58.475z"/>
		</g>
	</g>
	<g>
		<g>
			<path fill="#99734D" d="M228.16,42.08c0.229-0.22,0.51-0.397,0.79-0.546c0.172-0.092,0.352-0.168,0.531-0.24
				c-0.039,0.032-0.001,0.022,0.113-0.028c0.318-0.091-0.129-0.003,0.146-0.016c0.421-0.019,1.04-0.303,1.108-0.775
				c0.072-0.501-0.547-0.615-0.907-0.599c-1.255,0.056-2.55,0.833-3.436,1.679c-0.336,0.321-0.168,0.773,0.242,0.903
				C227.243,42.615,227.797,42.427,228.16,42.08L228.16,42.08z"/>
		</g>
	</g>
	<g>
		<g>
			<path fill="#99734D" d="M236.433,47.833c0.607,0.607,1.279,1.315,2.189,1.379c0.488,0.034,1.02-0.062,1.411-0.378
				c0.295-0.237,0.257-0.595-0.167-0.624c-0.632-0.044-1.154-0.71-1.572-1.127C237.84,46.629,235.962,47.364,236.433,47.833
				L236.433,47.833z"/>
		</g>
	</g>
	<g>
		<g>
			<path fill="#99734D" d="M238.234,59.958c0.778,0,2.113-1.182,0.764-1.182C238.22,58.777,236.885,59.958,238.234,59.958
				L238.234,59.958z"/>
		</g>
	</g>
	<g>
		<g>
			<path fill="#99734D" d="M216.186,63.78c-0.208-0.209-0.417-0.418-0.626-0.628c-0.677-0.679-2.368,0.358-1.523,1.206
				c0.208,0.209,0.417,0.418,0.626,0.628C215.339,65.666,217.03,64.628,216.186,63.78L216.186,63.78z"/>
		</g>
	</g>
	<g>
		<g>
			<path fill="#99734D" d="M249.528,58.382c0.769,1.5,1.739,2.888,2.508,4.389c0.337,0.657,2.271,0,1.996-0.535
				c-0.769-1.5-1.739-2.888-2.508-4.389C251.188,57.189,249.255,57.846,249.528,58.382L249.528,58.382z"/>
		</g>
	</g>
	<g>
		<g>
			<path fill="#99734D" d="M258.223,46.371c0.728-0.761,1.157-1.752,1.881-2.507c0.282-0.294,0.249-0.62-0.19-0.711
				c-0.44-0.091-1.09,0.043-1.411,0.378c-0.729,0.76-1.157,1.752-1.881,2.507c-0.282,0.294-0.249,0.62,0.19,0.711
				S257.902,46.706,258.223,46.371L258.223,46.371z"/>
		</g>
	</g>
	<g>
		<g>
			<path fill="#99734D" d="M277.836,66.983c-0.665,0.719-0.725,1.384-0.045,2.117c0.323,0.348,2.146-0.38,1.887-0.659
				c-0.482-0.52-0.54-1.111-0.045-1.646c0.29-0.313-0.259-0.295-0.457-0.274C278.781,66.562,278.123,66.673,277.836,66.983
				L277.836,66.983z"/>
		</g>
	</g>
	<g>
		<g>
			<path fill="#99734D" d="M256.487,59.729c0.485,0.521,0.563,1.101,0.564,1.786c0.001,0.457,1.997,0.127,1.996-0.535
				c-0.001-0.779-0.147-1.391-0.691-1.975C257.958,58.578,256.079,59.291,256.487,59.729L256.487,59.729z"/>
		</g>
	</g>
	<g>
		<g>
			<path fill="#99734D" d="M266.454,69.666c0,0.508-0.052,1.08,0.129,1.565c0.173,0.463,0.656,0.554,1.096,0.575
				c0.435,0.021,1.049-0.169,1.321-0.529c0.292-0.386-0.248-0.513-0.524-0.526c0.23,0.011,0.222,0.098,0.104-0.042
				c-0.062-0.074-0.072-0.263-0.087-0.355c-0.065-0.4-0.043-0.82-0.043-1.224C268.45,68.576,266.454,68.935,266.454,69.666
				L266.454,69.666z"/>
		</g>
	</g>
	<g>
		<g>
			<path fill="#99734D" d="M268.442,52.947c0.838-1.644,2.027-3.094,3.55-4.146c0.334-0.23,0.234-0.514-0.149-0.559
				c-0.48-0.056-1.018,0.106-1.411,0.378c-1.703,1.176-3.033,2.793-3.97,4.632c-0.191,0.375,0.703,0.318,0.827,0.299
				C267.682,53.491,268.245,53.334,268.442,52.947L268.442,52.947z"/>
		</g>
	</g>
	<g>
		<g>
			<path fill="#99734D" d="M244.003,42.949c0.498-1.464,1.123-2.857,1.812-4.239c0.437-0.873-1.563-0.652-1.861-0.056
				c-0.739,1.479-1.416,2.971-1.949,4.538C241.767,43.895,243.771,43.63,244.003,42.949L244.003,42.949z"/>
		</g>
	</g>
	<g>
		<g>
			<path fill="#99734D" d="M236.083,33.244c-0.36,0.24-0.888,0.491-1.11,0.884c-0.309,0.546,0.426,0.849,0.852,0.792
				c0.343-0.045,0.609-0.176,0.91-0.323c0.156-0.077,0.315-0.149,0.477-0.216c0.271-0.113-0.2,0.061,0.061-0.019
				c0.244-0.074-0.219,0.014-0.006,0.002c0.425-0.023,1.039-0.303,1.106-0.781c0.069-0.501-0.544-0.63-0.911-0.61
				c-0.446,0.024-0.876,0.196-1.281,0.372c-0.15,0.065-0.298,0.138-0.444,0.211c-0.307,0.152-0.397,0.064,0.284-0.026
				c0.284,0.264,0.568,0.528,0.852,0.792c0.001-0.002,0.003-0.004,0.004-0.005c-0.099,0.109-0.197,0.219-0.296,0.328
				c0.244-0.209,0.544-0.373,0.811-0.551c0.338-0.225,0.526-0.719,0.121-0.982C237.081,32.832,236.478,32.981,236.083,33.244
				L236.083,33.244z"/>
		</g>
	</g>
	<g>
		<g>
			<path fill="#99734D" d="M285.293,70.622c0.463-0.434,1.272-0.639,1.328-1.375c0.05-0.671-1.94-0.25-1.982,0.303
				c-0.016,0.21-0.039,0.292-0.216,0.402c-0.351,0.217-0.661,0.447-0.962,0.729c-0.355,0.333,0.305,0.458,0.505,0.452
				C284.445,71.117,284.94,70.952,285.293,70.622L285.293,70.622z"/>
		</g>
	</g>
	<g>
		<g>
			<path fill="#99734D" d="M292.123,78.692c0.684,0,2.146-1.038,0.801-1.038C292.24,77.654,290.777,78.692,292.123,78.692
				L292.123,78.692z"/>
		</g>
	</g>
	<g>
		<g>
			<path fill="#99734D" d="M298.382,94.955c0.839-0.001,2.571-0.141,2.655-1.261c0.051-0.677-1.94-0.256-1.982,0.301
				c-0.033,0.449-0.193,0.122,0.542-0.013c-0.113,0.021-0.271,0.005-0.395,0.005c-0.435,0.001-1.033,0.166-1.326,0.511
				C297.569,94.859,298.139,94.956,298.382,94.955L298.382,94.955z"/>
		</g>
	</g>
</g>
<g>
</g>
<g>
</g>
<g>
</g>
<g>
</g>
<g>
</g>
<g>
</g>
</svg>
