<?xml version="1.0" encoding="utf-8"?>
<!-- Generator: Adobe Illustrator 16.0.0, SVG Export Plug-In . SVG Version: 6.00 Build 0)  -->
<!DOCTYPE svg PUBLIC "-//W3C//DTD SVG 1.1//EN" "http://www.w3.org/Graphics/SVG/1.1/DTD/svg11.dtd">
<svg version="1.1" id="Layer_1" xmlns="http://www.w3.org/2000/svg" xmlns:xlink="http://www.w3.org/1999/xlink" x="0px" y="0px"
	 width="480px" height="500px" viewBox="0 0 480 500" enable-background="new 0 0 480 500" xml:space="preserve">
<g>
	<g>
		<path fill="#A97D51" d="M138.858,269.358l-6.9,14.596c0,0,260.622,118.629,276.881,115.456
			C425.107,396.239,138.858,269.358,138.858,269.358z"/>
		<polygon fill="#D1D2D3" points="142.889,269.974 139.18,267.542 130.941,286.169 135.93,287.107 		"/>
		<path fill="#D1D2D3" d="M139.884,270.865c0,0-11.591-10.732-24.635-8.548l-4.752,9.387c0,0,13.697,15.632,25.365,12.25
			L139.884,270.865z"/>
		<path fill="#131313" d="M117.862,262.047c0,0-8.129-38.506-39.842-25.068c-31.706,13.432-33.912-18.441-33.912-18.441
			s-5.1,107.181,67.72,54.78L117.862,262.047z"/>
		<path fill="#F7941E" d="M68.956,239.771c-5.159,7.957-9.988,16.166-14.858,24.194c-0.815,1.341-1.622,2.686-2.427,4.022
			c-8.928-20.456-7.562-49.45-7.562-49.45S45.9,244.006,68.956,239.771z"/>
		<path fill="#F7941E" d="M69.152,239.72c1.926,0.747,4.09,0.534,6.008,1.29c4.106,1.807,1.511,2.131-0.984,2.894
			c-7.469,1.994-1.213,6.729,2.097,9.466c8.214,6.486-5.882,3.288-7.901,6.521c-1.502,2.271,0.492,5.312-3.514,5.509
			c-3.887,0.339-5.559-2.962-8.283,1.628c-0.848,1.485-2.375,6.483-3.539,4.229c-0.534-1.031-1.247-2.869-1.382-3.26l0.466-11.084
			c0,0,5.627-5.163,6.094-5.55C58.672,250.981,69.152,239.72,69.152,239.72z"/>
	</g>
	<path fill="#E9C09B" d="M193.056,277.444c0,0-23.492,29.257,11.272,48.403l-0.13-13.884c0,0-19.014-7.001,1.845-33.704"/>
	<path fill="#00AEEF" d="M205.295,257.401c0,0-16.976,21.005-19.756,30.354l13.049,7.641c0,0,2.256-6.406,7.095-10.611
		L205.295,257.401z"/>
	<polygon fill="#231F20" points="207.639,319.146 248.401,317.229 246.949,488.229 243.459,487.909 242.262,338.392 212.888,335.73 
		212.014,487.909 207.645,487.909 	"/>
	<path fill="#231F20" d="M247.047,488.172c0,0,3.009,4.777,10.284,4.777l0.202,1.493c0,0-9.318,0.741-12.13-3.722l0.19,3.403
		l-3.097-0.316l0.962-6.169L247.047,488.172z"/>
	<path fill="#231F20" d="M208.262,488.091c0,0-3.021,4.786-10.295,4.786l-0.192,1.488c0,0,9.313,0.742,12.126-3.726l-0.192,3.407
		l3.108-0.32l-0.977-6.159L208.262,488.091z"/>
	<polygon fill="#00AEEF" points="204.915,331.857 203.261,235.509 254.268,255.607 249.483,331.84 	"/>
	<path fill="#F7941E" d="M20.827,477.558c0,1.521,19.887,2.756,44.411,2.756c24.53,0,44.41-1.234,44.41-2.756
		c0-1.518-19.88-2.751-44.41-2.751C40.713,474.807,20.827,476.04,20.827,477.558z"/>
	<path fill="#F7941E" d="M37.349,469.642c0,0.947,6.783,1.718,15.146,1.718c8.373,0,15.151-0.771,15.151-1.718
		c0-0.953-6.778-1.723-15.151-1.723C44.132,467.919,37.349,468.688,37.349,469.642z"/>
	<ellipse fill="#F7941E" cx="80.73" cy="471.019" rx="8.261" ry="1.034"/>
</g>
<path fill="#E9BF9A" d="M360.486,259.613c-0.062-0.059,10.727-20.084,11.662-22.558c3.385-8.945,5.734-19.419,1.328-28.393
	c-4.776-9.722-15.813-15.395-4.575-26.009c15.5-14.639,0-20.077,0-20.077l-2.643-12.896c-3.695-45.635-43.811-81.57-92.752-81.57
	c-51.38,0-93.031,39.602-93.031,88.456c0,25.068,10.97,47.699,28.592,63.795c-3.138,4.827-5.167,9.877-5.807,15.148
	c-6.643,54.792,80.171,113.614,140.397,88.936C403.884,299.77,360.491,259.616,360.486,259.613z"/>
<path fill="#414042" d="M393.416,310.785c5.152,27.052-17.577,51.412-47.302,59.104c-7.948,2.059-16.739,3.475-25.048,3.893
	c-23.479,1.184-50.963-0.543-69.874-13.614c-22.9-15.835-28.783-40.563-35.22-63.57c-18.476-66.02-25.882-83.125,15.957-79.765
	c0.17,15.118-20.484,66.314,13.997,66.864c28.531,0.454-67.655-116.665,108.649-53.243c0,0,9.877,25.989,9.876,25.99
	C364.451,256.444,385.75,270.542,393.416,310.785z"/>
<path fill="#414042" d="M211.388,217.013h20.429c0,0,0.154-20.229,22.984-51.9c0,0-60.3-53.894-11.58-74.312
	c48.721-20.417,95.533,32.244,95.533,32.244l10.804-17.438c0,0-142.818-106.125-177.108,53.366"/>
<path fill="#CD9D78" d="M330.419,213.214c0,0,16.068,23.044,34.38-3.214C364.799,210,350.269,221.665,330.419,213.214z"/>
<g>
	<path fill="#E9BF9A" d="M207.445,171.028c-1.362-1.795-2.847-3.458-4.403-4.852c-5.352-4.792-11.72-9.204-18.825-10.8
		c-8.337-1.874-16.474-0.514-24.025,3.472c-42.479,22.417,18.778,45.565,18.778,45.565s19.373,7.622,7.631,24.675
		c-11.745,17.046-13.305,23.549-6.07,26.481c7.249,2.891,22.695-1.769,27.645-11.994c9.052-18.696,13.631-44.127,4.55-63.75
		C211.376,176.908,209.556,173.809,207.445,171.028z"/>
	<g>
		<path fill="#CD9D78" d="M203.079,202.708c0,0-18.876-60.201-28.791-14.689C174.288,188.019,185.865,163.157,203.079,202.708z"/>
		<path fill="#CD9D78" d="M203.261,202.884c0,0-15.885-30.409-15.261,7.251C188,210.135,190.544,186.174,203.261,202.884z"/>
	</g>
</g>
<path d="M261.328,234.35c0,0,10.166-10.505,21.555,2.988C282.883,237.338,275.007,228.41,261.328,234.35z"/>
<path d="M271.169,234.275c0,0-29.2,15.967,0.986,32.248c20.39,11.002,57.501,2.697,57.501,2.697S277.123,269.177,271.169,234.275z"
	/>
<path d="M319.217,268.751c-13.525-1.333-24.463-4.679-32.729-10.029c-16.803-10.866-16.088-25.884-16.07-26.529l2.165,0.059
	c-0.012,0.155-0.688,14.979,15.389,25.373c13.764,8.894,35.451,12.021,64.425,9.329l0.28,1.512
	C340.192,269.627,329.03,269.725,319.217,268.751z"/>
<path fill="#F4F5F5" d="M329.656,269.22c0,0-46.604-0.06-56.986-29.243c-3.979,1.88-17.362,9.211-0.275,16.092
	c0,0-7.058,2.271-6.372,6.554c1.706,1.298,3.711,2.591,6.133,3.9C292.545,277.524,329.656,269.22,329.656,269.22z"/>
<path d="M284.892,287.594c0,0,19.741-12.836,64.315-6.303C349.207,281.291,301.479,282.133,284.892,287.594z"/>
<path fill="#414042" d="M346.037,232.909c0,0,28.983-13.146,29.024-5.088c0.042,8.057-15.507,33.301-15.507,33.301L346.037,232.909z
	"/>
<circle cx="195.623" cy="144.012" r="3.356"/>
<circle cx="217.666" cy="144.012" r="3.355"/>
<circle cx="218.996" cy="164.319" r="3.355"/>
<circle cx="243.023" cy="167.675" r="3.356"/>
<circle cx="208.643" cy="125.25" r="2.024"/>
<circle cx="187.983" cy="133.709" r="2.025"/>
<circle cx="201.217" cy="152.386" r="2.025"/>
<circle cx="238.225" cy="156.565" r="2.025"/>
<circle cx="225.597" cy="234.274" r="2.025"/>
<circle cx="221.021" cy="223.905" r="2.025"/>
<circle cx="235.879" cy="188.881" r="2.025"/>
<circle cx="214.789" cy="240.214" r="1.173"/>
<circle cx="225.596" cy="213.651" r="1.173"/>
<circle cx="237.052" cy="181.263" r="1.173"/>
<circle cx="223.572" cy="195.902" r="1.172"/>
<circle cx="208.643" cy="163.009" r="1.172"/>
<circle cx="228.795" cy="150.362" r="1.173"/>
<circle cx="229.967" cy="165.113" r="1.173"/>
<circle cx="226.77" cy="175.655" r="1.173"/>
<circle cx="218.996" cy="175.655" r="1.173"/>
<circle cx="220.169" cy="131.685" r="1.173"/>
<circle cx="195.622" cy="118.864" r="1.173"/>
<circle cx="231.14" cy="90.056" r="1.173"/>
<circle cx="206.617" cy="133.709" r="1.173"/>
<circle cx="228.795" cy="200.71" r="1.173"/>
<circle cx="183.842" cy="147.368" r="1.173"/>
<circle cx="217.666" cy="98.559" r="3.355"/>
<circle cx="205.445" cy="113.057" r="3.356"/>
<path d="M337.175,309.004c0,0,75.441,0.217,61.169,64.605C398.344,373.609,406.118,318.61,337.175,309.004z"/>
<path d="M332.923,314.851c0,0,68.625,31.342,29.046,84.097C361.969,398.947,391.753,352.062,332.923,314.851z"/>
<path d="M330.185,321.214c0,0,28.375,51.765-21.131,66.332C309.054,387.546,349.67,372.076,330.185,321.214z"/>
<g>
	<path opacity="0.3" fill="#D09F78" d="M365.615,192.417c-0.128-1.572,0.153-3.203,0.624-4.706c1.084-3.459,2.009-4.748,4.35-7.463
		c0.373-0.434,1.192-1.091,1.963-1.672c-5.533-3.049-13.862-6.163-22.295-3.785c0,0-27.406,18.904,9.225,27.043
		c0,0,3.429-1.106,7.432-3.173C366.036,196.647,365.904,195.937,365.615,192.417z"/>
	<path fill="#D09F78" d="M346.906,194.894c-3.261-0.914-5.363-2.507-6.253-4.731c-1.446-3.623,0.859-7.55,0.959-7.717
		c5.209-8.873,35.954-11.395,37.26-11.499l0.059,0.723c-0.316,0.026-31.676,2.594-36.695,11.146
		c-0.024,0.039-2.223,3.795-0.907,7.081c0.801,2.005,2.743,3.452,5.776,4.299L346.906,194.894z"/>
	<path fill="#D09F78" d="M357.136,204.633c-1.124-0.257-2.148-0.68-3.076-1.259c-5.61-3.527-5.39-11.607-5.378-11.952l0.724,0.025
		c-0.002,0.082-0.215,8.013,5.045,11.313c4.254,2.67,10.854,1.682,19.615-2.932l0.34,0.641
		C367.251,204.238,361.464,205.629,357.136,204.633z"/>
	<path fill="#D09F78" d="M348.271,188.63c0.02-0.338,0.532-8.33,6.416-11.413c4.628-2.418,11.181-1.065,19.479,4.023l-0.38,0.617
		c-8.068-4.947-14.38-6.292-18.761-3.997c-5.524,2.894-6.024,10.731-6.028,10.811L348.271,188.63z"/>
	<g>
		<path fill="#FFFFFF" d="M369.487,186.117c-1.011-5.538-6.492-9.058-12.286-7.845c-5.782,1.205-9.644,6.666-8.643,12.208
			c1.002,5.55,6.499,9.077,12.286,7.864C366.608,197.142,370.488,191.67,369.487,186.117z"/>
		<path fill="#D09F78" d="M356.08,198.662L356.08,198.662c-4.064-0.936-7.157-4.122-7.879-8.12
			c-1.033-5.721,2.972-11.386,8.928-12.626c1.632-0.343,3.261-0.331,4.843,0.033c4.054,0.933,7.145,4.113,7.872,8.102
			c1.034,5.733-2.968,11.406-8.925,12.646C359.291,199.037,357.662,199.026,356.08,198.662z M361.808,178.657
			c-1.478-0.341-3.003-0.35-4.531-0.031c-5.574,1.162-9.326,6.449-8.363,11.789c0.671,3.712,3.548,6.67,7.33,7.542
			c1.479,0.341,3.002,0.351,4.527,0.03c5.574-1.159,9.324-6.456,8.36-11.805C368.453,182.479,365.58,179.524,361.808,178.657z"/>
	</g>
	<path fill="#A97D51" d="M348.638,188.979c-0.365-3.164,1.998-6.101,5.279-6.583c3.286-0.482,6.233,1.682,6.598,4.844
		c0.351,3.156-2.013,6.106-5.294,6.589C351.94,194.305,348.988,192.133,348.638,188.979z"/>
	<path fill="#231F20" d="M348.855,188.323c-0.146-1.268,0.805-2.443,2.115-2.644c1.318-0.188,2.502,0.678,2.65,1.944
		c0.136,1.266-0.807,2.449-2.126,2.641C350.183,190.458,348.998,189.587,348.855,188.323z"/>
	<path fill="#FFFFFF" d="M352.448,186.591c-0.077-0.648,0.405-1.244,1.068-1.339c0.673-0.096,1.267,0.342,1.343,0.986
		c0.072,0.644-0.408,1.244-1.074,1.338C353.112,187.671,352.522,187.227,352.448,186.591z"/>
</g>
<g>
	<path opacity="0.3" fill="#D09F78" d="M284.507,175.483c0,0,23.208-16.373,43.14-9.082c0,0,34.943,29.785-19.264,38.049
		C308.383,204.45,278.705,192.243,284.507,175.483z"/>
	<path fill="#D09F78" d="M327.965,195.646l-0.209-1.026c4.689-0.97,7.854-2.972,9.415-5.951c2.383-4.556,0.174-9.943,0.153-9.995
		c-5.245-12.755-49.478-19.397-49.927-19.463l0.151-1.038c1.848,0.27,45.271,6.798,50.735,20.094
		c0.098,0.234,2.421,5.88-0.188,10.883C336.386,192.425,332.978,194.612,327.965,195.646z"/>
	<path fill="#D09F78" d="M302.944,208.268c-4.639-1.074-9.836-3.474-15.562-7.195l0.565-0.881
		c11.238,7.302,20.305,9.411,26.961,6.274c8.682-4.096,10.205-15.941,10.223-16.061l1.032,0.126
		c-0.062,0.511-1.613,12.542-10.812,16.885C311.816,209.082,307.67,209.363,302.944,208.268z"/>
	<path fill="#D09F78" d="M326.333,186.448c0.011-0.11,1.022-11.106-5.856-15.881c-5.706-3.959-15.141-2.69-28.029,3.796
		l-0.467-0.938c13.26-6.671,23.053-7.917,29.094-3.72c7.384,5.128,6.343,16.371,6.297,16.847L326.333,186.448z"/>
	<g>
		<path fill="#FFFFFF" d="M297.608,180.885c2.688-7.87,11.317-12.419,19.331-10.13c7.995,2.275,12.295,10.501,9.615,18.377
			c-2.679,7.896-11.329,12.452-19.336,10.163C299.247,197.024,294.931,188.785,297.608,180.885z"/>
		<path fill="#D09F78" d="M307.855,199.998c-0.26-0.059-0.521-0.126-0.779-0.199c-4.001-1.139-7.242-3.757-9.125-7.369
			c-1.878-3.605-2.175-7.766-0.837-11.715c2.685-7.854,11.11-12.539,19.187-10.668c0.261,0.061,0.521,0.127,0.781,0.201
			c4.017,1.145,7.263,3.764,9.141,7.375c1.87,3.592,2.163,7.739,0.825,11.679C324.375,197.176,315.946,201.873,307.855,199.998z
			 M316.067,171.068c-7.562-1.751-15.455,2.633-17.967,9.985c-1.245,3.676-0.972,7.542,0.774,10.887
			c1.748,3.355,4.76,5.791,8.486,6.849c7.771,2.243,16.119-2.216,18.701-9.826c1.246-3.665,0.975-7.519-0.761-10.854
			c-1.746-3.355-4.766-5.787-8.504-6.851C316.553,171.188,316.312,171.125,316.067,171.068z"/>
	</g>
	<path fill="#A97D51" d="M317.338,186.829c1.229-4.514-1.485-8.964-6.073-9.968c-4.593-1.005-9.291,1.831-10.522,6.345
		c-1.208,4.514,1.505,8.977,6.09,9.984C311.42,194.185,316.124,191.337,317.338,186.829z"/>
	<path fill="#231F20" d="M312.29,185.921c0.554-2.031-0.67-4.016-2.717-4.477c-2.062-0.441-4.169,0.821-4.716,2.845
		c-0.545,2.03,0.668,4.026,2.727,4.475C309.643,189.214,311.744,187.937,312.29,185.921z"/>
	<path fill="#FFFFFF" d="M314.399,183.36c0.282-1.031-0.34-2.04-1.375-2.267c-1.047-0.229-2.111,0.418-2.393,1.443
		c-0.278,1.028,0.337,2.04,1.376,2.268C313.061,185.031,314.122,184.384,314.399,183.36z"/>
</g>
<path d="M259.169,178.386c0,0,33.383-60.829,82.781,0.221C341.95,178.607,297.895,147.416,259.169,178.386z"/>
<path d="M351.294,178.475c0,0,16.22-27.244,27.203-10.542C389.481,184.635,371.003,165.54,351.294,178.475z"/>
<radialGradient id="SVGID_1_" cx="854.0811" cy="4492.1641" r="32.895" gradientTransform="matrix(7.4908 0 0 0.0932 -6100.9473 75.65)" gradientUnits="userSpaceOnUse">
	<stop  offset="0" style="stop-color:#010101"/>
	<stop  offset="1" style="stop-color:#FFFFFF;stop-opacity:0"/>
</radialGradient>
<path opacity="0.29" fill="url(#SVGID_1_)" d="M543.188,494.319c0-1.694-110.314-3.065-246.379-3.065
	c-136.086,0-246.383,1.371-246.383,3.065c0,1.692,110.297,3.066,246.383,3.066C432.873,497.386,543.188,496.012,543.188,494.319z"/>
<radialGradient id="SVGID_2_" cx="1985.2812" cy="4492.1641" r="32.896" gradientTransform="matrix(4.7401 0 0 0.0932 -9128.7236 75.65)" gradientUnits="userSpaceOnUse">
	<stop  offset="0" style="stop-color:#010101"/>
	<stop  offset="1" style="stop-color:#FFFFFF;stop-opacity:0"/>
</radialGradient>
<path opacity="0.29" fill="url(#SVGID_2_)" d="M437.627,494.319c0-1.694-69.813-3.065-155.926-3.065
	c-86.1,0-155.912,1.371-155.912,3.065c0,1.692,69.812,3.066,155.912,3.066C367.813,497.386,437.627,496.012,437.627,494.319z"/>
<radialGradient id="SVGID_3_" cx="1985.2812" cy="4497.0859" r="32.9038" gradientTransform="matrix(4.7401 0 0 0.0932 -9128.7236 75.65)" gradientUnits="userSpaceOnUse">
	<stop  offset="0" style="stop-color:#010101"/>
	<stop  offset="1" style="stop-color:#FFFFFF;stop-opacity:0"/>
</radialGradient>
<path opacity="0.29" fill="url(#SVGID_3_)" d="M437.627,494.779c0-1.694-69.813-3.068-155.926-3.068
	c-86.1,0-155.912,1.374-155.912,3.068c0,1.692,69.812,3.066,155.912,3.066C367.813,497.846,437.627,496.472,437.627,494.779z"/>
<path d="M383.596,69.412h3.021c-6.982-13.961-21.817-22.134-21.817-22.134l7.753,3.096C361.8,39.262,350.96,35.062,345.022,33.501
	c-0.525-0.307-1.046-0.6-1.569-0.896h5.388c-8.157-8.717-32.352-11.725-32.352-11.725l9.674,0.236
	c-17.298-8.632-36.768-4.016-36.768-4.016c6.541-3.446,20.318-3.217,20.318-3.217c-18.2-3.808-30.559,7.233-30.559,7.233v0
	c0,0-0.001,0-0.002,0l0.002-0.001c0,0-18.434-1.621-28.926,3.625c0,0,11.86-1.836,17.471,0c0,0-14.322-0.787-30.321,8.13
	c0,0,9.441-3.672,16.523-2.885c0,0-17.047,3.672-29.637,18.36c0,0,9.469-6.223,15.75-6.652c0,0-17.815,7.874-25.705,23.7
	l3.355-1.009c0,0-15.021,14.712-20.079,32.12l0,0c-2.966,5.667-4.48,9.224-4.48,9.224c66.421-62.455,153.916,3.971,153.916,3.971
	c8.003,1.257,7.554,0,7.554,0c8.518-1.558,17.977-13.262,17.977-13.262c-3.274,6.716-6.014,10.418-6.014,10.418
	c10.066-4.76,15.244-17.972,15.244-17.972c0.244,2.654-1.514,9.796-1.514,9.796c7.298-9.762,6.348-21.017,6.348-21.017
	c2.537,1.585,3.489,6.346,3.489,6.346C391.058,76.71,383.596,69.412,383.596,69.412z"/>
</svg>
