<?xml version="1.0" encoding="utf-8"?>
<!-- Generator: Adobe Illustrator 16.0.0, SVG Export Plug-In . SVG Version: 6.00 Build 0)  -->
<!DOCTYPE svg PUBLIC "-//W3C//DTD SVG 1.1//EN" "http://www.w3.org/Graphics/SVG/1.1/DTD/svg11.dtd">
<svg version="1.1" id="Layer_1" xmlns="http://www.w3.org/2000/svg" xmlns:xlink="http://www.w3.org/1999/xlink" x="0px" y="0px"
	 width="480px" height="500px" viewBox="0 0 480 500" enable-background="new 0 0 480 500" xml:space="preserve">
<g>
	<path fill="#E9C09B" d="M339.286,296.761c0,0-42.019,25.581-93.218,7.114l2.229-6.622c0,0,41.437,14.552,88.604-6.739"/>
	<path fill="#50A283" d="M248.297,297.253c0,0,12.34,4.317,31.195,4.8c-0.421,2.767-0.458,5.6-0.092,8.408
		c-10.367-0.442-21.607-2.357-33.332-6.586L248.297,297.253z"/>
	<path fill="#E9C09B" d="M155.68,363.293c0,0,8.225-48.5,55.733-75.062l3.539,6.025c0,0-38.152,21.755-52.993,71.33"/>
	<path fill="#50A283" d="M214.952,294.257c0,0-11.35,6.488-24.075,20.411c-1.813-2.132-3.928-4.017-6.29-5.583
		c7.133-7.536,15.946-14.771,26.826-20.854L214.952,294.257z"/>
	<path fill="#8E6D3B" d="M221.358,55.637c0,0-34.815-31.987-54.734,10.589c0,0,13.265-15.264,22.935-9.396
		c0,0-27.702,15.943-29.719,32.403c0,0,15.987-4.56,22.273-2.755c0,0-12.111,22.389-3.5,37.666l1.645-6.238
		c0,0-5.543,16.333,11.152,42.14l95.645-9.871c0,0,18.802-31.592,10.163-46.083c0,0,4.201,0.943,5.436,5.711
		c1.236,4.771,2.103-18.819-6.913-23.087c0,0,1.728-8.6,10.04-4.357c0,0-8.198-7.386-13.133-7.568c0,0,1.899-13.315,11.449-4.304
		c0,0-1.129-26.812-34.43-23.309c0,0,1.668-7.028,16.528-8.058c0,0-27.143-10.445-36.881,4.947c0,0-0.13-15.754,2.947-22.727
		c0,0-12.502,13.714-12.849,23.148c0,0-15.689-14.748-31.96-13.77C207.453,30.718,220.472,41.432,221.358,55.637z"/>
	<polygon fill="#414142" points="210.552,329.947 247.58,329.349 244.625,483.842 241.471,483.463 243.295,368.476 214.848,365.283 
		212.947,482.58 209.905,482.689 	"/>
	<polygon fill="#50A283" points="252.028,361.644 254.858,276.797 200.599,276.552 206.606,359.17 	"/>
	<path fill="#09080A" d="M244.721,483.804c0,0,2.589,4.423,9.189,4.624l0.135,1.362c0,0-8.469,0.402-10.889-3.723l0.072,3.088
		l-2.802-0.363l1.054-5.571L244.721,483.804z"/>
	<path fill="#09080A" d="M209.543,482.646c0,0-2.875,4.239-9.474,4.036l-0.221,1.352c0,0,8.438,0.933,11.112-3.039l-0.269,3.089
		l2.826-0.216l-0.709-5.617L209.543,482.646z"/>
	<polygon fill="#FFFFFF" points="252.17,358.663 206.588,355.229 206.606,359.17 252.028,361.644 	"/>
	<path fill="#E9C09B" d="M285.562,191.045c0,0,22.804-36.807,4.795-62.132c0,0-4.281-53.833-86.611-36.092
		c0,0-59.056-7.124-49.03,87.097l15.651,26.808c-21.268,54.741,12.263,76.694,41.566,86.14c4.406,6.385,13.832,14.163,33.371,12.905
		c0.684-1.467,1.526-2.88,2.538-4.212c5.065-6.675,10.401-13.146,15.161-20.048c3.648-5.29,9.401-8.336,15.499-9.152
		c10.673-14.776,20.173-32.902,22.22-48.089C303.792,201.473,285.562,191.045,285.562,191.045z"/>
	<path fill="#D09F78" d="M162.941,239.188c0,0,5.457-3.691,6.66-8.425c0,0-0.957,8.593-5.624,12.589L162.941,239.188z"/>
	<path fill="#D09F78" d="M276.539,202.683c0,0-15.188,29.071-36.968,2.661C239.571,205.344,258.076,218.085,276.539,202.683z"/>
	<g>
		<path fill="#CA8C84" d="M221.648,228.25c0,0-14.587,27.358-1.605,39.12c0,0-27.491,1.154-30.189-1.046
			c0,0-3.849-2.36-2.289-12.354c0,0,7.375-32.064,13.194-40.972C200.759,212.998,215.896,227.653,221.648,228.25z"/>
		<path fill="#6D312B" d="M205.834,267.301c0,0-4.051-29.247-15.617-24.206c0,0-7.063,23.946,2.35,24.157L205.834,267.301z"/>
		<path fill="#FFFFFF" d="M239.594,267.288l-1.327-11.53l-50.676,6.92c0,0,0.285,4.811,6.331,5.2L239.594,267.288z"/>
		<path fill="#A38060" d="M212.858,208.019c0,0-16.862-7.252-23.189,10.706C189.669,218.725,196.261,206.576,212.858,208.019z"/>
		<path fill="#FFFFFF" d="M273.464,237.204l0.964,11.222c0,0-50.718,14.062-78.18-25.228l4.511-10.201
			C200.759,212.998,235.71,250.321,273.464,237.204z"/>
		<path fill="none" stroke="#A38060" stroke-width="3.319" d="M237.064,274.888c11.198,2.923,5.773-7.749,5.773-7.749
			s-34.733,1.073-50.27,0.113c-15.549-0.976,8.191-54.254,8.191-54.254c39.612,35.071,67.31,29.774,84.181,18.004"/>
		<polygon fill="#CA8C84" points="192.385,241.486 191.899,249.056 189.968,249.205 189.933,250.989 196.624,250.995 
			196.439,248.403 194.081,248.125 194.63,242.96 		"/>
	</g>
	<path opacity="0.23" fill="#8E6D3B" d="M285.938,115.107c0,0-33.463,32.14-69.239-9.467c0,0-11.52,20.823-30.169,22.555
		l28.756-27.667l13.201,9.913l40.42,2.32l12.32-5.6L285.938,115.107z"/>
	<path fill="#8E6D3B" d="M296.978,157.732c0,0,0.079-10.623-5.908-25.5c0,0-4.508-20.45-9.02-23.296c0,0-20.429,12.39-36.429,10.726
		c-15.226-1.583-28.922-14.021-28.922-14.021s-26.22,34.131-55.557,22.338l11.979,30.458l-6.577,8.461l10.031,42.842l-13.543,1.88
		c0,0-55.987-78.067,21.899-126.844C184.931,84.776,306.917,67.197,296.978,157.732z"/>
	<path fill="#E9C09B" d="M164.776,180.483c0,0-9.123-21.453-27.521-8.45c-22.941,16.226,13.184,32.693,13.184,32.693
		s11.423,5.378,5.706,17.725c-5.722,12.349-6.242,17.034-1.969,19.1c4.269,2.05,13.826-1.161,15.015-8.79
		C174.327,199.824,164.776,180.483,164.776,180.483z"/>
	<g>
		<path fill="#D09F78" d="M164.031,203.366c0,0-14.06-43.238-17.152-10.417C146.879,192.949,152.063,174.98,164.031,203.366z"/>
		<path fill="#D09F78" d="M164.15,203.494c0,0-10.702-21.807-8.258,5.309C155.893,208.803,156.002,191.532,164.15,203.494z"/>
	</g>
	<path fill="#A9834F" d="M231.29,108.127c0,0,20.575-20.923-3.545-57.759C227.745,50.368,244.383,72.651,231.29,108.127z"/>
	<path fill="#A9834F" d="M247.846,112.085c0,0,30.504-14.001,5.482-44.425C253.328,67.66,271.133,86.262,247.846,112.085z"/>
	<path fill="#A9834F" d="M263.57,109.611c0,0,26.685-4.524,13.563-33.45C277.134,76.161,287.109,94.37,263.57,109.611z"/>
	<path fill="#A9834F" d="M201.551,102.787c0,0-24.033-7.384-37.516,16.598C164.035,119.384,178.797,103.095,201.551,102.787z"/>
	<path fill="#A9834F" d="M166.015,149.304c0,0-5.103,13.314-21.578,4.651C144.437,153.955,158.409,156.666,166.015,149.304z"/>
	<g>
		
			<radialGradient id="SVGID_1_" cx="1314.2383" cy="4402.6367" r="81.7739" gradientTransform="matrix(-1.9291 0 0 0.0671 2764.3281 193.2913)" gradientUnits="userSpaceOnUse">
			<stop  offset="0" style="stop-color:#010101"/>
			<stop  offset="1" style="stop-color:#FFFFFF;stop-opacity:0"/>
		</radialGradient>
		<path opacity="0.29" fill="url(#SVGID_1_)" d="M71.304,488.708c0-3.032,70.622-5.487,157.73-5.487
			c87.117,0,157.729,2.455,157.729,5.487c0,3.029-70.612,5.488-157.729,5.488C141.926,494.196,71.304,491.737,71.304,488.708z"/>
		
			<radialGradient id="SVGID_2_" cx="2707.8438" cy="4414.8906" r="81.8027" gradientTransform="matrix(-1.2207 0 0 0.0671 3544.165 193.2913)" gradientUnits="userSpaceOnUse">
			<stop  offset="0" style="stop-color:#010101"/>
			<stop  offset="1" style="stop-color:#FFFFFF;stop-opacity:0"/>
		</radialGradient>
		<path opacity="0.29" fill="url(#SVGID_2_)" d="M138.883,489.528c0-3.03,44.69-5.489,99.819-5.489
			c55.122,0,99.814,2.459,99.814,5.489c0,3.034-44.692,5.493-99.814,5.493C183.573,495.021,138.883,492.562,138.883,489.528z"/>
	</g>
	<g>
		<path fill="#E9C09B" d="M169.83,360.739c-4.975-4.191-10.654-5.965-12.62-3.942c-1.966,2.023-6.837,3.198-10.825,2.611
			c-3.988-0.588-7.667,0.98-8.176,3.485c-0.509,2.505,2.584,4.612,6.874,4.685c4.29,0.072,4.513,3.833,0.495,8.357
			c-4.018,4.525-5.731,9.751-3.808,11.613c1.923,1.861,6.642-0.442,10.485-5.12s6.144-4.545,5.112,0.295
			c-1.032,4.84-0.225,9.376,1.794,10.081s4.932-3.89,6.473-10.209l0.178-0.731c1.542-6.319,4.394-9.698,6.339-7.509
			c1.945,2.19,5.202,2.536,7.238,0.77c2.036-1.768-0.369-6.643-5.344-10.834L169.83,360.739z"/>
	</g>
	<g>
		<path fill="#E9C09B" d="M331.528,292.291c-0.815,6.453,0.781,12.185,3.548,12.736c2.768,0.551,6.4,4.002,8.074,7.67
			c1.673,3.667,4.988,5.903,7.367,4.969c2.38-0.934,2.469-4.676,0.198-8.316c-2.271-3.642,0.767-5.872,6.749-4.957
			c5.981,0.914,11.3-0.486,11.818-3.113c0.518-2.626-3.98-5.335-9.996-6.02c-6.015-0.686-7.153-2.688-2.529-4.452
			c4.623-1.764,7.993-4.906,7.488-6.983c-0.506-2.077-5.945-2.027-12.088,0.112l-0.712,0.248c-6.143,2.14-10.529,1.58-9.747-1.243
			c0.781-2.822-0.698-5.744-3.288-6.492c-2.59-0.749-5.376,3.919-6.191,10.372L331.528,292.291z"/>
	</g>
	<path fill="#8E6D3B" d="M190.738,282.357c0,0,15.856-17.034,27.791-3.765c11.935,13.269,35.918,17.239,45.908-6.463
		c9.991-23.704,21.899-2.783,14.664,5.691C271.866,286.297,239.604,353.64,190.738,282.357z"/>
	<g>
		<path fill="#E6E6E5" stroke="#818181" stroke-width="4.3182" d="M316.514,276.237c-1.805,2.01-1.639,5.102,0.371,6.906
			l60.187,54.049c2.009,1.806,5.102,1.639,6.905-0.37l31.507-35.083c1.804-2.011,1.641-5.102-0.372-6.909l-60.185-54.046
			c-2.009-1.806-5.102-1.64-6.907,0.369L316.514,276.237z"/>
		<path fill="#818181" d="M329.834,274.026c-1.805,2.012-1.639,5.103,0.373,6.907l47.633,42.778c2.01,1.804,5.102,1.639,6.906-0.37
			l4.737-5.275c1.804-2.009,1.637-5.102-0.372-6.907l-47.635-42.776c-2.01-1.806-5.1-1.64-6.905,0.37L329.834,274.026z"/>
		<path fill="#818181" d="M329.834,274.026c-1.805,2.012-1.639,5.103,0.373,6.907l47.633,42.778c2.01,1.804,5.102,1.639,6.906-0.37
			l4.737-5.275c1.804-2.009,1.637-5.102-0.372-6.907l-47.635-42.776c-2.01-1.806-5.1-1.64-6.905,0.37L329.834,274.026z"/>
		<path fill="#676767" d="M334.695,279.661c-1.457,1.621-1.322,4.117,0.3,5.574l38.057,34.175c1.62,1.458,4.117,1.323,5.573-0.299
			l3.883-4.324c1.457-1.621,1.323-4.117-0.299-5.574l-38.057-34.175c-1.621-1.458-4.118-1.324-5.573,0.299L334.695,279.661z"/>
		<circle fill="#ED2224" cx="349.54" cy="255.943" r="4.076"/>
		
			<rect x="314.446" y="238.16" transform="matrix(-0.744 -0.6682 0.6682 -0.744 397.2134 656.9764)" fill="#E6E6E5" stroke="#818181" stroke-width="4.3182" width="20.033" height="28.468"/>
		<polygon fill="#E6E6E5" stroke="#818181" stroke-width="4.3182" stroke-linecap="round" stroke-linejoin="round" points="
			293.057,258.176 307.606,256.174 326.395,235.25 326.252,221.209 		"/>
		
			<rect x="326.587" y="247.522" transform="matrix(-0.7441 -0.6681 0.6681 -0.7441 400.4137 665.3059)" fill="#818181" width="2.109" height="16.869"/>
		
			<rect x="322.663" y="243.999" transform="matrix(-0.744 -0.6681 0.6681 -0.744 395.9114 656.5438)" fill="#818181" width="2.111" height="16.871"/>
		
			<rect x="318.606" y="240.829" transform="matrix(-0.7439 -0.6683 0.6683 -0.7439 391.8078 648.6681)" fill="#818181" width="3.162" height="16.87"/>
		<g>
			
				<rect x="349.577" y="273.535" transform="matrix(0.7704 0.6376 -0.6376 0.7704 266.6865 -176.0915)" fill="#919396" width="56.498" height="17.365"/>
			<g>
				<path fill="#FFFFFF" d="M366.964,268.936l-4.318,5.219l-0.965-0.799l1.864-2.254l-2.222-1.837l-1.863,2.253l-0.958-0.793
					l4.318-5.218l0.957,0.792l-1.766,2.135l2.221,1.838l1.767-2.135L366.964,268.936z"/>
				<path fill="#FFFFFF" d="M371.601,272.771l-0.689,0.833l-1.521-1.26l-3.63,4.387l-0.949-0.786l3.63-4.388l-1.484-1.227
					l0.689-0.832L371.601,272.771z"/>
				<path fill="#FFFFFF" d="M375.993,276.407l1.044,0.865l-4.036,5.451l-0.91-0.753l2.778-3.757
					c-0.008-0.006-0.017-0.013-0.017-0.013l-3.702,2.013l-0.722-0.597l1.291-3.956c0,0-0.008-0.006-0.017-0.014l-3.144,3.401
					l-0.91-0.754l4.616-4.972l1.067,0.883l-1.522,4.492c0,0,0.008,0.006,0.017,0.013L375.993,276.407z"/>
				<path fill="#FFFFFF" d="M378.347,278.355l0.957,0.792l-3.63,4.386l2.213,1.832l-0.688,0.831l-3.171-2.623L378.347,278.355z"/>
				<path fill="#FFFFFF" d="M376.988,286.976l7.772-4.504l0.574,0.967l-7.794,4.498L376.988,286.976z"/>
				<path fill="#FFFFFF" d="M385.581,291.032l-0.025,1.037c-0.921,0.059-1.682-0.188-2.365-0.753c-1.42-1.176-1.588-2.809-0.107-4.6
					c1.695-2.047,3.516-1.69,4.631-0.769c0.611,0.507,1.093,1.314,0.982,2.454l-1.092-0.071c0.015-0.688-0.137-1.225-0.606-1.614
					c-0.809-0.669-1.901-0.435-2.882,0.749c-0.994,1.201-1.171,2.311-0.214,3.104C384.342,290.933,384.896,291.061,385.581,291.032z
					"/>
				<path fill="#FFFFFF" d="M386.79,292.126c0.143,0.435,0.533,1.207,1.075,1.655c0.415,0.345,0.949,0.562,1.437-0.026
					c0.41-0.494,0.085-1.013-0.34-1.617c-0.603-0.854-1.071-1.759-0.24-2.763c0.793-0.957,2.011-0.927,3.038-0.076
					c0.731,0.604,1.124,1.471,1.188,2.225l-1.036,0.213c-0.128-0.676-0.395-1.265-0.825-1.622c-0.354-0.292-0.894-0.487-1.296-0.001
					s-0.07,1.013,0.368,1.68c0.526,0.818,1.026,1.749,0.188,2.761c-0.856,1.035-2.056,0.981-3.185,0.048
					c-0.77-0.637-1.27-1.565-1.374-1.983L386.79,292.126z"/>
				<path fill="#FFFFFF" d="M390.925,295.547c0.141,0.435,0.532,1.208,1.074,1.656c0.416,0.344,0.95,0.562,1.438-0.027
					c0.408-0.493,0.085-1.013-0.341-1.617c-0.602-0.854-1.071-1.758-0.239-2.763c0.792-0.956,2.011-0.928,3.038-0.077
					c0.729,0.604,1.123,1.472,1.187,2.226l-1.036,0.214c-0.129-0.676-0.394-1.266-0.825-1.623c-0.353-0.291-0.893-0.486-1.295-0.001
					c-0.402,0.487-0.071,1.013,0.367,1.682c0.527,0.817,1.025,1.747,0.188,2.759c-0.857,1.037-2.057,0.983-3.186,0.048
					c-0.77-0.636-1.269-1.566-1.373-1.983L390.925,295.547z"/>
			</g>
		</g>
		<rect x="358.603" y="257.327" opacity="0.5" fill="#FFFFFF" width="7.49" height="3.522"/>
		<rect x="389.753" y="302.933" opacity="0.5" fill="#FFFFFF" width="9.453" height="4.444"/>
	</g>
	<g>
		
			<ellipse transform="matrix(0.9997 0.0248 -0.0248 0.9997 4.588 -5.3563)" opacity="0.39" fill="#D09F78" cx="218.319" cy="182.363" rx="21.971" ry="14.808"/>
		<path fill="#FFFFFF" d="M240.141,182.307c-0.127,6.228-5.952,11.442-13.021,11.625c-7.05,0.183-12.659-4.723-12.527-10.964
			c0.12-6.236,5.947-11.448,12.996-11.626C234.651,171.156,240.257,176.064,240.141,182.307z"/>
		<path fill="#231F20" d="M238.577,185.13c0,1.38-0.786,2.523-1.75,2.551c-0.963,0.031-1.734-1.069-1.726-2.451
			c0.006-1.381,0.789-2.524,1.751-2.552C237.817,182.651,238.587,183.747,238.577,185.13z"/>
	</g>
	<g>
		<path opacity="0.39" fill="#D09F78" d="M262.164,182.454c0.114,6.152,5.727,10.955,12.535,10.729
			c6.812-0.226,12.24-5.396,12.125-11.547c-0.113-6.152-5.727-10.955-12.537-10.729C267.478,171.131,262.05,176.302,262.164,182.454
			z"/>
		<path fill="#FFFFFF" d="M262.245,182.002c0.071,4.686,3.34,8.608,7.31,8.745c3.957,0.138,7.105-3.553,7.032-8.248
			c-0.068-4.692-3.339-8.613-7.297-8.748C265.326,173.613,262.179,177.305,262.245,182.002z"/>
	</g>
	<path fill="#231F20" d="M269.416,185.13c-0.001,1.38-0.788,2.523-1.751,2.551c-0.962,0.031-1.733-1.069-1.726-2.451
		c0.006-1.381,0.789-2.524,1.751-2.552C268.656,182.651,269.426,183.747,269.416,185.13z"/>
	<path fill="#8E6D3B" d="M185.315,167.849c0,0,38.507-62.018,62.53-3.516l-5.969,6.564
		C241.877,170.898,229.467,125.081,185.315,167.849z"/>
	<path fill="#8E6D3B" d="M255.516,163.663v10.085c0,0,19.898-19.858,37.161,2.063C292.677,175.812,287.302,148.176,255.516,163.663z
		"/>
</g>
</svg>
