<?xml version="1.0" encoding="utf-8"?>
<!-- Generator: Adobe Illustrator 16.0.0, SVG Export Plug-In . SVG Version: 6.00 Build 0)  -->
<!DOCTYPE svg PUBLIC "-//W3C//DTD SVG 1.1//EN" "http://www.w3.org/Graphics/SVG/1.1/DTD/svg11.dtd">
<svg version="1.1" id="Layer_1" xmlns="http://www.w3.org/2000/svg" xmlns:xlink="http://www.w3.org/1999/xlink" x="0px" y="0px"
	 width="480px" height="500px" viewBox="0 0 480 500" enable-background="new 0 0 480 500" xml:space="preserve">
<g>
	<g>
		<path d="M150.687,126.37c-20.267-7.37-5.526-70.015,14.741-70.937c1.84-32.244,41.455-38.691,63.565-43.299
			c24.875-5.526,46.982,2.766,70.014,11.978c10.134,3.686,23.952,4.607,22.11,20.267c23.953,6.449,42.378,93.967,14.741,98.574"/>
	</g>
	<g>
		<path fill="#A97D51" d="M143.134,262.749l-9.082,14.919c0,0,266.927,156.981,284.778,155.402
			C436.679,431.489,143.134,262.749,143.134,262.749z"/>
		<polygon fill="#D1D2D3" points="147.392,263.863 143.686,260.829 132.713,279.937 137.983,281.51 		"/>
		<path fill="#D1D2D3" d="M144.065,264.481c0,0-11.265-12.846-25.538-11.969l-6.166,9.558c0,0,12.975,18.358,25.895,16.038
			L144.065,264.481z"/>
		<path fill="#131313" d="M121.375,252.518c0,0-4.411-42.332-40.028-31.453c-35.611,10.873-34.381-23.658-34.381-23.658
			s-17.583,114.701,66.649,66.55L121.375,252.518z"/>
		<path fill="#2AA6DD" d="M71.284,223.044c-6.44,7.974-12.564,16.256-18.712,24.341c-1.027,1.351-2.046,2.707-3.063,4.057
			c-7.29-23.011-2.543-54.036-2.543-54.036S46.01,224.996,71.284,223.044z"/>
		<path fill="#2AA6DD" d="M71.503,223.011c1.987,1.026,4.334,1.034,6.318,2.06c4.212,2.417,1.383,2.469-1.388,3.004
			c-8.25,1.307-2.064,7.098,1.184,10.419c8.107,7.902-6.692,2.872-9.229,6.12c-1.869,2.277-0.074,5.776-4.407,5.528
			c-4.206-0.07-5.64-3.81-9.09,0.818c-1.082,1.502-3.285,6.707-4.279,4.151c-0.456-1.17-1.012-3.23-1.126-3.668l1.763-11.863
			c0,0,6.626-4.923,7.173-5.284C58.963,233.937,71.503,223.011,71.503,223.011z"/>
	</g>
	<path opacity="0.15" fill="#211F1F" d="M237.266,489.18c-84.14,0-152.353,0.99-152.353,2.211c0,1.226,68.212,2.216,152.353,2.216
		c84.148,0,152.372-0.99,152.372-2.216C389.638,490.17,321.414,489.18,237.266,489.18z"/>
	<path fill="#5B5C5D" d="M208.211,307.605c0.001-0.771,0.09-1.533,0.245-2.287h0.004c2.613-12.731,25.691-23.175,28.316-23.941
		c-0.018,0.007-0.328,0.093-0.834,0.157l-2.265-8.24c-3.979,0.493-13.321,5.274-19.548,9.429
		c-5.648,3.767-12.309,9.234-15.851,15.761c0-0.001-0.008-0.002-0.008-0.002c-0.058,0.108-0.114,0.216-0.171,0.327
		c-0.052,0.097-0.105,0.191-0.155,0.287c-0.201,0.403-0.393,0.812-0.575,1.224c-0.029,0.071-0.063,0.146-0.093,0.22
		c-0.188,0.443-0.36,0.886-0.513,1.336c-0.008,0.024-0.022,0.042-0.026,0.062h0.003c-0.322,0.929-0.57,1.874-0.735,2.835
		c-1.185,6.86,1.817,13.38,8.938,19.38c7.748,6.532,20.589,12.483,38.162,17.689l5.015-7.674
		C221.609,326.318,208.182,317.381,208.211,307.605z"/>
	<path fill="#5B5C5D" d="M323.488,307.605c-0.002-0.771-0.092-1.533-0.247-2.287h-0.003c-2.614-12.731-25.692-23.175-28.315-23.941
		c0.018,0.007,0.326,0.093,0.832,0.157l2.266-8.24c3.979,0.493,13.322,5.274,19.549,9.429c5.647,3.767,12.308,9.234,15.852,15.761
		c0-0.001,0.006-0.002,0.006-0.002c0.059,0.108,0.116,0.216,0.174,0.327c0.05,0.097,0.104,0.191,0.152,0.287
		c0.201,0.403,0.395,0.812,0.577,1.224c0.029,0.071,0.063,0.146,0.093,0.22c0.186,0.443,0.36,0.886,0.514,1.336
		c0.006,0.024,0.021,0.042,0.024,0.062h-0.002c0.319,0.929,0.57,1.874,0.734,2.835c1.187,6.86-1.817,13.38-8.938,19.38
		c-7.748,6.532-20.588,12.483-38.162,17.689l-5.015-7.674C310.091,326.318,323.517,317.381,323.488,307.605z"/>
	<polygon fill="#424242" points="245.62,320.993 291.446,320.253 287.789,485.407 283.888,484.935 286.141,368.675 250.938,364.725 
		248.584,483.847 244.819,483.98 	"/>
	<polygon fill="#231F20" points="296.949,360.219 300.449,255.219 233.304,254.913 240.74,357.156 	"/>
	<path fill="#0B0A0C" d="M287.906,485.361c0,0,3.206,5.471,11.371,5.722l0.164,1.687c0,0-10.478,0.496-13.469-4.608l0.085,3.819
		l-3.467-0.447l1.304-6.896L287.906,485.361z"/>
	<path fill="#0B0A0C" d="M244.372,483.924c0,0-3.559,5.246-11.723,4.997l-0.275,1.671c0,0,10.442,1.152,13.751-3.761l-0.331,3.823
		l3.499-0.269l-0.884-6.948L244.372,483.924z"/>
	<polygon fill="#231F20" stroke="#FFFFFF" stroke-width="0.4227" stroke-miterlimit="10" points="246.325,312.129 247.1,314.026 
		249.021,307.18 243.207,310.836 245.287,311.343 242.985,314.464 244.004,315.244 	"/>
	<polygon fill="#5A5A5D" points="286.821,284.504 280.457,385.581 309.762,387.27 300.376,282.508 	"/>
	<polygon fill="#414141" points="286.388,285.111 298.019,296.91 293.535,300.186 299.726,303.121 282.645,352.306 	"/>
	<g>
		<g>
			<defs>
				<polygon id="SVGID_1_" points="232.428,256.194 226.061,387.27 255.367,384.236 249.021,253.708 				"/>
			</defs>
			<defs>
				<polygon id="SVGID_2_" points="250.312,285.543 240.377,294.093 245.055,298.367 240.377,301.842 253.474,352.875 				"/>
			</defs>
			<use xlink:href="#SVGID_1_"  overflow="visible" fill="#5A5A5D"/>
			<use xlink:href="#SVGID_2_"  overflow="visible" fill="#414141"/>
			<clipPath id="SVGID_3_">
				<use xlink:href="#SVGID_1_"  overflow="visible"/>
			</clipPath>
			<clipPath id="SVGID_4_" clip-path="url(#SVGID_3_)">
				<use xlink:href="#SVGID_2_"  overflow="visible"/>
			</clipPath>
		</g>
	</g>
	<path d="M343.143,199.065c0,52.128-36.873,94.391-82.371,94.391c-45.494,0-82.376-42.263-82.376-94.391
		c0-52.131,36.883-94.393,82.376-94.393C306.27,104.673,343.143,146.935,343.143,199.065z"/>
	<path d="M154.471,107.058c-0.65,52.254,42.542,81.344,95.021,81.344c52.472,0,95.018-36.415,95.018-81.344
		c0-44.917-42.546-81.341-95.018-81.341C197.014,25.717,155.035,62.144,154.471,107.058z"/>
	<path fill="#E6BD98" d="M185.439,208.691c0,0,13.937,62.288,67.392,80.757c0,0,124.866,3.841,83.46-154.396
		c0,0,34.742-92.523-81.456-87.909c-116.193,4.612-76.366,119.997-76.366,119.997L185.439,208.691z"/>
	<path d="M247.407,205.596c11.96-4.879,25.933-5.498,39.133-1.879c14.217,3.894,30.358,11.497,34.884,27.451
		c7.899,27.833-20.193,56.355-44.418,61.02c-12.88,2.48-27.968,1.454-38.929-6.337c-3.141-2.229-6.382-5.006-8.843-7.963
		c-8.177-9.819-14.007-20.757-11.827-33.905C220.647,224.472,232.459,211.7,247.407,205.596z"/>
	<path fill="#E6BD98" d="M237.846,237.711c0.69-1.85,1.546-3.601,2.525-5.181c7.225-11.688,24.15-15.697,36.421-13.364
		c27.191,5.157,32.209,20.636,30.688,32.947c-0.969,7.812-7.396,12.96-13.831,16.565c-4.767,2.666-12.015,4.55-14.688-2.065
		c-0.602-1.481-0.603-3.059-0.121-4.574c0.379-1.171,1.087-3.38,2.105-4.119c0.711-0.521,7.385-0.792,7.391-1.037
		c0-0.005,0.214-12.947,0.214-12.947l-28.574-1.419l-0.724,13.242c3.117,0.661,7.998,0.664,10.597,2.5
		c2.725,1.915,2.239,8.137-0.468,9.982c-3.388,2.311-8.465,1.109-12.2,0.568c-4.727-0.686-9.366-1.703-13.488-4.248
		C234.842,259.098,234.309,247.119,237.846,237.711z"/>
	<path fill="#CD9B78" d="M309.593,188.053c0,0-15.749,27.866-36.294,0.781C273.299,188.834,291.884,201.813,309.593,188.053z"/>
	<path d="M217.408,243.983c-26.088-21.267-39.013-158.57-39.013-158.57l-28.744,31.943c0.389,13.812,1.562,26.522,3.345,38.243
		c0.957,0.781,1.876,1.612,2.754,2.491c7.041,7.041,11.046,16.704,11.046,26.664v0.84c0,4.925-0.983,9.774-2.824,14.272
		c25.46,70.807,75.605,86.688,75.605,86.688L217.408,243.983z"/>
	<path d="M317.608,251.891c0,0,18.343-15.381,23.684-28.065c0,0-7.076,73.358-84.378,69.738l54.018-28.316L317.608,251.891z"/>
	<path fill="#E6BD98" d="M247.801,234.565c0,0,1.745,3.282,6.155,3.179l-0.617-3.077l-1.949-1.024L247.801,234.565z"/>
	
		<path fill="none" stroke="#CD9B78" stroke-width="2.0765" stroke-linecap="round" stroke-linejoin="round" stroke-miterlimit="10" d="
		M297.565,237.313c0,0-30.424,8.339-52.586-5.292"/>
	<polygon fill="#414141" points="232.525,348.92 243.443,335.634 244.866,337.058 234.188,350.108 	"/>
	<polygon fill="#414141" points="301.277,348.496 293.102,333.371 294.96,332.59 303.005,347.408 	"/>
	<g>
		<g opacity="0.4">
			<path fill-rule="evenodd" clip-rule="evenodd" fill="#FFFFFF" d="M271.693,142.914c2.457,0.408,4.14,2.753,3.738,5.211
				l-6.881,30.416c-0.8,2.357-3.446,4.727-5.877,5.262l-50.032,0.883c-2.459-0.389-4.614-2.737-4.789-5.223l0.049-27.831
				c0.146-2.486,2.247-5,4.667-5.588L271.693,142.914z"/>
		</g>
		<g opacity="0.4">
			<path fill-rule="evenodd" clip-rule="evenodd" fill="#FFFFFF" d="M349.32,145.386c2.306,0.949,4.24,3.761,4.304,6.25
				l-0.608,28.986c-0.227,2.48-2.389,5.012-4.8,5.624l-32.823-2.638c-2.332-0.871-4.749-3.557-5.368-5.969l-4.499-29.471
				c-0.194-2.483,1.623-5.002,4.041-5.599L349.32,145.386z"/>
		</g>
		<g>
			<path fill-rule="evenodd" clip-rule="evenodd" d="M356.725,139.298c2.22,1.128,3.918,4.086,3.771,6.573l-2.778,38.228
				c-0.321,2.47-2.489,5.207-4.819,6.083c0,0-27.543,3.765-41.381-1.593c-10.082-3.904-12.373-36.961-12.373-36.961
				c-0.176-2.484-2.314-4.931-4.754-5.437l-6.471-0.67c-2.479,0.242-4.911,2.434-5.403,4.877l-10.655,32.657
				c-0.628,2.409-3.132,4.812-5.565,5.34l-57.275,0.868c-2.463-0.371-4.773-2.689-5.132-5.154l-3.459-37.098
				c-0.232-2.479,1.451-5.316,3.735-6.306c0,0,21.292-4.38,36.626-4.507c16.299-0.137,34.07,1.794,49.874,1.694
				c15.52-0.096,19.746-3.182,35.337-3.182C341.689,134.71,356.725,139.298,356.725,139.298z M212.57,146.043
				c-2.421,0.588-4.522,3.103-4.668,5.588l-0.047,27.831c0.173,2.485,2.328,4.833,4.787,5.223l50.032-0.883
				c2.432-0.535,5.077-2.905,5.877-5.262l6.881-30.416c0.401-2.458-1.281-4.803-3.738-5.211L212.57,146.043z M309.566,142.57
				c-2.418,0.597-4.072,3.097-3.676,5.556l5.91,29.288c0.842,2.344,3.403,5.06,5.694,6.035l30.728,2.832
				c2.408-0.631,4.567-3.177,4.793-5.657l0.736-28.99c-0.133-2.488-2.126-5.298-4.432-6.247L309.566,142.57z"/>
		</g>
	</g>
	<g>
		<path d="M181.203,205.77c-4.352,2.417-10.152,3.384-13.537,7.736c-4.351,6.285-0.483,10.152,6.768,9.67
			c-1.45,7.735-4.351,18.371,9.187,14.986c-2.418,6.285-3.869,25.625,7.734,15.955c-0.482,3.384-3.383,9.67-2.416,13.053
			c1.934,5.803,8.701,5.319,13.052,1.451c2.418,9.185,3.869,26.107,18.372,16.438c1.935,7.252,8.703,16.922,15.472,6.285
			c2.901,4.353,12.086,13.538,14.504,2.417c3.866,8.22,12.57,12.088,18.854,3.869c5.319,4.835,13.538,9.669,15.472-2.418
			c6.285,9.186,14.021,3.386,15.471-6.285c6.287,9.188,18.372,0,18.856-9.186c9.186,2.417,15.955-9.186,10.636-16.438
			c7.736,1.449,8.703-13.055,6.77-18.374c11.12,3.869,11.178-22.072,4.895-21.104c-3.385,11.604-8.28,19.172-16.982,28.358
			c-8.219,8.702-17.887,15.471-28.524,21.757c-24.656,14.986-53.665,7.25-73.971-11.604c-11.121-10.637-18.373-26.591-24.656-40.127
			"/>
	</g>
	<path fill="#E6BD98" d="M166.298,135.169c0,0-16.109-27.894-39.354-7.082c-28.983,25.957,23.553,42.638,23.553,42.638
		s16.629,5.5,10.768,23.349c-5.865,17.831-5.819,24.334,0.412,26.48c6.226,2.109,18.891-3.845,19.283-14.485
		C182.637,160.117,166.298,135.169,166.298,135.169z"/>
	<g>
		<path fill="#CD9B78" d="M169.022,166.647c0,0-26.485-56.936-25.376-11.478C143.646,155.169,147.864,129.722,169.022,166.647z"/>
		<path fill="#CD9B78" d="M169.193,166.799c0,0-18.336-28.123-10.521,8.614C158.672,175.413,156.004,151.747,169.193,166.799z"/>
	</g>
	<path fill-rule="evenodd" clip-rule="evenodd" d="M195.753,117.268l1.887,12.672c0,0,31.966-15.49,77.851-4.58v-17.279
		C275.491,108.082,223.356,95.455,195.753,117.268z"/>
	<path fill-rule="evenodd" clip-rule="evenodd" d="M305.921,113.506l-0.864,12.695c0,0,21.427-12.285,46.992,2.818l2.706-17.064
		C354.755,111.955,325.746,94.568,305.921,113.506z"/>
	<polygon fill-rule="evenodd" clip-rule="evenodd" points="205.137,142.914 179.771,133.182 179.771,152.104 205.137,154.621 	"/>
	<ellipse fill-rule="evenodd" clip-rule="evenodd" cx="244.819" cy="159.033" rx="3.648" ry="6.927"/>
	<ellipse fill-rule="evenodd" clip-rule="evenodd" cx="319.134" cy="159.033" rx="3.649" ry="6.927"/>
</g>
<g>
</g>
<g>
</g>
<g>
</g>
<g>
</g>
<g>
</g>
<g>
</g>
</svg>
