<?xml version="1.0" encoding="utf-8"?>
<!-- Generator: Adobe Illustrator 16.0.0, SVG Export Plug-In . SVG Version: 6.00 Build 0)  -->
<!DOCTYPE svg PUBLIC "-//W3C//DTD SVG 1.1//EN" "http://www.w3.org/Graphics/SVG/1.1/DTD/svg11.dtd">
<svg version="1.1" id="Layer_1" xmlns="http://www.w3.org/2000/svg" xmlns:xlink="http://www.w3.org/1999/xlink" x="0px" y="0px"
	 width="480px" height="500px" viewBox="0 0 480 500" enable-background="new 0 0 480 500" xml:space="preserve">
<g>
	<path fill="#9CD9EF" d="M384.849,65.205c0.057-0.556,0.336-1.19,0.641-1.637c1.531-2.267,4.101-2.817,6.502-3.068
		c5.216-0.546,8.606,2.463,11.2,6.911c1.449,2.482,2.178,5.359,2.393,8.288c0.462,6.213-1.066,13.188-5.655,17.509
		c-4.206,3.96-15.389,9.77-18.174,1.365c-0.507-1.524-0.412-5.492,0.939-6.661c4.17-3.61,4.708,8.321,4.657,10.202
		c-0.201,7.498-5.435,11.527-11.175,14.706c-3.276,1.817-6.833,2.912-10.423,3.651c-7.129,1.46-15.588,2.443-22.145-1.271
		c-6.299-3.57-15.515-13.81-10.146-22.128c1.508-2.128,4.606-2.761,6.057-0.495c1.029,1.719,0.76,4.809-0.434,6.368
		c-1.594,2.085-4.469,3.011-6.78,3.68c-2.286,0.664-5.214,0.467-7.563,0.527c-10.812,0.274-22.229-4.784-24.191-17.211
		c-0.464-2.946-0.751-6.697-0.195-9.678c1.257-6.746,3.616-13.935,8.901-18.339c1.552-1.291,3.688-2.088,5.655-1.974
		c1.891,0.108,3.91,0.574,5.013,2.266c0.625,0.957,1.836,2.81,1.609,4.087c-0.251,1.396-1.557,0.49-2.286-0.076
		c-3.638-2.838-4.774-8.236-2.819-12.625c3.984-8.951,14.455-13.15,23.057-13.621c2.408-0.13,4.953-0.103,7.335,0.229
		c3.767,0.529,7.781,1.543,10.848,3.99c1.514,1.208,7.949,7.041,1.723,13.914c-0.904,0.999-1.894,0.582-1.894-0.918
		c0.006-11.594,6.846-11.457,9.646-11.918c5.449-0.894,11.237,1.451,15.434,4.944c1.197,0.995,2.328,2.136,3.335,3.346
		c0.892,1.079,1.686,2.267,2.378,3.501c1.013,1.813,2.005,3.762,2.11,5.935c0.089,1.898-2.189,7.341-4.415,7.388
		C385.049,66.41,384.785,65.865,384.849,65.205z"/>
	<path fill="none" stroke="#FFFFFF" stroke-width="2.2316" stroke-miterlimit="10" d="M377.362,68.141
		c0.042-0.424,0.257-0.909,0.49-1.25c1.169-1.731,3.133-2.152,4.967-2.345c3.984-0.416,6.576,1.882,8.559,5.281
		c1.105,1.896,1.661,4.096,1.826,6.332c0.354,4.749-0.814,10.076-4.32,13.377c-3.213,3.026-11.757,7.465-13.886,1.043
		c-0.387-1.163-0.312-4.195,0.717-5.088c3.188-2.758,3.598,6.356,3.56,7.794c-0.153,5.729-4.151,8.807-8.537,11.236
		c-2.504,1.389-5.221,2.224-7.964,2.789c-5.445,1.116-11.91,1.868-16.917-0.971c-4.812-2.728-11.854-10.55-7.752-16.905
		c1.151-1.628,3.519-2.111,4.626-0.379c0.789,1.315,0.583,3.676-0.33,4.867c-1.217,1.592-3.414,2.3-5.181,2.81
		c-1.744,0.506-3.981,0.358-5.779,0.403c-8.258,0.21-16.981-3.655-18.48-13.149c-0.354-2.251-0.573-5.117-0.15-7.394
		c0.962-5.155,2.765-10.647,6.804-14.012c1.185-0.985,2.816-1.595,4.318-1.509c1.444,0.083,2.986,0.439,3.83,1.733
		c0.478,0.73,1.402,2.147,1.229,3.121c-0.19,1.068-1.191,0.376-1.746-0.057c-2.779-2.168-3.647-6.29-2.156-9.646
		c3.045-6.838,11.045-10.045,17.617-10.405c1.839-0.1,3.783-0.081,5.603,0.174c2.878,0.404,5.945,1.179,8.289,3.048
		c1.156,0.923,6.071,5.38,1.314,10.631c-0.689,0.764-1.445,0.442-1.445-0.703c0.005-8.857,5.231-8.752,7.367-9.104
		c4.164-0.683,8.587,1.109,11.795,3.777c0.912,0.759,1.778,1.633,2.547,2.557c0.682,0.825,1.288,1.73,1.816,2.674
		c0.774,1.385,1.532,2.875,1.613,4.536c0.066,1.449-1.674,5.607-3.376,5.643C377.516,69.062,377.313,68.646,377.362,68.141z"/>
	<path fill="#9CD9EF" d="M253.859,23.9c0.027-0.279,0.168-0.595,0.32-0.818c0.764-1.132,2.049-1.407,3.248-1.533
		c2.605-0.271,4.299,1.231,5.594,3.453c0.725,1.24,1.088,2.677,1.195,4.14c0.23,3.103-0.533,6.588-2.825,8.747
		c-2.102,1.978-7.688,4.88-9.078,0.682c-0.253-0.762-0.207-2.744,0.468-3.328c2.084-1.803,2.354,4.156,2.328,5.097
		c-0.102,3.745-2.715,5.757-5.582,7.345c-1.637,0.908-3.414,1.455-5.206,1.824c-3.562,0.73-7.788,1.221-11.063-0.634
		c-3.146-1.784-7.75-6.899-5.068-11.054c0.753-1.063,2.302-1.379,3.025-0.247c0.515,0.858,0.38,2.403-0.216,3.181
		c-0.796,1.042-2.233,1.504-3.387,1.838c-1.142,0.332-2.604,0.234-3.778,0.263c-5.401,0.137-11.103-2.39-12.083-8.597
		c-0.232-1.472-0.375-3.345-0.099-4.834c0.629-3.372,1.808-6.962,4.447-9.161c0.774-0.646,1.844-1.042,2.825-0.986
		c0.944,0.054,1.953,0.287,2.503,1.132c0.312,0.478,0.918,1.403,0.804,2.041c-0.125,0.697-0.778,0.246-1.143-0.038
		c-1.816-1.418-2.385-4.114-1.409-6.306c1.992-4.471,7.222-6.569,11.517-6.804c1.204-0.065,2.475-0.051,3.664,0.115
		c1.882,0.264,3.888,0.77,5.42,1.993c0.756,0.604,3.972,3.518,0.86,6.952c-0.452,0.498-0.946,0.29-0.946-0.459
		c0.004-5.792,3.421-5.724,4.818-5.953c2.722-0.447,5.614,0.724,7.71,2.469c0.598,0.497,1.162,1.067,1.666,1.671
		c0.444,0.54,0.841,1.133,1.188,1.748c0.506,0.906,1,1.879,1.053,2.965c0.045,0.948-1.093,3.667-2.206,3.691
		C253.959,24.502,253.827,24.23,253.859,23.9z"/>
	<path fill="none" stroke="#FFFFFF" stroke-width="1.1147" stroke-miterlimit="10" d="M250.119,25.368
		c0.021-0.212,0.129-0.455,0.244-0.625c0.585-0.864,1.565-1.076,2.48-1.172c1.991-0.208,3.286,0.94,4.276,2.639
		c0.554,0.948,0.83,2.045,0.913,3.163c0.176,2.372-0.407,5.034-2.159,6.682c-1.604,1.512-5.872,3.729-6.936,0.521
		c-0.193-0.581-0.157-2.096,0.357-2.542c1.593-1.377,1.797,3.175,1.779,3.894c-0.077,2.861-2.074,4.399-4.266,5.612
		c-1.252,0.694-2.607,1.111-3.978,1.394c-2.721,0.559-5.948,0.933-8.451-0.484c-2.406-1.363-5.922-5.271-3.873-8.445
		c0.575-0.813,1.759-1.054,2.312-0.189c0.394,0.657,0.291,1.835-0.165,2.431c-0.608,0.795-1.706,1.149-2.587,1.403
		c-0.872,0.253-1.991,0.18-2.89,0.202c-4.123,0.104-8.48-1.826-9.229-6.569c-0.177-1.124-0.289-2.556-0.077-3.692
		c0.481-2.576,1.381-5.32,3.4-7c0.591-0.492,1.407-0.797,2.157-0.753c0.721,0.042,1.491,0.219,1.912,0.865
		c0.24,0.364,0.702,1.072,0.615,1.559c-0.095,0.534-0.595,0.188-0.873-0.028c-1.388-1.083-1.822-3.143-1.077-4.818
		c1.521-3.416,5.518-5.017,8.8-5.197c0.92-0.05,1.891-0.04,2.799,0.085c1.438,0.204,2.97,0.591,4.141,1.524
		c0.577,0.461,3.032,2.688,0.656,5.311c-0.344,0.381-0.723,0.221-0.723-0.351c0.003-4.425,2.614-4.373,3.683-4.548
		c2.079-0.341,4.288,0.553,5.889,1.887c0.457,0.379,0.889,0.815,1.273,1.278c0.342,0.412,0.645,0.864,0.908,1.334
		c0.387,0.691,0.765,1.438,0.805,2.267c0.033,0.724-0.836,2.801-1.686,2.818C250.195,25.828,250.095,25.619,250.119,25.368z"/>
	<path fill="#C16559" d="M228.22,317.361c-23.499-8.308-34.894-17.2-34.833-27.184c0.085-13.745,22.377-21.719,24.919-22.584
		l2.433,7.155c-6.445,2.201-19.758,8.88-19.793,15.478c-0.016,2.844,2.857,10.487,29.795,20.013L228.22,317.361z M220.738,274.749
		l-1.217-3.577l1.218,3.576L220.738,274.749L220.738,274.749z"/>
	<path fill="#C16559" d="M279.59,292.142c-10.798,0-22.131-4.571-33.836-13.676l4.638-5.966
		c13.919,10.825,26.897,14.389,38.575,10.59c26.587-8.651,39.339-51.925,39.464-52.36l7.263,2.092
		c-0.56,1.939-14.03,47.577-44.389,57.454C287.478,291.521,283.568,292.142,279.59,292.142z"/>
	<path fill="#E9C09B" d="M201.225,291.886c-1.458-0.341-2.914-0.684-4.375-1.01c-1.151-0.257-2.306-0.499-3.459-0.748
		c0,0.018-0.004,0.032-0.004,0.05c-0.06,9.983,11.334,18.876,34.833,27.184l2.52-7.122
		C207.977,302.189,202.398,295.486,201.225,291.886z"/>
	<path fill="#E9C09B" d="M328.431,230.729c-0.125,0.436-12.877,43.709-39.464,52.36c-1.68,0.546-3.389,0.921-5.119,1.163
		c0.159,2.525,0.261,5.054,0.312,7.583c2.411-0.295,4.795-0.795,7.146-1.561c30.358-9.877,43.829-55.515,44.389-57.454
		L328.431,230.729z"/>
	<g>
		<polygon fill="#0E73BA" points="223.121,310.419 251.45,309.622 249.68,486.33 247.264,486.067 248.346,324.179 226.523,325.354 
			225.427,485.655 223.096,485.77 		"/>
		<polygon fill="#C16559" points="254.816,319.309 256.324,266.911 219.433,267.534 220.684,319.309 		"/>
		<path fill="#070507" d="M249.753,486.293c0,0,2.024,3.362,7.077,3.456l0.114,1.036c0,0-6.474,0.397-8.367-2.743l0.083,2.363
			l-2.147-0.255l0.753-4.271L249.753,486.293z"/>
		<path fill="#070507" d="M222.822,485.734c0,0-2.158,3.28-7.206,3.187l-0.159,1.03c0,0,6.462,0.637,8.468-2.427l-0.177,2.364
			l2.165-0.19l-0.597-4.286L222.822,485.734z"/>
	</g>
	<g>
		<path fill="#E9C09B" d="M326.856,237.342c2.536,2.165,6.076,2.442,7.867,0.616c1.791-1.826,5.952-2.902,9.247-2.392l1.176,0.183
			c3.295,0.511,6.378-0.928,6.852-3.197c0.473-2.27-1.868-4.188-5.202-4.263l-2.017-0.046c-3.334-0.075-4.237-2.166-2.008-4.645
			l5.233-5.818c2.229-2.479,2.637-5.903,0.904-7.607s-4.895-1.002-7.028,1.561l-5.011,6.021c-2.134,2.562-3.294,1.995-2.578-1.262
			l0.9-4.101c0.716-3.257-0.191-6.453-2.015-7.103c-1.823-0.65-3.979,1.465-4.789,4.7l-2.434,9.709
			c-0.812,3.234-2.907,4.244-4.659,2.244s-4.707-2.333-6.569-0.74c-1.861,1.594-1.309,4.669,1.228,6.833L326.856,237.342z"/>
	</g>
	<ellipse fill="#231F20" cx="241.173" cy="107.98" rx="82.906" ry="73.325"/>
	<path fill="#231F20" d="M315.649,77.939c-16.403-18.365-52.636-50.843-97.762-42.067c0,0-25.784,0.768-44.437,18.285
		c-5.547,5.209-10.465,11.899-13.888,20.493c0,0,4.845-7.325,9.18-8.187c0,0-18.54,23.216-19.812,58.788
		c0,0,2.173-8.376,4.758-10.962c0,0-2.878,30.952,8.256,42.62c11.133,11.669,140.631,0,140.631,0s31.588-37.931,14.066-76.913
		C316.3,79.314,315.967,78.63,315.649,77.939z"/>
	<path fill="#E8BF9B" d="M162.237,170.473c2.764,3.487,6.304,111.363,70.439,111.363c64.136,0,71.422-103.608,71.422-103.608
		L162.237,170.473z"/>
	<path opacity="0.1" fill="#010101" stroke="#A38060" stroke-width="0.8509" d="M126.104,490.628c0,1.393,52.97,2.517,118.31,2.517
		c65.355,0,118.324-1.124,118.324-2.517c0-1.389-52.969-2.521-118.324-2.521C179.075,488.107,126.104,489.239,126.104,490.628z"/>
	<path fill="#E8BF9B" d="M162.252,178.071c6.214-1.894,12.361-1.457,19.36-0.504c5.132,0.699,9.914,2.954,14.626,5.199
		c3.667,1.198,7.48,2.018,11.306,2.652c30.613,3.059,61.71-3.344,92.256-0.887l0.984-29.613l-0.898-7.48l5.024-0.295
		c1.537-0.092-5.717-41.795-6.862-46.021c-2.343-8.653-6.309-19.326-14.573-23.995c-10.385-5.866-22.668,0.512-33.549,0.454
		c-8.798-0.046-16.664-3.318-24.964-5.776c-26.729-7.916-49.559,7.908-61.974,30.929c-2.259,4.192-13.796,36.102-3.425,37.134
		c-0.915,6.185-2.686-2.878-3.937,3.1C155.012,145.908,162.255,178.069,162.252,178.071z"/>
	<path fill="#D09F78" d="M165.51,187.066c0,0,5.198-4.306,6.726-11.489c0,0-0.362,10.3-6.558,15.509
		C165.679,191.086,164.836,188.943,165.51,187.066z"/>
	<path fill="#231F20" d="M245.351,159.562c0,0,34.843-14.683,37.641,5.253C282.991,164.815,273.791,151.483,245.351,159.562z"/>
	<path fill="#231F20" d="M221.819,159.462c0,0-34.233-16.054-37.818,3.758C184.001,163.22,193.722,150.257,221.819,159.462z"/>
	<path fill="#D09F78" d="M215.916,188.412c0,0,17.532,25.549,38.531-0.826C254.446,187.586,236.438,203.889,215.916,188.412z"/>
	<g>
		<path fill="#E8BF9B" d="M300.265,137.731c0,0,8.569-18.698,24.48-6.771c19.847,14.858-12.415,28.493-12.415,28.493
			s-10.197,4.477-5.456,15.493c4.743,11.029,5.085,15.181,1.272,16.892c-3.816,1.71-12.166-1.35-13.039-8.114
			C291.387,154.552,300.265,137.731,300.265,137.731z"/>
		<g>
			<path fill="#D09F78" d="M300.374,157.938c0,0,13.442-37.796,15.376-8.776C315.75,149.162,311.612,133.189,300.374,157.938z"/>
			<path fill="#D09F78" d="M300.272,158.035c0,0,9.958-18.96,7.149,4.89C307.422,162.925,307.737,147.689,300.272,158.035z"/>
		</g>
	</g>
	<g>
		<path fill="#6D312B" d="M287.233,208.393l-103.941,5.449l-2.814,1.709c0,0,3.731,31.115,47.184,32.386
			C227.662,247.938,288.266,249.634,287.233,208.393z"/>
		<path fill="#FFFFFF" d="M287.194,204.188l0.039,4.206c0,0-60.236,24.11-106.663,7.094l-1.924-4.774l11.721-5.02
			c0,0,53.417,10.4,89.811-4.784L287.194,204.188z"/>
		<path fill="#CA8C84" d="M266.138,236.973c0,0-32.484-18.659-51.621,5.902L266.138,236.973z"/>
		<path fill="#FFFFFF" d="M273.927,234.499c0,0-53.92,10.597-73.619,6.672C200.308,241.171,238.378,260.719,273.927,234.499z"/>
		<path fill-rule="evenodd" clip-rule="evenodd" fill="none" stroke="#A38060" stroke-width="2.2743" d="M280.862,200.926
			c0,0-41.771,16.56-90.495,4.767l-11.218,5.272c0,0,5.535,39.845,54.888,36.34c0,0,59.435-1.591,53.046-42.701L280.862,200.926z"/>
		<path fill="#A38060" d="M292.88,209.563c0,0-5.074-11.004-22.271-12.739C270.608,196.824,287.124,201.397,292.88,209.563z"/>
		<path fill="#A38060" d="M197.447,203.675c0,0-13.886-1.179-23.993,10.929C173.455,214.604,186.171,204.29,197.447,203.675z"/>
	</g>
	<path fill="#A38060" d="M223.257,255.311c0,0,17.648,5.604,33.043-0.729C256.301,254.581,240.077,267.127,223.257,255.311z"/>
	<path fill="none" stroke="#D09F78" stroke-width="1.3717" d="M230.884,147.143c0,0,7.021,10.256,0.337,18.18"/>
	<path fill="none" stroke="#D09F78" stroke-width="1.3717" d="M241.245,147.314c0,0-7.349,10.022-0.929,18.151"/>
	<path fill="#D09F78" d="M183.878,154.808c0,0,9.496-13.391,30.133-1.532C214.011,153.275,201.526,143.964,183.878,154.808z"/>
	<path fill="#D09F78" d="M255.503,154.126c0,0,22.654-10.01,30.12,4.361C285.623,158.487,275.368,147.235,255.503,154.126z"/>
	<path fill="#231F20" d="M164.868,134.007l3.14,15.865c0,0,18.19-12.169,55.937-6.873l1.173-12.612c0,0-27.831-11.028-57.921,2.717"
		/>
	<path fill="#231F20" d="M245.279,129.267l0.321,16.158c0,0,18.594-9.059,52.263,2.273l3.101-12.25c0,0-23.678-15.382-53.409-6.694"
		/>
	<path fill="#D09F78" d="M302.354,191.406c0,0-5.087-4.437-6.434-11.655c0,0,0.1,10.306,6.163,15.67
		C302.083,195.421,302.979,193.3,302.354,191.406z"/>
	<path fill="#231F20" d="M292.88,74.217c0,0-36.216,56.875-100.844,37.055c0,0,4.911-2.155,8.272-3.017
		c0,0-17.711,4.739-28.072-3.877c0,0,14.629-4.08,18.076-6.133c0,0-21.898-0.872-25.063-14.979c0,0,43.16-24.559,46.175-24.559
		c3.016,0,38.348,0,38.348,0l35.852,11.034L292.88,74.217z"/>
	<g>
		<path fill="#E8BF9B" d="M165.542,138.904c0,0-6.538-19.496-23.624-9.333c-21.312,12.677,9.316,29.659,9.316,29.659
			s9.671,5.527,3.796,15.984c-5.891,10.461-6.67,14.549-3.059,16.658c3.609,2.105,12.235-0.05,13.819-6.684
			C172.576,156.569,165.542,138.904,165.542,138.904z"/>
		<g>
			<path fill="#D09F78" d="M163.284,158.983c0,0-9.352-39.007-14.354-10.35C148.931,148.633,154.737,133.186,163.284,158.983z"/>
			<path fill="#D09F78" d="M163.378,159.098c0,0-7.896-19.915-7.622,4.101C155.757,163.199,157.058,148.016,163.378,159.098z"/>
		</g>
	</g>
	<path fill="#231F20" d="M168.741,59.152c6.816-9.457,15.26-15.957,15.26-15.957c-3.008,0.575-11.765,1.148-11.765,1.148
		c28.313-25.277,65.448-14.937,65.448-14.937c-1.602-0.573-8.621-5.744-8.621-5.744c41.481-1.149,61.592,25.48,61.592,25.48"/>
	<path fill="#231F20" d="M289.867,50.763c0,0-3.403-14.628-8.123-18.909c0,0,10.044,9.275,11.136,15.876
		c0,0,11.979-8.028,12.243-8.384c0.265-0.357-9.203,10.702-9.203,10.702s12.849,0.012,16.778,8.659c0,0-13.405-7.944-22.042-4.733"
		/>
	<path fill="#9CD9EF" d="M166.241,39.771c0.066-0.652,0.394-1.398,0.753-1.921c1.796-2.662,4.813-3.307,7.632-3.603
		c6.125-0.64,10.104,2.893,13.15,8.114c1.701,2.915,2.556,6.292,2.81,9.731c0.541,7.293-1.254,15.482-6.642,20.556
		c-4.938,4.649-18.065,11.471-21.337,1.602c-0.594-1.789-0.482-6.447,1.103-7.818c4.896-4.238,5.529,9.769,5.468,11.978
		c-0.236,8.802-6.38,13.532-13.118,17.264c-3.846,2.133-8.023,3.417-12.237,4.287c-8.371,1.715-18.3,2.867-26-1.493
		c-7.394-4.191-18.212-16.213-11.907-25.979c1.768-2.5,5.406-3.243,7.108-0.581c1.209,2.018,0.893,5.646-0.51,7.476
		c-1.869,2.449-5.247,3.537-7.958,4.321c-2.685,0.779-6.122,0.549-8.88,0.618c-12.694,0.323-26.097-5.614-28.402-20.205
		c-0.545-3.459-0.882-7.863-0.231-11.362c1.479-7.921,4.248-16.361,10.453-21.531c1.822-1.515,4.333-2.452,6.639-2.318
		c2.222,0.126,4.589,0.675,5.884,2.661c0.734,1.124,2.156,3.3,1.89,4.798c-0.295,1.638-1.828,0.576-2.683-0.09
		c-4.27-3.331-5.607-9.668-3.311-14.822c4.677-10.506,16.971-15.438,27.07-15.99c2.826-0.154,5.814-0.122,8.61,0.269
		c4.421,0.621,9.136,1.812,12.736,4.684c1.776,1.419,9.333,8.266,2.022,16.336c-1.063,1.172-2.222,0.682-2.222-1.078
		c0.007-13.613,8.037-13.451,11.323-13.992c6.397-1.05,13.191,1.703,18.12,5.804c1.405,1.167,2.733,2.508,3.915,3.928
		c1.047,1.267,1.979,2.661,2.792,4.109c1.188,2.128,2.354,4.417,2.477,6.968c0.104,2.228-2.57,8.618-5.183,8.673
		C166.475,41.187,166.167,40.546,166.241,39.771z"/>
	<path fill="none" stroke="#FFFFFF" stroke-width="2.62" stroke-miterlimit="10" d="M157.453,43.218
		c0.049-0.498,0.301-1.068,0.575-1.468c1.373-2.032,3.678-2.526,5.83-2.753c4.679-0.489,7.722,2.208,10.048,6.2
		c1.3,2.227,1.953,4.809,2.146,7.434c0.414,5.575-0.957,11.83-5.073,15.705c-3.773,3.553-13.803,8.764-16.302,1.224
		c-0.454-1.364-0.369-4.924,0.842-5.973c3.741-3.237,4.223,7.463,4.18,9.15c-0.182,6.727-4.875,10.339-10.025,13.193
		c-2.94,1.629-6.129,2.609-9.351,3.273c-6.394,1.309-13.979,2.192-19.86-1.139c-5.65-3.204-13.916-12.387-9.101-19.847
		c1.35-1.913,4.132-2.479,5.432-0.446c0.926,1.543,0.685,4.315-0.389,5.714c-1.428,1.869-4.007,2.699-6.081,3.299
		c-2.048,0.596-4.675,0.421-6.787,0.473c-9.694,0.247-19.934-4.291-21.695-15.437c-0.416-2.644-0.674-6.006-0.178-8.681
		c1.129-6.053,3.246-12.5,7.987-16.451c1.391-1.156,3.309-1.872,5.071-1.77c1.695,0.097,3.506,0.515,4.496,2.033
		c0.561,0.857,1.646,2.52,1.442,3.666c-0.222,1.252-1.397,0.44-2.048-0.067c-3.263-2.546-4.284-7.386-2.531-11.323
		c3.574-8.028,12.967-11.794,20.683-12.216c2.16-0.118,4.441-0.095,6.577,0.202c3.379,0.477,6.98,1.386,9.731,3.581
		c1.357,1.082,7.129,6.316,1.543,12.481c-0.809,0.895-1.696,0.52-1.696-0.825c0.006-10.4,6.143-10.277,8.651-10.689
		c4.887-0.802,10.08,1.301,13.845,4.434c1.071,0.891,2.089,1.917,2.99,3.002c0.801,0.969,1.513,2.032,2.134,3.139
		c0.908,1.625,1.797,3.375,1.892,5.326c0.081,1.7-1.964,6.581-3.962,6.624C157.633,44.3,157.394,43.812,157.453,43.218z"/>
</g>
<g>
</g>
<g>
</g>
<g>
</g>
<g>
</g>
<g>
</g>
<g>
</g>
</svg>
